<?xml version="1.0" encoding="UTF-8" standalone="no"?>
<svg
   xmlns:dc="http://purl.org/dc/elements/1.1/"
   xmlns:cc="http://creativecommons.org/ns#"
   xmlns:rdf="http://www.w3.org/1999/02/22-rdf-syntax-ns#"
   xmlns:svg="http://www.w3.org/2000/svg"
   xmlns="http://www.w3.org/2000/svg"
   xmlns:sodipodi="http://sodipodi.sourceforge.net/DTD/sodipodi-0.dtd"
   xmlns:inkscape="http://www.inkscape.org/namespaces/inkscape"
   id="fd59ce54-f850-4dfc-bc34-dd7d379d600e"
   data-name="Layer 1"
   width="1084.3875"
   height="438.74911"
   viewBox="0 0 1084.3875 438.7491"
   version="1.1"
   sodipodi:docname="404_page.svg"
   inkscape:version="0.92.5 (2060ec1f9f, 2020-04-08)">
  <metadata
     id="metadata119">
    <rdf:RDF>
      <cc:Work
         rdf:about="">
        <dc:format>image/svg+xml</dc:format>
        <dc:type
           rdf:resource="http://purl.org/dc/dcmitype/StillImage" />
        <dc:title>page not found</dc:title>
      </cc:Work>
    </rdf:RDF>
  </metadata>
  <defs
     id="defs117" />
  <sodipodi:namedview
     pagecolor="#ffffff"
     bordercolor="#666666"
     borderopacity="1"
     objecttolerance="10"
     gridtolerance="10"
     guidetolerance="10"
     inkscape:pageopacity="0"
     inkscape:pageshadow="2"
     inkscape:window-width="1920"
     inkscape:window-height="1047"
     id="namedview115"
     showgrid="false"
     fit-margin-top="5"
     fit-margin-left="5"
     fit-margin-right="5"
     fit-margin-bottom="5"
     inkscape:zoom="1.1425426"
     inkscape:cx="511.20443"
     inkscape:cy="207.21554"
     inkscape:window-x="0"
     inkscape:window-y="33"
     inkscape:window-maximized="0"
     inkscape:current-layer="fd59ce54-f850-4dfc-bc34-dd7d379d600e" />
  <title
     id="title2">page not found</title>
  <ellipse
     cx="545.6427"
     cy="398.82751"
     rx="527.5"
     ry="34.9216"
     id="ellipse4"
     style="fill:#f2f2f2" />
  <path
     d="m 525.42494,16.52787 c -85.94407,0 -147.651,55.13938 -147.651,183.79791 0,145.813 61.70691,184.41057 147.651,184.41057 85.94409,0 151.327,-42.27352 151.327,-184.41057 -5e-5,-151.9396 -65.38293,-183.79791 -151.327,-183.79791 z m 0.56495,319.80837 c -59.52686,0 -90.62592,-34.92288 -90.62592,-135.9163 0,-89.11185 32.37209,-136.10461 91.899,-136.10461 59.52691,0 91.899,30.86774 91.899,136.10461 -9e-5,98.44736 -33.64522,135.9163 -93.17208,135.9163 z"
     id="path6"
     inkscape:connector-curvature="0"
     style="fill:#2f2e41" />
  <path
     d="M 326.31056,283.03484 H 290.77625 V 178.39546 a 20.95585,20.95585 0 0 0 -20.95583,-20.95583 h -8.32638 a 20.95585,20.95585 0 0 0 -20.95586,20.95585 V 283.03484 H 140.3081 a 11.96327,11.96327 0 0 1 -10.57763,-17.552 L 235.81287,64.7025 a 20.95585,20.95585 0 0 0 -9.58038,-28.73887 l -6.26231,-2.9572 a 20.95585,20.95585 0 0 0 -27.4293,9.07005 L 63.159409,284.10903 a 28.41578,28.41578 0 0 0 -3.35584,13.39612 v 0 a 28.41583,28.41583 0 0 0 28.41584,28.41583 H 240.53818 v 66.16727 a 25.119,25.119 0 0 0 25.119,25.119 h 5e-5 a 25.119,25.119 0 0 0 25.119,-25.119 v -66.16723 h 35.53428 a 21.44307,21.44307 0 0 0 21.44307,-21.44307 v 0 a 21.44307,21.44307 0 0 0 -21.44302,-21.44311 z"
     id="path8"
     inkscape:connector-curvature="0"
     style="fill:#b04027" />
  <path
     d="m 984.30705,283.03484 h -35.5342 V 178.39546 a 20.95585,20.95585 0 0 0 -20.95591,-20.95583 h -8.32638 A 20.95585,20.95585 0 0 0 898.5347,178.39548 V 283.03484 H 798.30462 a 11.96326,11.96326 0 0 1 -10.57763,-17.552 L 893.80938,64.70254 a 20.95586,20.95586 0 0 0 -9.58037,-28.73891 l -6.26231,-2.9572 a 20.95586,20.95586 0 0 0 -27.42931,9.07005 L 721.15593,284.10903 a 28.41578,28.41578 0 0 0 -3.35584,13.39612 v 0 a 28.41583,28.41583 0 0 0 28.41583,28.41583 H 898.5347 v 66.16727 a 25.119,25.119 0 0 0 25.119,25.119 v 0 a 25.119,25.119 0 0 0 25.11905,-25.119 v -66.16723 h 35.5342 A 21.44307,21.44307 0 0 0 1005.75,304.47795 v 0 a 21.44307,21.44307 0 0 0 -21.44295,-21.44311 z"
     id="path10"
     inkscape:connector-curvature="0"
     style="fill:#b04027" />
  <path
     d="M 336.11312,270.78163 H 300.57883 V 166.14227 a 20.95585,20.95585 0 0 0 -20.95585,-20.95586 h -8.32638 a 20.95586,20.95586 0 0 0 -20.95586,20.95586 V 270.78163 H 150.11066 a 11.96327,11.96327 0 0 1 -10.57763,-17.552 L 245.61542,52.44935 a 20.95586,20.95586 0 0 0 -9.58037,-28.73893 l -6.26231,-2.9572 a 20.95586,20.95586 0 0 0 -27.42931,9.07 L 72.961969,271.85583 a 28.41582,28.41582 0 0 0 -3.35584,13.39613 v 0 a 28.41583,28.41583 0 0 0 28.41583,28.41583 H 250.34074 v 66.16727 a 25.119,25.119 0 0 0 25.119,25.119 h 5e-5 a 25.119,25.119 0 0 0 25.119,-25.119 v -66.16723 h 35.53429 a 21.44307,21.44307 0 0 0 21.44307,-21.44307 v 0 a 21.44307,21.44307 0 0 0 -21.44303,-21.44313 z"
     stroke-miterlimit="10"
     id="path12"
     inkscape:connector-curvature="0"
     style="fill:none;stroke:#3f3d56;stroke-miterlimit:10" />
  <path
     d="M 1002.6868,270.78163 H 967.15255 V 166.14227 a 20.95586,20.95586 0 0 0 -20.9558,-20.95586 h -8.3264 a 20.95586,20.95586 0 0 0 -20.95586,20.95586 V 270.78163 H 816.68441 a 11.96327,11.96327 0 0 1 -10.57763,-17.552 L 912.18917,52.44935 A 20.95586,20.95586 0 0 0 902.6088,23.71042 l -6.26231,-2.9572 a 20.95586,20.95586 0 0 0 -27.42931,9.07 L 739.53572,271.85583 a 28.41582,28.41582 0 0 0 -3.35584,13.39613 v 0 a 28.41583,28.41583 0 0 0 28.41583,28.41583 h 152.31878 v 66.16727 a 25.119,25.119 0 0 0 25.11896,25.119 v 0 a 25.119,25.119 0 0 0 25.119,-25.119 v -66.16723 h 35.53425 a 21.44307,21.44307 0 0 0 21.4431,-21.44307 v 0 a 21.44307,21.44307 0 0 0 -21.443,-21.44313 z"
     stroke-miterlimit="10"
     id="path14"
     inkscape:connector-curvature="0"
     style="fill:none;stroke:#3f3d56;stroke-miterlimit:10" />
  <path
     d="m 545.03005,5.5 c -85.94407,0 -147.651,55.13937 -147.651,183.79791 0,145.813 61.70691,184.41057 147.651,184.41057 85.94409,0 151.327,-42.27352 151.327,-184.41057 C 696.357,37.3583 630.97412,5.5 545.03005,5.5 Z m 0.565,319.80836 c -59.52686,0 -90.62592,-34.92287 -90.62592,-135.91629 0,-89.11185 32.37209,-136.10461 91.899,-136.10461 59.52691,0 91.899,30.86774 91.899,136.10461 -1.4e-4,98.44735 -33.64527,135.91629 -93.17213,135.91629 z"
     stroke-miterlimit="10"
     id="path16"
     inkscape:connector-curvature="0"
     style="fill:none;stroke:#3f3d56;stroke-miterlimit:10" />
  <path
     d="m 1011.863,269.06777 a 20.81252,20.81252 0 1 0 2.7716,-39.91524 l 0.5209,10.7122 -5.0681,-9.18045 a 20.734,20.734 0 0 0 -10.68365,11.72261 20.40847,20.40847 0 0 0 -1.1971,5.62986 20.80856,20.80856 0 0 0 13.65635,21.03102 z"
     id="path56"
     inkscape:connector-curvature="0"
     style="fill:#57b894" />
  <path
     d="m 1036.9404,393.31119 c -1.7891,-9.11027 5.9633,-17.1868 13.6208,-22.43651 7.6576,-5.24971 16.605,-10.40779 19.2178,-19.31684 3.755,-12.80387 -7.43,-24.52981 -16.1357,-34.64176 a 125.30044,125.30044 0 0 1 -16.5236,-24.55738 c -1.811,-3.5325 -3.4755,-7.22528 -3.9522,-11.16626 -0.6864,-5.67546 1.137,-11.32309 2.9739,-16.73673 q 9.1793,-27.05169 19.6285,-53.65005"
     stroke-miterlimit="10"
     id="path58"
     inkscape:connector-curvature="0"
     style="fill:none;stroke:#3f3d56;stroke-miterlimit:10" />
  <path
     d="m 1012.7201,266.30983 a 20.81252,20.81252 0 1 0 2.7716,-39.91524 l 0.521,10.7122 -5.0682,-9.18045 a 20.734,20.734 0 0 0 -10.6836,11.72261 20.40847,20.40847 0 0 0 -1.19715,5.62986 20.80855,20.80855 0 0 0 13.65635,21.03102 z"
     stroke-miterlimit="10"
     id="path60"
     inkscape:connector-curvature="0"
     style="fill:none;stroke:#3f3d56;stroke-miterlimit:10" />
  <path
     d="m 1034.3966,207.10629 a 20.78819,20.78819 0 0 1 14.9799,-13.19764 l 1.7136,10.18378 3.177,-10.69566 a 20.81,20.81 0 1 1 -19.8706,13.70952 z"
     id="path62"
     inkscape:connector-curvature="0"
     style="fill:#57b894" />
  <path
     d="m 1035.5394,203.42903 a 20.7882,20.7882 0 0 1 14.9799,-13.19763 l 1.7136,10.18378 3.177,-10.69567 a 20.81,20.81 0 1 1 -19.8705,13.70952 z"
     stroke-miterlimit="10"
     id="path64"
     inkscape:connector-curvature="0"
     style="fill:none;stroke:#3f3d56;stroke-miterlimit:10" />
  <path
     d="m 1049.9899,317.12248 a 20.81,20.81 0 0 0 18.419,-37.02267 l -2.4412,8.21926 -1.731,-10.30382 a 0.36183,0.36183 0 0 0 -0.053,-0.0201 20.81113,20.81113 0 1 0 -14.1938,39.12733 z"
     id="path66"
     inkscape:connector-curvature="0"
     style="fill:#57b894" />
  <path
     d="m 1050.9802,313.3978 a 20.81,20.81 0 0 0 18.419,-37.02267 l -2.4412,8.21926 -1.7311,-10.30382 a 0.3621,0.3621 0 0 0 -0.053,-0.0201 20.81113,20.81113 0 1 0 -14.1938,39.12733 z"
     stroke-miterlimit="10"
     id="path68"
     inkscape:connector-curvature="0"
     style="fill:none;stroke:#3f3d56;stroke-miterlimit:10" />
  <path
     d="m 1028.323,351.68511 a 20.80131,20.80131 0 1 0 4.0106,-16.29737 l 9.2727,13.95654 -12.67,-7.40768 a 20.61638,20.61638 0 0 0 -0.6133,9.74851 z"
     id="path70"
     inkscape:connector-curvature="0"
     style="fill:#57b894" />
  <path
     d="m 1029.1801,348.92717 a 20.80131,20.80131 0 1 0 4.0106,-16.29737 l 9.2727,13.95655 -12.6699,-7.40769 a 20.61626,20.61626 0 0 0 -0.6134,9.74851 z"
     stroke-miterlimit="10"
     id="path72"
     inkscape:connector-curvature="0"
     style="fill:none;stroke:#3f3d56;stroke-miterlimit:10" />
  <path
     d="m 14.006709,319.76688 a 13.67421,13.67421 0 1 0 1.821,-26.225 l 0.34227,7.03811 -3.32987,-6.03172 a 13.62263,13.62263 0 0 0 -7.0193595,7.702 13.40883,13.40883 0 0 0 -0.78654,3.69893 13.6716,13.6716 0 0 0 8.9724995,13.81768 z"
     id="path74"
     inkscape:connector-curvature="0"
     style="fill:#57b894" />
  <path
     d="m 30.482989,401.39707 c -1.17545,-5.98561 3.918,-11.292 8.94915,-14.7412 5.03115,-3.4492 10.90978,-6.8381 12.62642,-12.69151 2.46711,-8.41238 -4.88167,-16.11653 -10.60142,-22.76027 a 82.32442,82.32442 0 0 1 -10.85629,-16.13465 22.20962,22.20962 0 0 1 -2.59668,-7.33643 c -0.451,-3.72888 0.747,-7.43947 1.95391,-10.99634 q 6.03093,-17.77346 12.89623,-35.24906"
     stroke-miterlimit="10"
     id="path76"
     inkscape:connector-curvature="0"
     style="fill:none;stroke:#3f3d56;stroke-miterlimit:10" />
  <path
     d="m 14.569859,317.95486 a 13.6742,13.6742 0 1 0 1.821,-26.225 l 0.34227,7.03812 -3.32988,-6.03177 a 13.62262,13.62262 0 0 0 -7.0193595,7.702 13.40912,13.40912 0 0 0 -0.78654,3.69892 13.67158,13.67158 0 0 0 8.9725095,13.81773 z"
     stroke-miterlimit="10"
     id="path78"
     inkscape:connector-curvature="0"
     style="fill:none;stroke:#3f3d56;stroke-miterlimit:10" />
  <path
     d="m 28.811659,279.05706 a 13.65822,13.65822 0 0 1 9.84209,-8.67109 l 1.12587,6.69093 2.08737,-7.02725 a 13.67252,13.67252 0 1 1 -13.05533,9.00741 z"
     id="path80"
     inkscape:connector-curvature="0"
     style="fill:#57b894" />
  <path
     d="m 29.562519,276.64103 a 13.65822,13.65822 0 0 1 9.84209,-8.67108 l 1.12587,6.69093 2.08737,-7.02725 a 13.67252,13.67252 0 1 1 -13.05533,9.0074 z"
     stroke-miterlimit="10"
     id="path82"
     inkscape:connector-curvature="0"
     style="fill:none;stroke:#3f3d56;stroke-miterlimit:10" />
  <path
     d="m 39.056799,351.3397 a 13.67255,13.67255 0 0 0 12.10164,-24.32457 l -1.60392,5.4002 -1.13733,-6.76979 a 0.238,0.238 0 0 0 -0.0348,-0.0132 13.67329,13.67329 0 1 0 -9.32559,25.70736 z"
     id="path84"
     inkscape:connector-curvature="0"
     style="fill:#57b894" />
  <path
     d="m 39.707389,348.89252 a 13.67255,13.67255 0 0 0 12.10164,-24.32457 l -1.60392,5.4002 -1.13733,-6.7698 a 0.238,0.238 0 0 0 -0.0348,-0.0132 13.673291,13.673291 0 1 0 -9.32559,25.70737 z"
     stroke-miterlimit="10"
     id="path86"
     inkscape:connector-curvature="0"
     style="fill:none;stroke:#3f3d56;stroke-miterlimit:10" />
  <path
     d="m 24.821249,374.04798 a 13.66684,13.66684 0 1 0 2.635,-10.70767 l 6.09231,9.16971 -8.32438,-4.867 a 13.54535,13.54535 0 0 0 -0.40293,6.40496 z"
     id="path88"
     inkscape:connector-curvature="0"
     style="fill:#57b894" />
  <path
     d="m 25.384379,372.23596 a 13.66684,13.66684 0 1 0 2.635,-10.70767 l 6.09231,9.16971 -8.32439,-4.867 a 13.54535,13.54535 0 0 0 -0.40292,6.40496 z"
     stroke-miterlimit="10"
     id="path90"
     inkscape:connector-curvature="0"
     style="fill:none;stroke:#3f3d56;stroke-miterlimit:10" />
  <ellipse
     cx="485.94525"
     cy="168.63364"
     rx="17"
     ry="22"
     id="ellipse92"
     style="fill:#2f2e41" />
  <ellipse
     cx="578.44525"
     cy="169.13364"
     rx="17"
     ry="22"
     id="ellipse94"
     style="fill:#2f2e41" />
  <path
     d="m 565.44525,234.13363 c 0,9.94 -13.88,18 -31,18 -17.12,0 -31,-8.06 -31,-18 0,-8.61 10.41,-15.81 24.32,-17.57 a 50.10353,50.10353 0 0 1 6.68,-0.43 50.69869,50.69869 0 0 1 11.13,1.2 c 11.62,2.59 19.87,9.14 19.87,16.8 z"
     id="path96"
     inkscape:connector-curvature="0"
     style="fill:#2f2e41" />
  <ellipse
     cx="489.94525"
     cy="163.63364"
     rx="17"
     ry="22"
     stroke-miterlimit="10"
     id="ellipse98"
     style="fill:none;stroke:#3f3d56;stroke-miterlimit:10" />
  <ellipse
     cx="582.44525"
     cy="164.13364"
     rx="17"
     ry="22"
     stroke-miterlimit="10"
     id="ellipse100"
     style="fill:none;stroke:#3f3d56;stroke-miterlimit:10" />
  <ellipse
     cx="538.44525"
     cy="229.13364"
     rx="31"
     ry="18"
     stroke-miterlimit="10"
     id="ellipse102"
     style="fill:none;stroke:#3f3d56;stroke-miterlimit:10" />
  <path
     d="m 545.94525,218.83363 a 4.93658,4.93658 0 0 1 -1.32,3.392 4.33873,4.33873 0 0 1 -3.18,1.408 h -10 a 4.66433,4.66433 0 0 1 -4.5,-4.8 4.90458,4.90458 0 0 1 0.82,-2.74134 47.02,47.02 0 0 1 6.68,-0.45866 47.66454,47.66454 0 0 1 11.13,1.28 5.06656,5.06656 0 0 1 0.37,1.92 z"
     id="path104"
     inkscape:connector-curvature="0"
     style="fill:#ffffff" />
  <circle
     cx="489.94525"
     cy="157.63364"
     r="5"
     id="circle106"
     style="fill:#ffffff" />
  <circle
     cx="582.94525"
     cy="157.63364"
     r="5"
     id="circle108"
     style="fill:#ffffff" />
  <circle
     cx="587.94525"
     cy="204.63364"
     r="5"
     id="circle110"
     style="opacity:0.3;fill:#b04027" />
  <circle
     cx="465.94525"
     cy="204.63364"
     r="5"
     id="circle112"
     style="opacity:0.3;fill:#b04027" />
</svg>
