<?xml version="1.0" encoding="UTF-8" standalone="no"?>
<!-- Created with Inkscape (http://www.inkscape.org/) -->

<svg
   xmlns:dc="http://purl.org/dc/elements/1.1/"
   xmlns:cc="http://creativecommons.org/ns#"
   xmlns:rdf="http://www.w3.org/1999/02/22-rdf-syntax-ns#"
   xmlns:svg="http://www.w3.org/2000/svg"
   xmlns="http://www.w3.org/2000/svg"
   xmlns:sodipodi="http://sodipodi.sourceforge.net/DTD/sodipodi-0.dtd"
   xmlns:inkscape="http://www.inkscape.org/namespaces/inkscape"
   width="330.95544mm"
   height="198.56407mm"
   viewBox="0 0 330.95544 198.56407"
   version="1.1"
   id="svg8"
   inkscape:version="0.92.5 (2060ec1f9f, 2020-04-08)"
   sodipodi:docname="landing_page.svg">
  <defs
     id="defs2" />
  <sodipodi:namedview
     id="base"
     pagecolor="#ffffff"
     bordercolor="#666666"
     borderopacity="1.0"
     inkscape:pageopacity="0.0"
     inkscape:pageshadow="2"
     inkscape:zoom="0.98994949"
     inkscape:cx="680.41701"
     inkscape:cy="359.74143"
     inkscape:document-units="mm"
     inkscape:current-layer="g3990"
     showgrid="false"
     fit-margin-top="5"
     fit-margin-left="5"
     fit-margin-right="5"
     fit-margin-bottom="5"
     inkscape:window-width="1920"
     inkscape:window-height="1047"
     inkscape:window-x="0"
     inkscape:window-y="33"
     inkscape:window-maximized="0" />
  <metadata
     id="metadata5">
    <rdf:RDF>
      <cc:Work
         rdf:about="">
        <dc:format>image/svg+xml</dc:format>
        <dc:type
           rdf:resource="http://purl.org/dc/dcmitype/StillImage" />
        <dc:title></dc:title>
      </cc:Work>
    </rdf:RDF>
  </metadata>
  <g
     inkscape:groupmode="layer"
     id="layer4"
     inkscape:label="Calque 2"
     style="display:inline"
     transform="translate(1.3914834,1.8640084)">
    <path
       id="path8033"
       d="m 51.890028,3.1359916 v 0.91674 H 21.356555 A 17.748044,17.748044 0 0 0 3.6085166,21.800772 v 65.03935 A 17.748072,17.748072 0 0 0 21.356635,104.5882 H 189.68163 A 17.748077,17.748077 0 0 0 207.4297,86.840122 V 21.800772 A 17.748044,17.748044 0 0 0 189.6817,4.0527316 H 73.586126 v -0.91674 z"
       inkscape:connector-curvature="0"
       style="fill:#3f3d56;stroke-width:0.55742973" />
    <path
       id="path8035"
       d="M 20.292057,7.872462 H 189.43861 a 13.254637,13.254637 0 0 1 13.25462,13.25464 v 65.1644 A 13.254637,13.254637 0 0 1 189.43861,99.546138 H 20.292057 A 11.947023,11.947023 0 0 1 8.3450081,87.599112 v -9.20027 a 6.4676676,6.4676676 0 0 0 5.4132419,-0.28189 6.3222899,6.3222899 0 0 0 3.142959,-5.17183 v -37.9127 a 6.3219052,6.3219052 0 0 0 -3.143329,-5.17199 6.4682754,6.4682754 0 0 0 -5.412819,-0.28156 v -9.75941 a 11.947023,11.947023 0 0 1 11.946996,-11.947 z"
       inkscape:connector-curvature="0"
       style="fill:#ffffff;stroke-width:0.55742973" />
  </g>
  <g
     inkscape:label="Calque 1"
     inkscape:groupmode="layer"
     id="layer1"
     transform="translate(0.9664048,-83.841673)">
    <g
       id="g1018"
       transform="matrix(0.32012372,0,0,0.32012372,5.4250786,90.705681)">
      <ellipse
         id="ellipse912"
         ry="15.339578"
         rx="432.49295"
         cy="567.87262"
         cx="565.75848"
         style="fill:#b04027;fill-opacity:1;stroke-width:2.13685083" />
      <ellipse
         id="ellipse914"
         ry="6"
         rx="43.362701"
         cy="559"
         cx="74.990196"
         style="fill:#e6e6e6" />
      <rect
         id="rect916"
         height="255.52966"
         width="509.3269"
         x="66.971779"
         y="23.166182"
         style="fill:#e6e6e6;stroke-width:0.89737946" />
      <rect
         id="rect918"
         height="213.95197"
         width="462.552"
         y="44.567242"
         x="90.971298"
         style="fill:#ffffff;stroke-width:0.89737946" />
      <polygon
         id="polygon920"
         points="25.379,260.902 94.595,191.687 116.314,213.405 154.441,175.277 201.256,222.092 280.89,142.458 317.087,178.656 396.238,99.504 440.64,143.906 522.004,62.542 523.369,63.907 440.64,146.636 396.238,102.234 317.087,181.385 280.89,145.188 201.256,224.822 154.441,178.007 116.314,216.135 94.595,194.416 26.744,262.267 "
         style="fill:#b04027"
         transform="matrix(0.89737943,0,0,0.89737943,66.971782,23.166181)" />
      <circle
         id="circle922"
         r="10.394426"
         cy="114.98363"
         cx="422.9809"
         style="fill:#51c9e7;fill-opacity:1;stroke-width:0.89737946" />
      <circle
         id="circle924"
         r="10.394426"
         cy="182.54741"
         cx="206.43034"
         style="fill:#51c9e7;fill-opacity:1;stroke-width:0.89737946" />
      <circle
         id="circle926"
         r="10.394426"
         cy="183.4136"
         cx="351.95233"
         style="fill:#51c9e7;fill-opacity:1;stroke-width:0.89737946" />
      <circle
         id="circle928"
         r="10.394426"
         cy="222.39272"
         cx="250.60664"
         style="fill:#51c9e7;fill-opacity:1;stroke-width:0.89737946" />
      <circle
         id="circle930"
         r="10.394426"
         cy="153.96272"
         cx="317.30423"
         style="fill:#51c9e7;fill-opacity:1;stroke-width:0.89737946" />
      <circle
         id="circle932"
         r="10.394426"
         cy="153.96272"
         cx="461.95999"
         style="fill:#51c9e7;fill-opacity:1;stroke-width:0.89737946" />
      <path
         id="path934"
         transform="translate(-157.6471,-161.73349)"
         d="m 219.01394,691.24065 c 4.7,17.37388 20.79839,28.134 20.79839,28.134 0,0 8.47828,-17.40854 3.77832,-34.78242 -4.69996,-17.37388 -20.79838,-28.134 -20.79838,-28.134 0,0 -8.47827,17.40854 -3.77833,34.78242 z"
         inkscape:connector-curvature="0"
         style="fill:#e6e6e6" />
      <path
         id="path936"
         transform="translate(-157.6471,-161.73349)"
         d="m 225.9202,687.50682 c 12.89676,12.55447 14.472,31.85362 14.472,31.85362 0,0 -19.33453,-1.05567 -32.23129,-13.61015 -12.89676,-12.55448 -14.472,-31.85362 -14.472,-31.85362 0,0 19.33453,1.05567 32.23129,13.61015 z"
         inkscape:connector-curvature="0"
         style="fill:#b04027" />
      <path
         id="path938"
         transform="translate(-157.6471,-161.73349)"
         d="m 880.63206,295.92979 7.38726,73.05167 h 60.7943 l -2.92207,-111.03854 c 0,-23.90017 -16.52223,-44.805 -40.42192,-44.805 -23.89969,0 -39.44791,19.93084 -39.44791,43.831 l -3.89609,112.01256 h 9.9121 z"
         inkscape:connector-curvature="0"
         style="fill:#2f2e41" />
      <path
         id="path940"
         transform="translate(-157.6471,-161.73349)"
         d="m 916.96859,679.01334 c 0,0 -2.624,16.61862 -6.99731,19.24261 -4.37331,2.62399 22.74127,8.74664 22.74127,8.74664 l 4.37332,-26.23992 z"
         inkscape:connector-curvature="0"
         style="fill:#fbbebe" />
      <path
         id="path942"
         transform="translate(-157.6471,-161.73349)"
         d="m 949.33117,489.2112 9.62131,11.37064 -4.37332,39.35989 -3.49866,77.84511 c 0,0 6.99731,67.34915 0,69.09848 -6.99731,1.74933 -38.48523,0.87466 -37.61056,-3.49866 0.87467,-4.37332 1.74933,-7.872 3.49865,-13.99463 1.74932,-6.12263 -1.74932,-27.98925 -1.74932,-27.98925 l 4.37332,-24.4906 -15.744,-105.83437 z"
         inkscape:connector-curvature="0"
         style="fill:#51c9e7;fill-opacity:1" />
      <path
         id="path944"
         transform="translate(-157.6471,-161.73349)"
         d="m 917.84326,695.632 c 0,0 -9.62131,-1.74933 -10.496,0 -0.87469,1.74933 -17.49326,20.11723 -20.11726,20.11723 -2.624,0 -21.8666,17.49329 -1.74933,18.36795 20.11727,0.87466 53.35452,-14.86929 53.35452,-14.86929 0,0 -4.89134,-22.25712 -4.63233,-21.1872 0.25901,1.06992 -16.3596,1.94459 -16.3596,-2.42869 z"
         inkscape:connector-curvature="0"
         style="fill:#2f2e41" />
      <path
         id="path946"
         transform="translate(-157.6471,-161.73349)"
         d="m 907.34729,655.3974 c 0,0 24.4906,27.11459 25.36526,29.73859 0.87466,2.624 13.99463,0 13.99463,0 l 5.248,-17.49329 -4.37332,-6.12265 -24.4906,-20.11727 z"
         inkscape:connector-curvature="0"
         style="fill:#fbbebe" />
      <path
         id="path948"
         transform="translate(-157.6471,-161.73349)"
         d="m 942.33386,675.51468 -12.68263,11.93752 c 0,0 16.18128,24.79838 16.18128,27.42237 0,2.62399 0.87467,24.4906 9.62131,20.99194 8.74664,-3.49866 9.62131,-38.48522 9.62131,-38.48522 0,0 -0.87467,-35.86124 -6.12265,-38.48523 -5.24798,-2.62399 -16.75024,-1.795 -16.75024,-1.795 0,0 7.12893,17.53894 0.13162,18.41362 z"
         inkscape:connector-curvature="0"
         style="fill:#2f2e41" />
      <path
         id="path950"
         transform="translate(-157.6471,-161.73349)"
         d="m 869.73673,411.36609 c 0,0 -4.37332,13.99463 -5.248,17.49328 -0.87468,3.49865 -6.12265,13.12 -6.12265,27.98926 0,14.86926 1.74933,32.36257 0,34.1119 -1.74933,1.74933 -29.73858,99.71172 -17.49328,110.20769 12.2453,10.49597 52.47985,45.48254 55.10384,49.85586 2.62399,4.37332 3.49866,14.86929 8.74665,13.12 5.24799,-1.74929 25.36526,-19.24262 26.23992,-22.74127 0.87466,-3.49865 -11.37063,-9.62131 -11.37063,-9.62131 0,0 -24.4906,-35.86123 -30.61325,-34.98657 -6.12265,0.87466 -5.248,-4.37332 -4.37332,-6.99731 0.87468,-2.62399 2.624,-4.37332 0,-4.37332 -2.624,0 -0.87467,-6.99732 0,-10.496 0.87467,-3.49868 20.99199,-50.73053 20.99199,-50.73053 l 53.35452,-23.61593 c 0,0 -2.624,-63.85049 -21.86661,-81.34377 l -4.37332,-10.496 c 0,0 -48.98124,-3.49863 -62.97586,2.62402 z"
         inkscape:connector-curvature="0"
         style="fill:#51c9e7;fill-opacity:1" />
      <path
         id="path952"
         transform="translate(-157.6471,-161.73349)"
         d="m 891.60333,273.16914 c 0,0 4.37332,30.61325 -6.12265,32.36258 -10.49597,1.74933 -19.24261,0.87466 -19.24261,1.74933 0,0.87467 26.23993,27.98925 26.23993,27.98925 l 24.49059,-1.74933 21.86661,-23.61597 c 0,0 -20.11728,-3.49866 -20.11728,-15.744 0,-12.24534 -0.87466,-20.99194 -0.87466,-20.99194 z"
         inkscape:connector-curvature="0"
         style="fill:#ffb8b8" />
      <circle
         id="circle954"
         r="27.11459"
         cy="97.003693"
         cx="747.51355"
         style="fill:#ffb8b8" />
      <path
         id="path956"
         transform="translate(-157.6471,-161.73349)"
         d="m 889.33645,303.305 c 0,0 -42.341,3.97608 -44.965,15.34671 -2.624,11.37063 17.49329,82.21844 20.11728,88.34109 2.62399,6.12265 1.74933,10.496 1.74933,10.496 a 34.60715,34.60715 0 0 1 27.98925,-6.12265 c 16.61862,3.49866 40.23456,1.74933 40.23456,1.74933 0,0 7.872,-32.36258 9.6213,-35.86124 1.7493,-3.49866 8.74665,-22.74127 8.74665,-27.98925 0,-5.24798 10.496,-27.11459 10.496,-27.11459 0,0 -5.248,-15.744 -24.4906,-14.86929 0,0 -8.39344,-3.75674 -10.7567,-1.00371 -2.36326,2.75303 -15.48323,14.99833 -32.10185,9.75035 -16.61862,-5.24798 -6.64022,-12.72275 -6.64022,-12.72275 z"
         inkscape:connector-curvature="0"
         style="fill:#e6e6e6" />
      <path
         id="path958"
         transform="translate(-157.6471,-161.73349)"
         d="m 946.70718,317.777 16.61862,4.37332 c 0,0 12.2453,44.60787 13.12,45.48254 0.8747,0.87467 1.74933,6.12265 1.74933,6.12265 0,0 0,0.87466 1.74933,3.49865 1.74933,2.62399 4.37332,0.87467 2.624,4.37333 -1.74932,3.49866 -4.37332,1.74932 -2.624,5.248 1.74932,3.49868 0.87466,13.12 0.87466,13.12 0,0 -4.37332,-16.61862 -20.11728,-12.2453 l -10.496,-47.23186 z"
         inkscape:connector-curvature="0"
         style="fill:#e6e6e6" />
      <polygon
         id="polygon960"
         points="755.193,153.046 794.553,164.416 794.493,164.616 765.683,255.376 746.773,251.176 726.323,246.637 "
         style="fill:#b04027" />
      <path
         id="path962"
         transform="translate(-157.6471,-161.73349)"
         d="m 861.29282,317.777 -16.61862,4.37332 c 0,0 -12.2453,44.60787 -13.12,45.48254 -0.8747,0.87467 -1.74933,6.12265 -1.74933,6.12265 0,0 0,0.87466 -1.74933,3.49865 -1.74933,2.62399 -4.37332,0.87467 -2.624,4.37333 1.74932,3.49866 4.37332,1.74932 2.624,5.248 -1.74932,3.49868 -0.87466,13.12 -0.87466,13.12 0,0 4.37332,-16.61862 20.11728,-12.2453 l 10.496,-47.23186 z"
         inkscape:connector-curvature="0"
         style="fill:#e6e6e6" />
      <path
         id="path964"
         transform="translate(-157.6471,-161.73349)"
         d="m 832.4289,385.12616 -5.46422,9.13177 c 0,0 -2.40775,17.10816 9.83754,17.10816 12.24529,0 29.73859,-16.61862 29.73859,-16.61862 0,0 8.74664,-3.49866 13.99463,-2.624 5.24799,0.87466 34.1119,0 21.8666,-14.8693 -12.2453,-14.8693 -33.23724,0 -33.23724,0 l -21.8666,10.496 -11.37064,-6.12264 z"
         inkscape:connector-curvature="0"
         style="fill:#ffb8b8" />
      <path
         id="path966"
         transform="translate(-157.6471,-161.73349)"
         d="m 839.86355,373.3182 8.74664,13.99462 c 0,0 -20.11728,2.624 -21.8666,6.99732 -1.74932,4.37332 7.872,-22.74127 7.872,-22.74127 z"
         inkscape:connector-curvature="0"
         style="fill:#e6e6e6" />
      <path
         id="path968"
         transform="translate(-157.6471,-161.73349)"
         d="m 882.5801,249.17672 c 17.61432,-9.49644 24.85,-9.09431 46.75307,0 L 935.1773,234.9383 A 10.12353,10.12353 0 0 0 925.06517,224.82616 H 885.87409 A 10.12353,10.12353 0 0 0 875.762,234.9383 Z"
         inkscape:connector-curvature="0"
         style="fill:#2f2e41" />
      <polygon
         id="polygon970"
         points="765.683,255.376 746.773,251.176 775.193,159.046 794.493,164.616 "
         style="opacity:0.2" />
      <polygon
         id="polygon972"
         points="752.324,252.633 791.684,261.379 820.548,170.414 781.188,159.044 "
         style="fill:#b04027" />
      <path
         id="path974"
         transform="translate(-157.6471,-161.73349)"
         d="m 975.5711,385.12616 5.46422,9.13177 c 0,0 2.40775,17.10816 -9.83754,17.10816 -12.24529,0 -29.73859,-16.61862 -29.73859,-16.61862 0,0 -8.74664,-3.49866 -13.99463,-2.624 -5.24799,0.87466 -34.1119,0 -21.8666,-14.8693 12.2453,-14.8693 33.23724,0 33.23724,0 l 21.8666,10.496 11.37064,-6.12264 z"
         inkscape:connector-curvature="0"
         style="fill:#ffb8b8" />
      <path
         id="path976"
         transform="translate(-157.6471,-161.73349)"
         d="m 968.13645,373.3182 -8.74664,13.99462 c 0,0 20.11728,2.624 21.8666,6.99732 1.74932,4.37332 -7.872,-22.74127 -7.872,-22.74127 z"
         inkscape:connector-curvature="0"
         style="fill:#e6e6e6" />
      <g
         id="g2703"
         transform="matrix(0.82650337,0,0,0.82650337,786.60775,540.72071)">
        <path
           id="path2662"
           d="m -557.52829,-70.005515 c 0,41.801146 -24.8501,56.396546 -55.5043,56.396546 -30.65418,0 -55.5043,-14.5954 -55.5043,-56.396546 0,-41.801155 55.5043,-94.978815 55.5043,-94.978815 0,0 55.5043,53.17765 55.5043,94.978815 z"
           inkscape:connector-curvature="0"
           style="fill:#e6e6e6" />
        <polygon
           id="polygon2664"
           points="830.332,291.164 828.678,322.761 828.629,321.922 808.166,293.329 828.567,324.885 828.36,328.836 828.323,328.896 828.34,329.22 824.144,409.383 829.751,409.383 830.423,367.977 850.775,336.499 830.474,364.865 831.042,329.881 854.699,286.601 831.131,324.393 831.387,308.663 847.691,277.35 831.454,304.5 831.914,276.209 849.373,251.28 831.986,271.76 832.273,219.884 830.469,288.559 830.617,285.726 812.866,258.555 "
           style="fill:#3f3d56"
           transform="translate(-1445.5283,-384.86812)" />
        <rect
           id="rect2606"
           transform="rotate(26.64397,774.24509,-209.46116)"
           height="13.89411"
           width="2.5729799"
           y="219.17274"
           x="402.54443"
           style="fill:#ffffff" />
        <ellipse
           id="ellipse2618"
           transform="rotate(-21.1763)"
           ry="10.15313"
           rx="32.341919"
           cy="-286.75876"
           cx="-547.6723"
           style="fill:#2f2e41" />
        <circle
           id="circle2620"
           r="64.683853"
           cy="-60.708706"
           cx="-679.06549"
           style="fill:#2f2e41" />
        <rect
           id="rect2622"
           height="35.207661"
           width="19.650789"
           y="-9.9441805"
           x="-708.54169"
           style="fill:#2f2e41" />
        <rect
           id="rect2624"
           height="35.207661"
           width="19.650789"
           y="-9.9441805"
           x="-669.24011"
           style="fill:#2f2e41" />
        <ellipse
           id="ellipse2626"
           ry="6.1408701"
           rx="16.37566"
           cy="25.672886"
           cx="-692.16602"
           style="fill:#2f2e41" />
        <ellipse
           id="ellipse2628"
           ry="6.1408701"
           rx="16.37566"
           cy="24.854099"
           cx="-652.86444"
           style="fill:#2f2e41" />
        <circle
           id="circle2630"
           r="22.10714"
           cy="-77.084381"
           cx="-677.42792"
           style="fill:#ffffff" />
        <circle
           id="circle2632"
           r="7.36905"
           cy="-77.084381"
           cx="-677.42792"
           style="fill:#3f3d56" />
        <path
           id="path2634"
           d="m -741.81101,-120.86283 c -5.22292,-23.39065 11.47266,-47.02591 37.29064,-52.79083 25.81798,-5.76492 50.9816,8.52354 56.20452,31.91418 5.22292,23.39064 -11.88759,32.01752 -37.70556,37.78245 -25.81797,5.764933 -50.56667,6.484843 -55.7896,-16.9058 z"
           inkscape:connector-curvature="0"
           style="fill:#51c9e7;fill-opacity:1" />
        <ellipse
           id="ellipse2636"
           transform="rotate(-45)"
           ry="10.15313"
           rx="32.341919"
           cy="-563.31189"
           cx="-488.75134"
           style="fill:#2f2e41" />
        <path
           id="path2638"
           d="m -710.838,-37.373397 c 0,6.33082 16.30083,18.832 34.38888,18.832 18.08805,0 35.04764,-17.82327 35.04764,-24.15409 0,-6.33082 -16.95958,1.22817 -35.04764,1.22817 -18.08806,0 -34.38888,-2.2369 -34.38888,4.09392 z"
           inkscape:connector-curvature="0"
           style="fill:#ffffff" />
        <ellipse
           id="ellipse2640"
           transform="rotate(-68.8237)"
           ry="32.341919"
           rx="10.15313"
           cy="-547.67664"
           cx="-137.57797"
           style="fill:#2f2e41" />
        <circle
           id="circle2642"
           r="64.683853"
           cy="-60.708706"
           cx="-495.60507"
           style="fill:#2f2e41" />
        <rect
           id="rect2644"
           transform="scale(-1)"
           height="35.207661"
           width="19.650789"
           y="-25.26347"
           x="466.12891"
           style="fill:#2f2e41" />
        <rect
           id="rect2646"
           transform="scale(-1)"
           height="35.207661"
           width="19.650789"
           y="-25.26347"
           x="505.43048"
           style="fill:#2f2e41" />
        <ellipse
           id="ellipse2648"
           ry="6.1408701"
           rx="16.37566"
           cy="25.672886"
           cx="-482.50455"
           style="fill:#2f2e41" />
        <ellipse
           id="ellipse2650"
           ry="6.1408701"
           rx="16.37566"
           cy="24.854099"
           cx="-521.80615"
           style="fill:#2f2e41" />
        <circle
           id="circle2652"
           r="22.10714"
           cy="-77.084381"
           cx="-497.24265"
           style="fill:#ffffff" />
        <circle
           id="circle2654"
           r="7.36905"
           cy="-77.084381"
           cx="-497.24265"
           style="fill:#3f3d56" />
        <path
           id="path2656"
           d="m -432.85957,-120.86283 c 5.22292,-23.39065 -11.47266,-47.02591 -37.29064,-52.79083 -25.81798,-5.76492 -50.9816,8.52354 -56.20452,31.91418 -5.22292,23.39064 11.88759,32.01752 37.70556,37.78245 25.81797,5.764933 50.56667,6.484843 55.7896,-16.9058 z"
           inkscape:connector-curvature="0"
           style="fill:#b04027" />
        <ellipse
           id="ellipse2658"
           transform="rotate(-45)"
           ry="32.341919"
           rx="10.15313"
           cy="-341.86621"
           cx="-267.30563"
           style="fill:#2f2e41" />
        <path
           id="path2660"
           d="m -463.83258,-37.373397 c 0,6.33082 -16.30083,18.832 -34.38888,18.832 -18.08805,0 -35.04764,-17.82327 -35.04764,-24.15409 0,-6.33082 16.95958,1.22817 35.04764,1.22817 18.08806,0 34.38888,-2.2369 34.38888,4.09392 z"
           inkscape:connector-curvature="0"
           style="fill:#ffffff" />
        <g
           id="g3364"
           transform="matrix(0.74880527,0,0,0.74880527,-496.21897,-490.83062)">
          <circle
             id="circle3222"
             r="86.292252"
             cy="568.64227"
             cx="828.12115"
             style="fill:#2f2e41" />
          <polygon
             id="polygon3224"
             points="764.211,613.9 788.056,624.794 766.65,674.925 742.805,664.031 "
             style="fill:#2f2e41" />
          <rect
             id="rect3226"
             transform="rotate(24.55435,1094.2489,425.49456)"
             height="46.9692"
             width="26.21537"
             y="734.01111"
             x="924.78131"
             style="fill:#2f2e41" />
          <ellipse
             id="ellipse3228"
             transform="rotate(-35.44565,720.50955,931.82821)"
             ry="21.84614"
             rx="8.1922998"
             cy="785.59698"
             cx="931.05487"
             style="fill:#2f2e41" />
          <ellipse
             id="ellipse3230"
             transform="rotate(-35.44565,671.92606,917.90367)"
             ry="21.84614"
             rx="8.1922998"
             cy="771.67242"
             cx="882.47137"
             style="fill:#2f2e41" />
          <circle
             id="circle3232"
             r="29.49229"
             cy="549.67957"
             cx="839.18646"
             style="fill:#ffffff" />
          <circle
             id="circle3234"
             r="9.83076"
             cy="536.42792"
             cx="828.54242"
             style="fill:#3f3d56" />
          <path
             id="path3236"
             d="m 909.15776,555.86537 c 6.62965,-31.27814 39.99126,-50.702 74.51524,-43.38432 34.524,7.31768 57.1368,38.60569 50.5071,69.88383 -6.6296,31.27814 -32.1744,32.26046 -66.69837,24.94282 -34.52398,-7.31764 -64.95363,-20.1642 -58.32397,-51.44233 z"
             inkscape:connector-curvature="0"
             style="fill:#b04027;fill-opacity:1"
             transform="translate(-123.82515,-95)" />
          <ellipse
             id="ellipse3238"
             transform="rotate(-88.61681,922.46671,684.00501)"
             ry="43.14613"
             rx="13.5449"
             cy="668.07947"
             cx="1033.04"
             style="fill:#2f2e41" />
          <ellipse
             id="ellipse3240"
             transform="rotate(-88.61681,751.36722,669.48251)"
             ry="43.14613"
             rx="13.5449"
             cy="653.55695"
             cx="861.94055"
             style="fill:#2f2e41" />
          <path
             id="path3242"
             d="m 920.584,690.745 a 19.66154,19.66154 0 1 0 35.767,16.34094 c 4.51242,-9.87677 -2.55973,-15.58037 -12.43651,-20.09279 -9.87678,-4.51242 -18.81811,-6.12492 -23.33049,3.75185 z"
             inkscape:connector-curvature="0"
             style="fill:#ffffff"
             transform="translate(-123.82515,-95)" />
        </g>
      </g>
      <g
         id="g3990"
         transform="matrix(0.82650337,0,0,0.82650337,1087.0921,110.22706)">
        <circle
           id="circle3873"
           r="49.476952"
           cy="373.25665"
           cx="-462.38901"
           style="fill:#b04027;stroke-width:0.80863535" />
        <circle
           id="circle3877"
           r="63.882191"
           cy="463.99747"
           cx="-678.13159"
           style="fill:#2f2e41;stroke-width:0.80863535" />
        <rect
           id="rect3879"
           height="34.77132"
           width="19.407248"
           y="514.13287"
           x="-707.24249"
           style="fill:#2f2e41;stroke-width:0.80863535" />
        <rect
           id="rect3881"
           height="34.77132"
           width="19.407248"
           y="514.13287"
           x="-668.42798"
           style="fill:#2f2e41;stroke-width:0.80863535" />
        <ellipse
           id="ellipse3883"
           ry="6.064765"
           rx="16.172707"
           cy="549.30853"
           cx="-691.06976"
           style="fill:#2f2e41;stroke-width:0.80863535" />
        <ellipse
           id="ellipse3885"
           ry="6.064765"
           rx="16.172707"
           cy="548.49988"
           cx="-652.25531"
           style="fill:#2f2e41;stroke-width:0.80863535" />
        <circle
           id="circle3887"
           r="21.833155"
           cy="447.82477"
           cx="-676.51434"
           style="fill:#ffffff;stroke-width:0.80863535" />
        <circle
           id="circle3889"
           r="7.2777181"
           cy="447.82477"
           cx="-676.51434"
           style="fill:#3f3d56;stroke-width:0.80863535" />
        <path
           id="path3891"
           d="m -740.09949,404.5889 c -5.15819,-23.10076 11.33048,-46.4431 36.82849,-52.13658 25.49801,-5.69348 50.34976,8.41789 55.50797,31.51867 5.1582,23.10077 -11.74027,31.6207 -37.23827,37.31418 -25.498,5.69348 -49.94,6.40448 -55.09819,-16.69627 z"
           inkscape:connector-curvature="0"
           style="fill:#51c9e7;fill-opacity:1;stroke-width:0.80863535" />
        <ellipse
           id="ellipse3893"
           transform="rotate(-23.17116)"
           ry="10.027297"
           rx="31.941095"
           cy="161.57251"
           cx="-745.90692"
           style="fill:#2f2e41;stroke-width:0.80863535" />
        <ellipse
           id="ellipse3895"
           transform="rotate(-23.17116)"
           ry="10.027297"
           rx="31.941095"
           cy="153.88217"
           cx="-872.79456"
           style="fill:#2f2e41;stroke-width:0.80863535" />
        <path
           id="path3897"
           d="m -640.93438,482.59611 c 0,6.25237 -16.09881,18.59861 -33.96269,18.59861 -17.86388,0 -34.77132,-11.53761 -34.77132,-17.78998 0,-6.25237 16.90744,-4.85181 34.77132,-4.85181 17.86388,0 33.96269,-2.20919 33.96269,4.04318 z"
           inkscape:connector-curvature="0"
           style="fill:#ffffff;stroke-width:0.80863535" />
        <circle
           id="circle3899"
           r="49.476952"
           cy="466.24973"
           cx="-556.99933"
           style="fill:#b04027;stroke-width:0.80863535" />
        <line
           id="line3901"
           stroke-miterlimit="10"
           y2="465.97757"
           x2="-557.04327"
           y1="555.72687"
           x1="-557.04327"
           style="fill:#3f3d56;stroke:#3f3d56;stroke-width:1.61727071;stroke-miterlimit:10" />
        <circle
           id="circle3903"
           r="12.691814"
           cy="465.97757"
           cx="-557.04327"
           style="fill:#3f3d56;stroke-width:0.80863535" />
        <path
           id="path3905"
           d="m -557.0433,521.29191 c 0,0 -1.81313,-38.99628 -38.98202,-34.46349"
           inkscape:connector-curvature="0"
           style="fill:#3f3d56;stroke-width:0.80863535" />
        <line
           id="line3927"
           stroke-miterlimit="10"
           y2="373.20126"
           x2="-462.34387"
           y1="555.93439"
           x1="-462.34387"
           style="fill:#3f3d56;stroke:#3f3d56;stroke-width:1.61727071;stroke-miterlimit:10" />
        <circle
           id="circle3929"
           r="12.691814"
           cy="373.20126"
           cx="-462.34387"
           style="fill:#3f3d56;stroke-width:0.80863535" />
        <path
           id="path3931"
           d="m -462.34385,424.88937 c 0,0 -1.81311,-38.99628 -38.982,-34.46349"
           inkscape:connector-curvature="0"
           style="fill:#3f3d56;stroke-width:0.80863535" />
        <path
           id="path3933"
           stroke-miterlimit="10"
           d="m -462.34385,552.44564 c 0,0 8.15903,-74.99016 -38.982,-78.61639"
           inkscape:connector-curvature="0"
           style="fill:none;stroke:#3f3d56;stroke-width:1.61727071;stroke-miterlimit:10" />
        <circle
           id="circle3935"
           r="12.691814"
           cy="473.82922"
           cx="-501.32587"
           style="fill:#3f3d56;stroke-width:0.80863535" />
        <g
           id="layer1-5"
           transform="matrix(5.5798544,0,0,5.5798544,-1515.9759,-249.52912)"
           style="stroke:none">
          <text
             xml:space="preserve"
             style="font-style:normal;font-weight:normal;font-size:10.58333302px;line-height:1.25;font-family:sans-serif;letter-spacing:0px;word-spacing:0px;fill:#000000;fill-opacity:1;stroke:none;stroke-width:0.26458332"
             x="63.610146"
             y="39.886715"
             id="text3715"><tspan
               id="tspan3713"
               x="63.610146"
               y="39.886715"
               style="font-style:normal;font-variant:normal;font-weight:normal;font-stretch:normal;font-family:Comfortaa;-inkscape-font-specification:Comfortaa;stroke:none;stroke-width:0.26458332;stroke-opacity:1"><tspan
   style="fill:#b04027;fill-opacity:1;stroke:none"
   id="tspan4530">carnet</tspan> <tspan
   style="stroke:none"
   id="tspan4536">de</tspan> <tspan
   style="fill:#51c9e7;fill-opacity:1;stroke:none"
   id="tspan4534">suivi</tspan></tspan></text>
        </g>
        <g
           inkscape:groupmode="layer"
           id="layer3"
           inkscape:label="Layer 2"
           style="display:none" />
        <g
           inkscape:groupmode="layer"
           id="layer2"
           inkscape:label="Layer 1" />
        <g
           id="g5641"
           transform="translate(92.61595,-114.31351)">
          <path
             id="path5571"
             d="m -388.89122,51.357603 a 1.001,1.001 0 0 0 0.49828,1.323532 l 96.55549,43.738277 a 1.001,1.001 0 0 0 1.32352,-0.498273 l 33.01003,-72.872075 a 1.001,1.001 0 0 0 -0.49828,-1.323522 l -96.55549,-43.738277 a 1.001,1.001 0 0 0 -1.32353,0.498274 z"
             inkscape:connector-curvature="0"
             style="fill:#e6e6e6" />
          <path
             id="path5573"
             d="m -382.02459,49.528085 88.35721,40.023813 29.29686,-64.673286 -88.35781,-40.024573 z m -1.85656,4.097908 0.004,-0.0085 -0.005,0.0096 z"
             inkscape:connector-curvature="0"
             style="fill:#ffffff" />
          <path
             id="path5575"
             d="m -363.77047,47.367555 c -0.45514,1.004748 0.30445,2.33356 1.69241,2.96224 1.38792,0.628685 2.88773,0.323403 3.34291,-0.681348 l 21.4565,-47.3668434 c 0.45515,-1.0047477 -0.30444,-2.33355943 -1.69241,-2.96228969 -1.38794,-0.62873351 -2.88775,-0.32340141 -3.34291,0.68134843827 z"
             inkscape:connector-curvature="0"
             style="fill:#b04027" />
          <path
             id="path5577"
             d="m -352.83967,52.319056 c -0.45513,1.004747 0.30445,2.33356 1.69242,2.96229 1.38793,0.628734 2.88774,0.323391 3.34291,-0.681359 l 21.45651,-47.3668437 c 0.45514,-1.0047466 -0.30444,-2.3335594 -1.69241,-2.9622896 -1.38793,-0.6287346 -2.88774,-0.3233926 -3.34291,0.6813583 z"
             inkscape:connector-curvature="0"
             style="fill:#b04027" />
          <path
             id="path5579"
             d="m -341.90885,57.270556 c -0.45514,1.004748 0.30445,2.33356 1.69241,2.96229 1.38793,0.628734 2.88774,0.323402 3.34291,-0.681359 l 21.45651,-47.366843 c 0.45514,-1.004747 -0.30445,-2.333559 -1.69241,-2.9622893 -1.38793,-0.6287346 -2.88774,-0.3233925 -3.34291,0.6813584 z"
             inkscape:connector-curvature="0"
             style="fill:#b04027" />
          <path
             id="path5581"
             d="m -330.97808,62.222062 c -0.45513,1.004756 0.30444,2.333569 1.69241,2.962289 1.38793,0.628725 2.88775,0.323402 3.34291,-0.681348 l 21.45645,-47.366878 c 0.45513,-1.004756 -0.30445,-2.333569 -1.69241,-2.962289 -1.38793,-0.628725 -2.88775,-0.323402 -3.34291,0.681348 z"
             inkscape:connector-curvature="0"
             style="fill:#b04027" />
          <path
             id="path5583"
             d="m -320.04724,67.173568 c -0.45514,1.004748 0.30445,2.33356 1.69242,2.96229 1.38793,0.628733 2.88774,0.323391 3.3429,-0.681358 l 21.45646,-47.366838 c 0.45514,-1.004748 -0.30444,-2.33356 -1.69241,-2.96229 -1.38793,-0.628734 -2.88774,-0.323402 -3.34291,0.681359 z"
             inkscape:connector-curvature="0"
             style="fill:#b04027" />
          <path
             id="path5585"
             d="m -309.11639,72.125065 c -0.45514,1.004748 0.30445,2.333559 1.69241,2.96229 1.38793,0.628734 2.88774,0.323392 3.34291,-0.681359 l 21.45646,-47.366837 c 0.45514,-1.004748 -0.30445,-2.33356 -1.69242,-2.96229 -1.38793,-0.628734 -2.88774,-0.323392 -3.3429,0.681358 z"
             inkscape:connector-curvature="0"
             style="fill:#b04027" />
          <path
             id="path5527"
             d="m -348.14103,172.78109 a 1.001,1.001 0 0 0 -1.26995,0.62227 l -34.32744,100.28773 a 1.001,1.001 0 0 0 0.62227,1.26994 l 75.68884,25.90751 a 1.001,1.001 0 0 0 1.26996,-0.62227 l 34.32742,-100.28769 a 1.001,1.001 0 0 0 -0.62227,-1.26996 z"
             inkscape:connector-curvature="0"
             style="fill:#f2f2f2" />
          <path
             id="path5529"
             d="m -341.77269,197.40664 c -1.04359,-0.35718 -2.29386,0.52572 -2.78728,1.96727 -0.49343,1.44154 -0.0464,2.90542 0.99715,3.26262 l 49.19775,16.83988 c 1.0436,0.35719 2.29387,-0.52571 2.78728,-1.96725 0.49341,-1.44154 0.0464,-2.90543 -0.99715,-3.26265 z"
             inkscape:connector-curvature="0"
             style="fill:#ffffff" />
          <path
             id="path5531"
             d="m -345.65882,208.75997 c -1.04359,-0.35719 -2.29386,0.52572 -2.78728,1.96725 -0.49342,1.44154 -0.0464,2.90543 0.99714,3.26264 l 49.19776,16.83987 c 1.04359,0.35719 2.29387,-0.52571 2.78728,-1.96726 0.49342,-1.44155 0.0464,-2.90543 -0.99715,-3.26263 z"
             inkscape:connector-curvature="0"
             style="fill:#ffffff" />
          <path
             id="path5533"
             d="m -349.54493,220.1133 c -1.0436,-0.35719 -2.29386,0.52572 -2.78729,1.96726 -0.49343,1.44154 -0.0464,2.90542 0.99715,3.26263 l 49.19775,16.83988 c 1.04359,0.35719 2.29387,-0.52572 2.78728,-1.96726 0.49341,-1.44154 0.0464,-2.90543 -0.99715,-3.26264 z"
             inkscape:connector-curvature="0"
             style="fill:#ffffff" />
          <path
             id="path5535"
             d="m -353.43106,231.46663 c -1.0436,-0.35719 -2.29386,0.52572 -2.78729,1.96726 -0.49342,1.44154 -0.0464,2.90542 0.99715,3.26263 l 49.19776,16.83987 c 1.04359,0.35719 2.29386,-0.52571 2.78728,-1.96726 0.49342,-1.44155 0.0464,-2.90543 -0.99716,-3.26263 z"
             inkscape:connector-curvature="0"
             style="fill:#ffffff" />
          <path
             id="path5537"
             d="m -357.31719,242.81996 c -1.04359,-0.35719 -2.29386,0.52572 -2.78728,1.96725 -0.49342,1.44153 -0.0464,2.90542 0.99715,3.26263 l 49.19775,16.83988 c 1.04359,0.35719 2.29386,-0.52572 2.78728,-1.96726 0.49343,-1.44154 0.0464,-2.90543 -0.99715,-3.26263 z"
             inkscape:connector-curvature="0"
             style="fill:#ffffff" />
          <path
             id="path5539"
             d="m -361.20331,254.17328 c -1.04359,-0.35719 -2.29386,0.52572 -2.78729,1.96726 -0.49342,1.44154 -0.0464,2.90542 0.99715,3.26263 l 49.19776,16.83987 c 1.04359,0.35719 2.29386,-0.52572 2.78728,-1.96725 0.49342,-1.44154 0.0464,-2.90543 -0.99715,-3.26264 z"
             inkscape:connector-curvature="0"
             style="fill:#ffffff" />
          <path
             id="path5555"
             d="m -304.6507,112.94715 a 1.001,1.001 0 0 0 -1.09464,0.89541 l -10.55905,105.47277 a 1.001,1.001 0 0 0 0.89542,1.09464 l 79.60209,7.9691 a 1.001,1.001 0 0 0 1.09464,-0.89541 l 10.55905,-105.47277 a 1.001,1.001 0 0 0 -0.89541,-1.09464 z"
             inkscape:connector-curvature="0"
             style="fill:#e6e6e6" />
          <path
             id="path5557"
             d="m -300.72109,118.86794 -9.66177,96.51711 70.64637,7.07321 9.66235,-96.51787 z m -4.47646,-0.44836 0.01,0.002 -0.0111,-0.001 z"
             inkscape:connector-curvature="0"
             style="fill:#ffffff" />
          <path
             id="path5559"
             d="m -292.83574,135.47224 c -1.09751,-0.10986 -2.11358,1.03482 -2.26537,2.5509 -0.15179,1.51609 0.6172,2.8395 1.71472,2.94936 l 51.74134,5.17997 c 1.09751,0.10986 2.11359,-1.03483 2.26538,-2.55091 0.15179,-1.51609 -0.61721,-2.8395 -1.71472,-2.94936 z"
             inkscape:connector-curvature="0"
             style="fill:#b04027" />
          <path
             id="path5561"
             d="m -294.0311,147.41255 c -1.09752,-0.10986 -2.11359,1.03482 -2.26538,2.55091 -0.1518,1.5161 0.6172,2.8395 1.71472,2.94936 l 51.74135,5.17991 c 1.09752,0.10986 2.11359,-1.03482 2.26538,-2.55091 0.1518,-1.5161 -0.6172,-2.8395 -1.71471,-2.94936 z"
             inkscape:connector-curvature="0"
             style="fill:#b04027" />
          <path
             id="path5563"
             d="m -295.22647,159.35286 c -1.09751,-0.10986 -2.11358,1.03482 -2.26538,2.55092 -0.15179,1.51609 0.61721,2.8395 1.71472,2.94935 l 51.74139,5.17994 c 1.09752,0.10986 2.11359,-1.03483 2.26538,-2.55092 0.1518,-1.51609 -0.6172,-2.8395 -1.71472,-2.94936 z"
             inkscape:connector-curvature="0"
             style="fill:#b04027" />
          <path
             id="path5565"
             d="m -296.42183,171.29316 c -1.09751,-0.10986 -2.11358,1.03482 -2.26537,2.55092 -0.1518,1.51609 0.6172,2.8395 1.71471,2.94936 l 51.74136,5.17992 c 1.09751,0.10986 2.11358,-1.03483 2.26537,-2.55091 0.15179,-1.51609 -0.6172,-2.8395 -1.71472,-2.94936 z"
             inkscape:connector-curvature="0"
             style="fill:#b04027" />
          <path
             id="path5567"
             d="m -297.6172,183.23348 c -1.09751,-0.10986 -2.11358,1.03482 -2.26537,2.55091 -0.15179,1.51609 0.6172,2.8395 1.71472,2.94936 l 51.74136,5.17992 c 1.09751,0.10987 2.11358,-1.03483 2.26536,-2.55091 0.15179,-1.51609 -0.6172,-2.8395 -1.71471,-2.94936 z"
             inkscape:connector-curvature="0"
             style="fill:#b04027" />
          <path
             id="path5569"
             d="m -298.81256,195.17379 c -1.09752,-0.10986 -2.11358,1.03483 -2.26537,2.55092 -0.15179,1.5161 0.6172,2.8395 1.71472,2.94936 l 51.74136,5.17992 c 1.09752,0.10986 2.11359,-1.03482 2.26537,-2.55092 0.15179,-1.5161 -0.6172,-2.83949 -1.71471,-2.94936 z"
             inkscape:connector-curvature="0"
             style="fill:#b04027" />
        </g>
      </g>
    </g>
  </g>
</svg>
