<?xml version="1.0" encoding="UTF-8" standalone="no"?>
<svg
   xmlns:dc="http://purl.org/dc/elements/1.1/"
   xmlns:cc="http://creativecommons.org/ns#"
   xmlns:rdf="http://www.w3.org/1999/02/22-rdf-syntax-ns#"
   xmlns:svg="http://www.w3.org/2000/svg"
   xmlns="http://www.w3.org/2000/svg"
   xmlns:sodipodi="http://sodipodi.sourceforge.net/DTD/sodipodi-0.dtd"
   xmlns:inkscape="http://www.inkscape.org/namespaces/inkscape"
   id="ad1dbded-e6d6-4106-9f5c-9042f8f56d9b"
   data-name="Layer 1"
   width="701.3844"
   height="674.58093"
   viewBox="0 0 701.38438 674.58092"
   version="1.1"
   sodipodi:docname="undraw_progress_data_4ebj.svg"
   inkscape:version="0.92.5 (2060ec1f9f, 2020-04-08)">
  <metadata
     id="metadata75">
    <rdf:RDF>
      <cc:Work
         rdf:about="">
        <dc:format>image/svg+xml</dc:format>
        <dc:type
           rdf:resource="http://purl.org/dc/dcmitype/StillImage" />
        <dc:title>progress_data</dc:title>
      </cc:Work>
    </rdf:RDF>
  </metadata>
  <defs
     id="defs73" />
  <sodipodi:namedview
     pagecolor="#ffffff"
     bordercolor="#666666"
     borderopacity="1"
     objecttolerance="10"
     gridtolerance="10"
     guidetolerance="10"
     inkscape:pageopacity="0"
     inkscape:pageshadow="2"
     inkscape:window-width="1920"
     inkscape:window-height="1047"
     id="namedview71"
     showgrid="false"
     inkscape:zoom="0.81868685"
     inkscape:cx="243.45316"
     inkscape:cy="276.38172"
     inkscape:window-x="0"
     inkscape:window-y="33"
     inkscape:window-maximized="0"
     inkscape:current-layer="ad1dbded-e6d6-4106-9f5c-9042f8f56d9b"
     fit-margin-left="5"
     fit-margin-top="5"
     fit-margin-right="5"
     fit-margin-bottom="5" />
  <title
     id="title2">progress_data</title>
  <ellipse
     cx="575.30707"
     cy="657.58093"
     rx="121.07731"
     ry="12"
     id="ellipse4"
     style="fill:#e6e6e6" />
  <ellipse
     cx="79.990204"
     cy="564"
     rx="43.362701"
     ry="6"
     id="ellipse6"
     style="fill:#51c9e7;fill-opacity:1" />
  <rect
     width="567.57141"
     height="284.75098"
     id="rect8"
     x="5"
     y="5"
     style="fill:#e6e6e6" />
  <rect
     x="31.061951"
     y="28.166176"
     width="515.44751"
     height="238.41862"
     id="rect10"
     style="fill:#ffffff" />
  <polygon
     points="154.441,175.277 201.256,222.092 280.89,142.458 317.087,178.656 396.238,99.504 440.64,143.906 522.004,62.542 523.369,63.907 440.64,146.636 396.238,102.234 317.087,181.385 280.89,145.188 201.256,224.822 154.441,178.007 116.314,216.135 94.595,194.416 26.744,262.267 25.379,260.902 94.595,191.687 116.314,213.405 "
     id="polygon12"
     style="fill:#b04027"
     transform="translate(5.0000068,4.9999931)" />
  <circle
     cx="401.72086"
     cy="107.31729"
     r="11.58309"
     id="circle14"
     style="fill:#51c9e7;fill-opacity:1" />
  <circle
     cx="160.40646"
     cy="182.60739"
     r="11.58309"
     id="circle16"
     style="fill:#51c9e7;fill-opacity:1" />
  <circle
     cx="322.56973"
     cy="183.57263"
     r="11.58309"
     id="circle18"
     style="fill:#51c9e7;fill-opacity:1" />
  <circle
     cx="209.63461"
     cy="227.00925"
     r="11.58309"
     id="circle20"
     style="fill:#51c9e7;fill-opacity:1" />
  <circle
     cx="283.95944"
     cy="150.75389"
     r="11.58309"
     id="circle22"
     style="fill:#51c9e7;fill-opacity:1" />
  <circle
     cx="445.15744"
     cy="150.75389"
     r="11.58309"
     id="circle24"
     style="fill:#51c9e7;fill-opacity:1" />
  <path
     d="m 66.366847,534.50715 c 4.7,17.37388 20.79839,28.134 20.79839,28.134 0,0 8.47828,-17.40854 3.77832,-34.78242 -4.69996,-17.37388 -20.79838,-28.134 -20.79838,-28.134 0,0 -8.47827,17.40854 -3.77833,34.78242 z"
     id="path26"
     inkscape:connector-curvature="0"
     style="fill:#e6e6e6" />
  <path
     d="m 73.273107,530.77332 c 12.89676,12.55447 14.472,31.85362 14.472,31.85362 0,0 -19.33453,-1.05567 -32.23129,-13.61015 -12.89676,-12.55448 -14.472,-31.85362 -14.472,-31.85362 0,0 19.33453,1.05567 32.23129,13.61015 z"
     id="path28"
     inkscape:connector-curvature="0"
     style="fill:#b04027" />
  <path
     d="m 534.66353,227.24429 7.38726,73.05167 h 60.7943 l -2.92207,-111.03854 c 0,-23.90017 -16.52223,-44.805 -40.42192,-44.805 -23.89969,0 -39.44791,19.93084 -39.44791,43.831 l -3.89609,112.01256 h 9.9121 z"
     id="path30"
     inkscape:connector-curvature="0"
     style="fill:#2f2e41" />
  <path
     d="m 571.00006,610.32784 c 0,0 -2.624,16.61862 -6.99731,19.24261 -4.37331,2.62399 22.74127,8.74664 22.74127,8.74664 l 4.37332,-26.23992 z"
     id="path32"
     inkscape:connector-curvature="0"
     style="fill:#fbbebe" />
  <path
     d="m 603.36264,420.5257 9.62131,11.37064 -4.37332,39.35989 -3.49866,77.84511 c 0,0 6.99731,67.34915 0,69.09848 -6.99731,1.74933 -38.48523,0.87466 -37.61056,-3.49866 0.87467,-4.37332 1.74933,-7.872 3.49865,-13.99463 1.74932,-6.12263 -1.74932,-27.98925 -1.74932,-27.98925 l 4.37332,-24.4906 -15.744,-105.83437 z"
     id="path34"
     style="fill:#51c9e7;fill-opacity:1"
     inkscape:connector-curvature="0" />
  <path
     d="m 571.87473,626.9465 c 0,0 -9.62131,-1.74933 -10.496,0 -0.87469,1.74933 -17.49326,20.11723 -20.11726,20.11723 -2.624,0 -21.8666,17.49329 -1.74933,18.36795 20.11727,0.87466 53.35452,-14.86929 53.35452,-14.86929 0,0 -4.89134,-22.25712 -4.63233,-21.1872 0.25901,1.06992 -16.3596,1.94459 -16.3596,-2.42869 z"
     id="path36"
     inkscape:connector-curvature="0"
     style="fill:#2f2e41" />
  <path
     d="m 561.37876,586.7119 c 0,0 24.4906,27.11459 25.36526,29.73859 0.87466,2.624 13.99463,0 13.99463,0 l 5.248,-17.49329 -4.37332,-6.12265 -24.4906,-20.11727 z"
     id="path38"
     inkscape:connector-curvature="0"
     style="fill:#fbbebe" />
  <path
     d="M 596.36533,606.82918 583.6827,618.7667 c 0,0 16.18128,24.79838 16.18128,27.42237 0,2.62399 0.87467,24.4906 9.62131,20.99194 8.74664,-3.49866 9.62131,-38.48522 9.62131,-38.48522 0,0 -0.87467,-35.86124 -6.12265,-38.48523 -5.24798,-2.62399 -16.75024,-1.795 -16.75024,-1.795 0,0 7.12893,17.53894 0.13162,18.41362 z"
     id="path40"
     inkscape:connector-curvature="0"
     style="fill:#2f2e41" />
  <path
     d="m 523.7682,342.68059 c 0,0 -4.37332,13.99463 -5.248,17.49328 -0.87468,3.49865 -6.12265,13.12 -6.12265,27.98926 0,14.86926 1.74933,32.36257 0,34.1119 -1.74933,1.74933 -29.73858,99.71172 -17.49328,110.20769 12.2453,10.49597 52.47985,45.48254 55.10384,49.85586 2.62399,4.37332 3.49866,14.86929 8.74665,13.12 5.24799,-1.74929 25.36526,-19.24262 26.23992,-22.74127 0.87466,-3.49865 -11.37063,-9.62131 -11.37063,-9.62131 0,0 -24.4906,-35.86123 -30.61325,-34.98657 -6.12265,0.87466 -5.248,-4.37332 -4.37332,-6.99731 0.87468,-2.62399 2.624,-4.37332 0,-4.37332 -2.624,0 -0.87467,-6.99732 0,-10.496 0.87467,-3.49868 20.99199,-50.73053 20.99199,-50.73053 l 53.35452,-23.61593 c 0,0 -2.624,-63.85049 -21.86661,-81.34377 l -4.37332,-10.496 c 0,0 -48.98124,-3.49863 -62.97586,2.62402 z"
     id="path42"
     style="fill:#51c9e7;fill-opacity:1"
     inkscape:connector-curvature="0" />
  <path
     d="m 545.6348,204.48364 c 0,0 4.37332,30.61325 -6.12265,32.36258 -10.49597,1.74933 -19.24261,0.87466 -19.24261,1.74933 0,0.87467 26.23993,27.98925 26.23993,27.98925 l 24.49059,-1.74933 21.86661,-23.61597 c 0,0 -20.11728,-3.49866 -20.11728,-15.744 0,-12.24534 -0.87466,-20.99194 -0.87466,-20.99194 z"
     id="path44"
     inkscape:connector-curvature="0"
     style="fill:#ffb8b8" />
  <circle
     cx="559.19214"
     cy="190.0517"
     r="27.11459"
     id="circle46"
     style="fill:#ffb8b8" />
  <path
     d="m 543.36792,234.6195 c 0,0 -42.341,3.97608 -44.965,15.34671 -2.624,11.37063 17.49329,82.21844 20.11728,88.34109 2.62399,6.12265 1.74933,10.496 1.74933,10.496 a 34.60715,34.60715 0 0 1 27.98925,-6.12265 c 16.61862,3.49866 40.23456,1.74933 40.23456,1.74933 0,0 7.872,-32.36258 9.6213,-35.86124 1.7493,-3.49866 8.74665,-22.74127 8.74665,-27.98925 0,-5.24798 10.496,-27.11459 10.496,-27.11459 0,0 -5.248,-15.744 -24.4906,-14.86929 0,0 -8.39344,-3.75674 -10.7567,-1.00371 -2.36326,2.75303 -15.48323,14.99833 -32.10185,9.75035 -16.61862,-5.24798 -6.64022,-12.72275 -6.64022,-12.72275 z"
     id="path48"
     inkscape:connector-curvature="0"
     style="fill:#e6e6e6" />
  <path
     d="m 600.73865,249.0915 16.61862,4.37332 c 0,0 12.2453,44.60787 13.12,45.48254 0.8747,0.87467 1.74933,6.12265 1.74933,6.12265 0,0 0,0.87466 1.74933,3.49865 1.74933,2.62399 4.37332,0.87467 2.624,4.37333 -1.74932,3.49866 -4.37332,1.74932 -2.624,5.248 1.74932,3.49868 0.87466,13.12 0.87466,13.12 0,0 -4.37332,-16.61862 -20.11728,-12.2453 l -10.496,-47.23186 z"
     id="path50"
     inkscape:connector-curvature="0"
     style="fill:#e6e6e6" />
  <polygon
     points="755.193,153.046 794.553,164.416 794.493,164.616 765.683,255.376 746.773,251.176 726.323,246.637 "
     id="polygon52"
     transform="translate(-188.32143,93.047991)"
     style="fill:#b04027" />
  <path
     d="m 515.32429,249.0915 -16.61862,4.37332 c 0,0 -12.2453,44.60787 -13.12,45.48254 -0.8747,0.87467 -1.74933,6.12265 -1.74933,6.12265 0,0 0,0.87466 -1.74933,3.49865 -1.74933,2.62399 -4.37332,0.87467 -2.624,4.37333 1.74932,3.49866 4.37332,1.74932 2.624,5.248 -1.74932,3.49868 -0.87466,13.12 -0.87466,13.12 0,0 4.37332,-16.61862 20.11728,-12.2453 l 10.496,-47.23186 z"
     id="path54"
     inkscape:connector-curvature="0"
     style="fill:#e6e6e6" />
  <path
     d="m 486.46037,316.44066 -5.46422,9.13177 c 0,0 -2.40775,17.10816 9.83754,17.10816 12.24529,0 29.73859,-16.61862 29.73859,-16.61862 0,0 8.74664,-3.49866 13.99463,-2.624 5.24799,0.87466 34.1119,0 21.8666,-14.8693 -12.2453,-14.8693 -33.23724,0 -33.23724,0 l -21.8666,10.496 -11.37064,-6.12264 z"
     id="path56"
     inkscape:connector-curvature="0"
     style="fill:#ffb8b8" />
  <path
     d="m 493.89502,304.6327 8.74664,13.99462 c 0,0 -20.11728,2.624 -21.8666,6.99732 -1.74932,4.37332 7.872,-22.74127 7.872,-22.74127 z"
     id="path58"
     inkscape:connector-curvature="0"
     style="fill:#e6e6e6" />
  <path
     d="m 536.61157,180.49122 c 17.61432,-9.49644 24.85,-9.09431 46.75307,0 l 5.84413,-14.23842 a 10.12353,10.12353 0 0 0 -10.11213,-10.11214 h -39.19108 a 10.12353,10.12353 0 0 0 -10.11209,10.11214 z"
     id="path60"
     inkscape:connector-curvature="0"
     style="fill:#2f2e41" />
  <polygon
     points="765.683,255.376 746.773,251.176 775.193,159.046 794.493,164.616 "
     id="polygon62"
     transform="translate(-188.32143,93.047991)"
     style="opacity:0.2" />
  <polygon
     points="752.324,252.633 791.684,261.379 820.548,170.414 781.188,159.044 "
     id="polygon64"
     transform="translate(-188.32143,93.047991)"
     style="fill:#b04027" />
  <path
     d="m 629.60257,316.44066 5.46422,9.13177 c 0,0 2.40775,17.10816 -9.83754,17.10816 -12.24529,0 -29.73859,-16.61862 -29.73859,-16.61862 0,0 -8.74664,-3.49866 -13.99463,-2.624 -5.24799,0.87466 -34.1119,0 -21.8666,-14.8693 12.2453,-14.8693 33.23724,0 33.23724,0 l 21.8666,10.496 11.37064,-6.12264 z"
     id="path66"
     inkscape:connector-curvature="0"
     style="fill:#ffb8b8" />
  <path
     d="m 622.16792,304.6327 -8.74664,13.99462 c 0,0 20.11728,2.624 21.8666,6.99732 1.74932,4.37332 -7.872,-22.74127 -7.872,-22.74127 z"
     id="path68"
     inkscape:connector-curvature="0"
     style="fill:#e6e6e6" />
</svg>
