<?xml version="1.0" encoding="UTF-8" standalone="no"?>
<svg
   xmlns:dc="http://purl.org/dc/elements/1.1/"
   xmlns:cc="http://creativecommons.org/ns#"
   xmlns:rdf="http://www.w3.org/1999/02/22-rdf-syntax-ns#"
   xmlns:svg="http://www.w3.org/2000/svg"
   xmlns="http://www.w3.org/2000/svg"
   xmlns:sodipodi="http://sodipodi.sourceforge.net/DTD/sodipodi-0.dtd"
   xmlns:inkscape="http://www.inkscape.org/namespaces/inkscape"
   id="2cf41747-0c0c-4d70-aad4-093c093adad4"
   data-name="Layer 1"
   width="1032.842"
   height="805.00995"
   viewBox="0 0 1032.842 805.00998"
   version="1.1"
   sodipodi:docname="undraw_book_lover_mkck.svg"
   inkscape:version="0.92.5 (2060ec1f9f, 2020-04-08)">
  <metadata
     id="metadata372">
    <rdf:RDF>
      <cc:Work
         rdf:about="">
        <dc:format>image/svg+xml</dc:format>
        <dc:type
           rdf:resource="http://purl.org/dc/dcmitype/StillImage" />
        <dc:title>book lover</dc:title>
      </cc:Work>
    </rdf:RDF>
  </metadata>
  <sodipodi:namedview
     pagecolor="#ffffff"
     bordercolor="#666666"
     borderopacity="1"
     objecttolerance="10"
     gridtolerance="10"
     guidetolerance="10"
     inkscape:pageopacity="0"
     inkscape:pageshadow="2"
     inkscape:window-width="1920"
     inkscape:window-height="1047"
     id="namedview370"
     showgrid="false"
     fit-margin-top="5"
     fit-margin-right="5"
     fit-margin-bottom="5"
     fit-margin-left="5"
     inkscape:zoom="0.58045159"
     inkscape:cx="402.91909"
     inkscape:cy="182.0679"
     inkscape:window-x="0"
     inkscape:window-y="33"
     inkscape:window-maximized="0"
     inkscape:current-layer="g1838" />
  <defs
     id="defs9">
    <linearGradient
       id="3cf802be-0480-4c68-848a-073112220499"
       x1="635.21997"
       y1="545.34003"
       x2="635.21997"
       y2="43.419998"
       gradientUnits="userSpaceOnUse">
      <stop
         offset="0"
         stop-color="gray"
         stop-opacity="0.25"
         id="stop2" />
      <stop
         offset="0.54"
         stop-color="gray"
         stop-opacity="0.12"
         id="stop4" />
      <stop
         offset="1"
         stop-color="gray"
         stop-opacity="0.1"
         id="stop6" />
    </linearGradient>
  </defs>
  <title
     id="title11">book lover</title>
  <path
     d="M 604.86,124.26 C 540.14,122.01 478.49,101.12 419.63,78.26 360.77,55.4 302.47,30.07 239.3,17.96 198.67,10.17 152.2,9.07 119.47,30.85 87.96,51.85 77.78,88 72.31,121.58 c -4.12,25.26 -6.54,51.84 4.75,75.49 7.83,16.42 21.74,30.22 31.35,46 33.47,54.72 9.82,122.2 -26.45,175.63 -17,25.07 -36.75,49 -49.87,75.66 -13.12,26.66 -19.2,57.25 -7.72,84.47 11.39,27 38.52,47.24 67.9,61.49 59.69,28.95 130,37.23 198.61,41.92 151.83,10.39 304.46,5.89 456.69,1.39 56.34,-1.67 112.92,-3.36 168.34,-12.07 30.78,-4.84 62.55,-12.51 84.9,-31.05 28.36,-23.53 35.39,-63.38 16.39,-92.88 -31.89,-49.49 -120,-61.78 -142.32,-114.9 -12.26,-29.23 0.34,-61.79 18.16,-88.91 38.24,-58.16 102.33,-109.19 105.71,-175.67 2.32,-45.67 -28.5,-91.39 -76.14,-113 C 872.68,32.42 803.42,35.3 766.6,72.79 728.66,111.42 662,126.24 604.86,124.26 Z"
     id="path13"
     inkscape:connector-curvature="0"
     style="opacity:0.1;fill:#b04027" />
  <polygon
     points="59.16,609.06 179.42,600.33 158.46,512.87 396.32,482.04 168.55,402.86 188.67,398.08 554.92,457.83 534.75,594.32 505.92,669.33 435.45,690.5 93.17,688.83 "
     id="polygon15"
     style="fill:#b04027"
     transform="translate(5,-13.16)" />
  <path
     d="m 103.42,642.26 c 0,0 21,-3.36 33.6,11.48 0,0 -9.24,7.28 -29.12,-2.8 z"
     id="path17"
     inkscape:connector-curvature="0"
     style="fill:#b04027" />
  <path
     d="m 101.22,641.93 c 0,0 -13.4,16.49 -6.8,34.85 0,0 10.92,-4.37 12.11,-26.63 z"
     id="path19"
     inkscape:connector-curvature="0"
     style="fill:#b04027" />
  <path
     d="m 89.18,614.82 c 0,0 8.4,-15.41 42,6.16 0,0 -4.48,10.36 -19.32,9.52 -14.84,-0.84 -18.76,-7.56 -22.68,-15.68 z"
     id="path21"
     inkscape:connector-curvature="0"
     style="fill:#b04027" />
  <path
     d="m 87.01,613.71 c 0,0 -17.43,-2 -19.12,37.9 0,0 11.05,2.29 18.9,-10.33 7.85,-12.62 4.63,-19.7 0.22,-27.57 z"
     id="path23"
     inkscape:connector-curvature="0"
     style="fill:#b04027" />
  <path
     d="m 76.86,581.88 c 0,0 9.8,-27.16 45.36,-7.84 0,0 -8.12,24.92 -41.72,17.08 z"
     id="path25"
     style="fill:#51c9e7;fill-opacity:1"
     inkscape:connector-curvature="0" />
  <path
     d="m 65.94,541.28 c 0,0 18.48,-27.44 51.24,-2 0,0 -11.48,25.76 -48.44,11.76 z"
     id="path27"
     inkscape:connector-curvature="0"
     style="fill:#b04027" />
  <path
     d="m 62.02,502.64 c 0,0 21.56,-25.21 54,0 0,0 -20.44,22.12 -54,6.44 z"
     id="path29"
     style="fill:#51c9e7;fill-opacity:1"
     inkscape:connector-curvature="0" />
  <path
     d="m 58.66,465.11 c 0,0 21.84,-26.32 52.92,-1.4 0,0 -24.64,23.24 -52.92,7.56 z"
     id="path31"
     inkscape:connector-curvature="0"
     style="fill:#b04027" />
  <path
     d="m 60.62,431.79 c 0,0 23,-33.88 52.08,-10.92 0,0 -24.64,29.12 -52.08,17.36 z"
     id="path33"
     style="fill:#51c9e7;fill-opacity:1"
     inkscape:connector-curvature="0" />
  <path
     d="m 65.94,392.87 c 0,0 24.36,-33.6 52.64,-7.84 0,0 -28.84,29.12 -52.64,14 z"
     id="path35"
     inkscape:connector-curvature="0"
     style="fill:#b04027" />
  <path
     d="m 74.06,358.08 c 0,0 28.84,-31.58 54,-19 0,0 -30.05,33.54 -55.26,27.38 z"
     id="path37"
     style="fill:#51c9e7;fill-opacity:1"
     inkscape:connector-curvature="0" />
  <path
     d="m 84.14,325.1 c 0,0 33.28,-38.68 52.64,-25.76 0,0 -24.52,30 -55,33 z"
     id="path39"
     inkscape:connector-curvature="0"
     style="fill:#b04027" />
  <path
     d="m 98.69,286.85 c 0,0 29.13,-31.58 50.41,-23.74 0,0 -24.92,32.76 -54.32,33.6 z"
     id="path41"
     style="fill:#51c9e7;fill-opacity:1"
     inkscape:connector-curvature="0" />
  <path
     d="m 111.86,251.07 c 0,0 32.2,-30.24 46.2,-24.92 0,0 -23.24,33.6 -47.6,31.64 z"
     id="path43"
     inkscape:connector-curvature="0"
     style="fill:#b04027" />
  <path
     d="m 124.74,218.03 c 0,0 27.72,-36.13 42.85,-33.33 0,0 -16.81,32.21 -42.85,37 z"
     id="path45"
     style="fill:#51c9e7;fill-opacity:1"
     inkscape:connector-curvature="0" />
  <path
     d="m 138.72,173.48 c 0,0 24.5,-27.69 37.74,-27.63 0,0 -19.34,37 -38.75,36.66 z"
     id="path47"
     inkscape:connector-curvature="0"
     style="fill:#b04027" />
  <path
     d="m 147,143.82 23.67,-57.68 c 0,0 1.18,52.14 -26.68,68.38 z"
     id="path49"
     style="fill:#51c9e7;fill-opacity:1"
     inkscape:connector-curvature="0" />
  <path
     d="m 156.61,80.21 c 0,0 3.92,-48.17 1.4,-52.09 0,0 16.92,40.05 -1.56,73.37 z"
     id="path51"
     inkscape:connector-curvature="0"
     style="fill:#b04027" />
  <path
     d="m 75.94,581.24 c 0,0 -24.54,-15.21 -40.43,22 0,0 21.84,14.5 43.32,-12.51 z"
     id="path53"
     inkscape:connector-curvature="0"
     style="fill:#b04027" />
  <path
     d="m 65.15,539.73 c 0,0 -30.1,-13.73 -44.7,25.12 0,0 23.25,16 47.44,-15.3 z"
     id="path55"
     style="fill:#51c9e7;fill-opacity:1"
     inkscape:connector-curvature="0" />
  <path
     d="m 60.62,504.95 c 0,0 -21.56,-25.21 -54,0 0,0 20.44,22.12 54,6.44 z"
     id="path57"
     inkscape:connector-curvature="0"
     style="fill:#b04027" />
  <path
     d="m 57.92,465.11 c 0,0 -21.84,-26.32 -52.92,-1.4 0,0 24.64,23.24 52.92,7.56 z"
     id="path59"
     style="fill:#51c9e7;fill-opacity:1"
     inkscape:connector-curvature="0" />
  <path
     d="m 60.62,432.75 c 0,0 -15.32,-37.95 -48.62,-21.63 0,0 18,33.65 47.26,27.93 z"
     id="path61"
     inkscape:connector-curvature="0"
     style="fill:#b04027" />
  <path
     d="m 67.87,392.68 c 0,0 -15.23,-38.61 -49,-20.71 0,0 20.68,35.39 47.5,26.67 z"
     id="path63"
     style="fill:#51c9e7;fill-opacity:1"
     inkscape:connector-curvature="0" />
  <path
     d="m 77.31,358.27 c 0,0 -6,-42.33 -34,-46.12 0,0 5.94,44.64 30.23,53.75 z"
     id="path65"
     inkscape:connector-curvature="0"
     style="fill:#b04027" />
  <path
     d="m 84.85,325.18 c 0,0 -2.34,-51 -25.49,-52.78 0,0 0.78,38.71 22.88,60 z"
     id="path67"
     style="fill:#51c9e7;fill-opacity:1"
     inkscape:connector-curvature="0" />
  <path
     d="m 101.09,285.42 c 0,0 -6.9,-42.41 -29,-47.59 0,0 2.74,41.07 26.81,58 z"
     id="path69"
     inkscape:connector-curvature="0"
     style="fill:#b04027" />
  <path
     d="m 114.48,251.42 c 0,0 -0.23,-44.18 -13.73,-50.67 0,0 -8.37,40 9.82,56.31 z"
     id="path71"
     style="fill:#51c9e7;fill-opacity:1"
     inkscape:connector-curvature="0" />
  <path
     d="m 125.77,217.53 c 0,0 -1.89,-45.49 -15.87,-51.9 0,0 -4.78,36 13.78,54.88 z"
     id="path73"
     inkscape:connector-curvature="0"
     style="fill:#b04027" />
  <path
     d="m 140.67,177.11 c 0,0 -0.08,-37 -10.06,-45.68 0,0 -9.92,40.53 4.85,53.12 z"
     id="path75"
     style="fill:#51c9e7;fill-opacity:1"
     inkscape:connector-curvature="0" />
  <path
     d="m 145.83,142 -9.71,-61.58 c 0,0 -13.19,50.46 10.17,72.7 z"
     id="path77"
     inkscape:connector-curvature="0"
     style="fill:#b04027" />
  <path
     d="m 147.72,80.79 c 0,0 -24.92,-41.4 -24.41,-46 0,0 2.65,43.39 34,65 z"
     id="path79"
     style="fill:#51c9e7;fill-opacity:1"
     inkscape:connector-curvature="0" />
  <path
     d="m 150.64,68.56 c 0,0 -23.52,-58.8 -34.16,-63.56 0,0 33.6,17.08 36.12,61.88 z"
     id="path81"
     style="fill:#51c9e7;fill-opacity:1"
     inkscape:connector-curvature="0" />
  <path
     d="m 137.59,182.86 -1.61,-0.49 c 19.85,-64.73 24.8,-106 13.95,-116.35 l 1.15,-1.22 c 11.51,10.92 6.84,51.74 -13.49,118.06 z"
     id="path83"
     style="fill:#51c9e7;fill-opacity:1"
     inkscape:connector-curvature="0" />
  <path
     d="m 82.93,334.42 -2.38,-0.85 c 2.11,-5.93 4.38,-11.95 6.76,-17.88 20.72,-51.64 38.36,-99.68 49.67,-136.56 l 2.07,-1 c -11.33,36.95 -28.66,86.83 -49.4,138.54 -2.37,5.82 -4.63,11.81 -6.72,17.75 z"
     id="path85"
     style="fill:#51c9e7;fill-opacity:1"
     inkscape:connector-curvature="0" />
  <path
     d="m 133.01,690.7 c -0.32,-0.35 -32.49,-36.58 -54.92,-98.43 A 364.18,364.18 0 0 1 56.42,479.49 C 54.88,431.36 64.98,377.62 82.28,328.8 l 1.88,2.2 c -38.84,109.57 -23.41,203.46 -2.94,260 22.19,61.29 54,97.12 54.31,97.48 z"
     id="path87"
     style="fill:#51c9e7;fill-opacity:1"
     inkscape:connector-curvature="0" />
  <path
     d="m 635.73,613.78 c 0,0 -22.67,27.67 -4.67,69.5 l -181,78.5 -17.37,3.64 -8,-35 5.35,-44.17 v -24.14 z"
     id="path89"
     inkscape:connector-curvature="0"
     style="fill:#d5d6db" />
  <polygon
     points="641.63,616.27 435.45,690.5 59.16,609.06 309.68,563.39 "
     id="polygon91"
     style="fill:#b04027"
     transform="translate(5,-13.16)" />
  <polygon
     points="641.63,616.27 435.45,690.5 59.16,609.06 309.68,563.39 "
     id="polygon93"
     style="fill:#b04027"
     transform="translate(5,-13.16)" />
  <path
     d="m 64.16,595.89 c 0,0 -23.43,44.39 3.57,85.39 l 371.5,80.5 c 0,0 -23.06,-35.36 1.19,-84.44 z"
     id="path95"
     inkscape:connector-curvature="0"
     style="fill:#b04027" />
  <path
     d="m 64.16,595.89 c 0,0 -23.43,44.39 3.57,85.39 l 371.5,80.5 c 0,0 -23.06,-35.36 1.19,-84.44 z"
     id="path97"
     inkscape:connector-curvature="0"
     style="opacity:0.1" />
  <path
     d="m 75.23,611.28 c 0,0 -13.39,32.48 0,53.5"
     id="path99"
     inkscape:connector-curvature="0"
     style="opacity:0.1" />
  <path
     d="m 439.23,761.78 207.4,-88.5 c 0,0 11.6,2.5 4.1,11 -7.5,8.5 -207.5,86 -207.5,86 l -375.5,-89 z"
     id="path101"
     inkscape:connector-curvature="0"
     style="fill:#b04027" />
  <path
     d="m 439.23,761.78 207.4,-88.5 c 0,0 11.6,2.5 4.1,11 -7.5,8.5 -207.5,86 -207.5,86 l -375.5,-89 z"
     id="path103"
     inkscape:connector-curvature="0"
     style="opacity:0.1" />
  <path
     d="m 422.23,686.28 c 0,0 -20,24 0,60"
     id="path105"
     inkscape:connector-curvature="0"
     style="opacity:0.1" />
  <rect
     x="180.74445"
     y="814.89001"
     width="94.57"
     height="1"
     transform="rotate(-18.45)"
     id="rect107"
     style="opacity:0.1" />
  <rect
     x="144.0047"
     y="829.18066"
     width="115.23"
     height="1"
     transform="rotate(-20.82)"
     id="rect109"
     style="opacity:0.1" />
  <rect
     x="120.08176"
     y="841.55157"
     width="133.56"
     height="1"
     transform="rotate(-22.26)"
     id="rect111"
     style="opacity:0.1" />
  <rect
     x="87.772713"
     y="853.52502"
     width="153.74001"
     height="1"
     transform="rotate(-24.31)"
     id="rect113"
     style="opacity:0.1" />
  <rect
     x="97.577576"
     y="856.56775"
     width="168.14999"
     height="1"
     transform="rotate(-23.61)"
     id="rect115"
     style="opacity:0.1" />
  <rect
     x="100.73524"
     y="863.33386"
     width="201.22"
     height="1"
     transform="rotate(-23.36)"
     id="rect117"
     style="opacity:0.1" />
  <polygon
     points="435.45,597.44 291.23,643.94 152.23,613.94 328.23,576.94 "
     id="polygon119"
     style="opacity:0.3;fill:#ffffff"
     transform="translate(5,-13.16)" />
  <path
     d="m 646.63,603.11 c 0,0 9.1,3.67 3.76,9.34 -5.34,5.67 -209.97,64.89 -209.97,64.89 z"
     id="path121"
     inkscape:connector-curvature="0"
     style="fill:#b04027" />
  <path
     d="m 735.02,517.6 c 0,0 -22.66,27.66 -4.66,69.5 l -181,78.5 -17.37,3.66 -8,-35 5.43,-44.16 v -24.17 z"
     id="path123"
     inkscape:connector-curvature="0"
     style="fill:#d5d6db" />
  <polygon
     points="740.93,520.09 534.75,594.32 158.46,512.87 408.97,467.21 "
     id="polygon125"
     style="fill:#3a3768"
     transform="translate(5,-13.16)" />
  <path
     d="m 163.42,499.71 c 0,0 -23.44,44.39 3.56,85.39 l 371.5,80.5 c 0,0 -23.05,-35.39 1.23,-84.45 z"
     id="path127"
     inkscape:connector-curvature="0"
     style="fill:#3a3768" />
  <path
     d="m 163.42,499.71 c 0,0 -23.44,44.39 3.56,85.39 l 371.5,80.5 c 0,0 -23.05,-35.39 1.23,-84.45 L 422.23,555.72 Z"
     id="path129"
     inkscape:connector-curvature="0"
     style="opacity:0.1" />
  <path
     d="m 174.52,515.1 c 0,0 -13.38,32.47 0,53.5"
     id="path131"
     inkscape:connector-curvature="0"
     style="opacity:0.1" />
  <path
     d="m 538.52,665.6 207.41,-88.5 c 0,0 11.59,2.5 4.09,11 -7.5,8.5 -207.5,86 -207.5,86 l -375.5,-89 z"
     id="path133"
     inkscape:connector-curvature="0"
     style="fill:#3a3768" />
  <path
     d="m 538.52,665.6 207.41,-88.5 c 0,0 11.59,2.5 4.09,11 -7.5,8.5 -207.5,86 -207.5,86 l -375.5,-89 z"
     id="path135"
     inkscape:connector-curvature="0"
     style="opacity:0.1" />
  <path
     d="m 521.52,590.1 c 0,0 -20,24 0,60"
     id="path137"
     inkscape:connector-curvature="0"
     style="opacity:0.1" />
  <rect
     x="305.37369"
     y="755.08917"
     width="94.57"
     height="1"
     transform="rotate(-18.45)"
     id="rect139"
     style="opacity:0.1" />
  <rect
     x="271.0137"
     y="774.58472"
     width="115.23"
     height="1"
     transform="rotate(-20.82)"
     id="rect141"
     style="opacity:0.1" />
  <rect
     x="248.41431"
     y="790.14624"
     width="133.56"
     height="1"
     transform="rotate(-22.26)"
     id="rect143"
     style="opacity:0.1" />
  <rect
     x="217.87172"
     y="806.74982"
     width="153.74001"
     height="1"
     transform="rotate(-24.31)"
     id="rect145"
     style="opacity:0.1" />
  <rect
     x="227.08745"
     y="808.18921"
     width="168.14999"
     height="1"
     transform="rotate(-23.61)"
     id="rect147"
     style="opacity:0.1" />
  <rect
     x="230.03972"
     y="814.39386"
     width="201.22"
     height="1"
     transform="rotate(-23.36)"
     id="rect149"
     style="opacity:0.1" />
  <polygon
     points="534.75,501.26 390.53,547.76 251.53,517.76 427.53,480.76 "
     id="polygon151"
     style="opacity:0.45;fill:#ffffff"
     transform="translate(5,-13.16)" />
  <path
     d="m 745.93,506.93 c 0,0 9.09,3.67 3.76,9.33 -5.33,5.66 -209.94,64.89 -209.94,64.89 z"
     id="path153"
     inkscape:connector-curvature="0"
     style="fill:#3a3768" />
  <path
     d="m 744.42,407.57 c 0,0 -22.67,49.67 -4.67,91.5 l -181,56.5 -17.33,3.67 -8,-35 5.35,-44.17 V 455.9 Z"
     id="path155"
     inkscape:connector-curvature="0"
     style="fill:#d5d6db" />
  <polygon
     points="750.37,410.06 544.18,484.29 167.89,402.85 418.41,357.18 "
     id="polygon157"
     style="fill:#b04027"
     transform="translate(5,-13.16)" />
  <path
     d="m 172.89,389.68 c 0,0 -23.47,44.39 3.53,85.39 l 371.5,80.5 c 0,0 -23.06,-35.39 1.22,-84.44 z"
     id="path159"
     inkscape:connector-curvature="0"
     style="fill:#b04027" />
  <path
     d="m 172.89,389.68 c 0,0 -23.47,44.39 3.53,85.39 l 371.5,80.5 c 0,0 -23.06,-35.39 1.22,-84.44 z"
     id="path161"
     inkscape:connector-curvature="0"
     style="opacity:0.1" />
  <path
     d="m 183.96,405.07 c 0,0 -13.39,32.48 0,53.5"
     id="path163"
     inkscape:connector-curvature="0"
     style="opacity:0.1" />
  <path
     d="m 547.96,555.57 207.4,-66.5 c 0,0 11.6,2.5 4.1,11 -7.5,8.5 -207.5,64 -207.5,64 l -375.5,-89 z"
     id="path165"
     inkscape:connector-curvature="0"
     style="fill:#b04027" />
  <path
     d="m 547.96,555.57 207.4,-66.5 c 0,0 11.6,2.5 4.1,11 -7.5,8.5 -207.5,64 -207.5,64 l -375.5,-89 z"
     id="path167"
     inkscape:connector-curvature="0"
     style="opacity:0.1" />
  <path
     d="m 530.96,480.07 c 0,0 -20,24 0,60"
     id="path169"
     inkscape:connector-curvature="0"
     style="opacity:0.1" />
  <rect
     x="349.15375"
     y="653.70129"
     width="94.57"
     height="1"
     transform="rotate(-18.45)"
     id="rect171"
     style="opacity:0.1" />
  <rect
     x="318.9407"
     y="675.09619"
     width="115.23"
     height="1"
     transform="rotate(-20.82)"
     id="rect173"
     style="opacity:0.1" />
  <rect
     x="298.81601"
     y="691.89459"
     width="133.56"
     height="1"
     transform="rotate(-22.26)"
     id="rect175"
     style="opacity:0.1" />
  <rect
     x="271.77209"
     y="710.36169"
     width="153.74001"
     height="1"
     transform="rotate(-24.31)"
     id="rect177"
     style="opacity:0.1" />
  <rect
     x="279.8071"
     y="711.16052"
     width="168.14999"
     height="1"
     transform="rotate(-23.61)"
     id="rect179"
     style="opacity:0.1" />
  <rect
     x="282.32993"
     y="717.14069"
     width="201.22"
     height="1"
     transform="rotate(-23.36)"
     id="rect181"
     style="opacity:0.1" />
  <polygon
     points="544.18,391.23 399.96,437.73 260.96,407.73 436.96,370.73 "
     id="polygon183"
     style="opacity:0.3;fill:#ffffff"
     transform="translate(5,-13.16)" />
  <path
     d="m 755.36,396.9 c 0,0 9.1,3.67 3.76,9.34 -5.34,5.67 -209.94,64.89 -209.94,64.89 z"
     id="path185"
     inkscape:connector-curvature="0"
     style="fill:#b04027" />
  <path
     d="m 315.42,93.34 c 0,0 -38,-2.29 -33.56,24.37 0,0 -0.89,4.71 3.38,6.85 0,0 0.07,-2 3.9,-1.31 a 17.05,17.05 0 0 0 4.14,0.2 8.62,8.62 0 0 0 5.05,-2.08 v 0 c 0,0 10.69,-4.42 14.85,-21.9 0,0 3.08,-3.81 3,-4.79 l -6.44,2.74 c 0,0 2.19,4.63 0.47,8.48 0,0 -0.21,-8.31 -1.45,-8.12 -0.25,0 -3.33,1.61 -3.33,1.61 0,0 3.77,8.07 0.92,13.93 0,0 1.08,-9.94 -2.1,-13.35 l -4.52,2.64 c 0,0 4.41,8.33 1.42,15.13 0,0 0.77,-10.43 -2.37,-14.49 l -4.1,3.2 c 0,0 4.15,8.21 1.62,13.85 0,0 -0.33,-12.14 -2.5,-13.06 0,0 -3.59,3.16 -4.13,4.46 0,0 2.84,6 1.07,9.11 0,0 -1.07,-8.09 -2,-8.13 0,0 -3.57,5.36 -3.94,9 a 19.46,19.46 0 0 1 3.07,-9.54 10.71,10.71 0 0 0 -5.46,2.83 c 0,0 0.55,-3.79 6.35,-4.12 0,0 2.95,-4.07 3.74,-4.31 0,0 -5.77,-0.49 -9.26,1.06 0,0 3.08,-3.57 10.31,-2 l 4,-3.3 c 0,0 -7.58,-1 -10.8,0.11 0,0 3.71,-3.16 11.89,-0.86 l 4.41,-2.63 c 0,0 -6.47,-1.39 -10.32,-0.89 0,0 4.06,-2.19 11.61,0.18 l 3.14,-1.41 c 0,0 -4.73,-0.93 -6.12,-1.08 -1.39,-0.15 -1.46,-0.53 -1.46,-0.53 a 16.51,16.51 0 0 1 8.9,1 c 0,0 6.75,-2.43 6.62,-2.85 z"
     id="path187"
     style="fill:#51c9e7;fill-opacity:1"
     inkscape:connector-curvature="0" />
  <path
     d="m 850.02,202.92 c 0,0 -38,-2.29 -33.56,24.37 0,0 -0.89,4.71 3.38,6.85 0,0 0.07,-2 3.9,-1.31 a 17.62,17.62 0 0 0 4.14,0.2 8.59,8.59 0 0 0 5,-2.08 v 0 c 0,0 10.7,-4.42 14.85,-21.9 0,0 3.08,-3.81 3,-4.79 l -6.42,2.74 c 0,0 2.19,4.63 0.47,8.48 0,0 -0.21,-8.31 -1.44,-8.12 -0.25,0 -3.34,1.61 -3.34,1.61 0,0 3.77,8.07 0.93,13.93 0,0 1.08,-9.94 -2.11,-13.35 l -4.52,2.64 c 0,0 4.41,8.33 1.42,15.13 0,0 0.77,-10.43 -2.37,-14.49 l -4.09,3.2 c 0,0 4.14,8.21 1.61,13.85 0,0 -0.33,-12.14 -2.5,-13.06 0,0 -3.58,3.16 -4.13,4.46 0,0 2.84,6 1.08,9.11 0,0 -1.08,-8.09 -2,-8.13 0,0 -3.57,5.36 -3.94,9 a 19.4,19.4 0 0 1 3.08,-9.54 10.76,10.76 0 0 0 -5.47,2.83 c 0,0 0.56,-3.79 6.35,-4.12 0,0 2.95,-4.07 3.74,-4.32 0,0 -5.76,-0.48 -9.26,1.07 0,0 3.08,-3.57 10.31,-2 l 4,-3.3 c 0,0 -7.59,-1 -10.8,0.11 0,0 3.7,-3.16 11.89,-0.86 l 4.4,-2.63 c 0,0 -6.47,-1.39 -10.32,-0.89 0,0 4.06,-2.19 11.61,0.18 l 3.15,-1.41 c 0,0 -4.74,-0.93 -6.13,-1.08 -1.39,-0.15 -1.46,-0.53 -1.46,-0.53 a 16.39,16.39 0 0 1 8.9,1 c 0,0 6.77,-2.43 6.65,-2.85 z"
     id="path189"
     inkscape:connector-curvature="0"
     style="opacity:0.1;fill:#b04027" />
  <path
     d="m 379.42,258.04 c 0,0 -16.56,-34.33 -37.64,-17.41 0,0 -4.55,1.52 -4.33,6.29 0,0 1.75,-0.91 3,2.77 a 17.72,17.72 0 0 0 1.84,3.7 8.63,8.63 0 0 0 4.29,3.4 v 0 c 0,0 9.07,7.18 26.36,2.28 0,0 4.83,0.83 5.62,0.25 l -5.52,-4.27 c 0,0 -3,4.17 -7.18,4.54 0,0 7.16,-4.23 6.39,-5.21 -0.16,-0.2 -3,-2.13 -3,-2.13 0,0 -5.21,7.23 -11.71,7.6 0,0 9.2,-3.9 10.62,-8.35 l -4.5,-2.66 c 0,0 -5.13,7.92 -12.52,8.62 0,0 9.48,-4.41 11.49,-9.13 l -4.78,-2 c 0,0 -5.15,7.62 -11.31,8.17 0,0 10.44,-6.21 10.18,-8.56 0,0 -4.51,-1.58 -5.91,-1.43 0,0 -3.82,5.39 -7.42,5.39 0,0 6.53,-4.89 6.13,-5.68 0,0 -6.42,-0.5 -9.8,1 a 19.47,19.47 0 0 1 9.83,-2 10.77,10.77 0 0 0 -5.14,-3.39 c 0,0 3.58,-1.36 6.69,3.53 0,0 5,0.59 5.59,1.16 0,0 -2.39,-5.26 -5.44,-7.55 0,0 4.62,0.93 6.73,8 l 4.85,1.92 c 0,0 -2.79,-7.12 -5.36,-9.37 0,0 4.56,1.69 6.55,10 l 4.44,2.56 c 0,0 -1.93,-6.33 -4.25,-9.44 0,0 3.89,2.48 5.5,10.22 l 2.77,2.06 c 0,0 -1.5,-4.59 -2,-5.87 -0.5,-1.28 -0.25,-1.54 -0.25,-1.54 a 16.41,16.41 0 0 1 3.48,8.25 c 0,0 5.35,4.58 5.71,4.28 z"
     id="path191"
     inkscape:connector-curvature="0"
     style="opacity:0.1;fill:#b04027" />
  <path
     d="m 763.2,154.42 c 0,0 -16.55,-34.33 -37.64,-17.41 0,0 -4.54,1.52 -4.33,6.29 0,0 1.76,-0.9 3,2.77 a 17.34,17.34 0 0 0 1.85,3.71 8.58,8.58 0 0 0 4.28,3.39 v 0 c 0,0 9.08,7.18 26.36,2.29 0,0 4.83,0.82 5.63,0.24 l -5.49,-4.28 c 0,0 -3,4.18 -7.17,4.55 0,0 7.15,-4.24 6.38,-5.22 -0.16,-0.2 -3,-2.13 -3,-2.13 0,0 -5.2,7.23 -11.71,7.6 0,0 9.21,-3.9 10.63,-8.34 l -4.57,-2.64 c 0,0 -5.12,7.91 -12.52,8.62 0,0 9.48,-4.42 11.5,-9.14 l -4.79,-2 c 0,0 -5.15,7.63 -11.3,8.17 0,0 10.43,-6.21 10.17,-8.55 0,0 -4.5,-1.59 -5.9,-1.43 0,0 -3.82,5.38 -7.43,5.38 0,0 6.54,-4.89 6.14,-5.68 0,0 -6.42,-0.5 -9.81,1 a 19.46,19.46 0 0 1 9.83,-2 10.71,10.71 0 0 0 -5.13,-3.39 c 0,0 3.58,-1.36 6.69,3.53 0,0 5,0.6 5.59,1.17 0,0 -2.39,-5.27 -5.45,-7.56 0,0 4.62,0.94 6.73,8.05 l 4.86,1.92 c 0,0 -2.79,-7.13 -5.36,-9.38 0,0 4.56,1.69 6.54,10 l 4.45,2.56 c 0,0 -1.94,-6.32 -4.26,-9.44 0,0 3.9,2.48 5.5,10.22 l 2.77,2.06 c 0,0 -1.49,-4.59 -2,-5.87 -0.51,-1.28 -0.25,-1.53 -0.25,-1.53 a 16.45,16.45 0 0 1 3.47,8.25 c 0,0 5.43,4.54 5.74,4.22 z"
     id="path193"
     inkscape:connector-curvature="0"
     style="opacity:0.1;fill:#b04027" />
  <path
     d="m 816.09,324.23 c 0,0 -16.55,-34.34 -37.67,-17.42 0,0 -4.54,1.52 -4.33,6.29 0,0 1.76,-0.9 3,2.77 a 17.33,17.33 0 0 0 1.84,3.71 8.58,8.58 0 0 0 4.28,3.39 v 0 c 0,0 9.08,7.19 26.37,2.29 0,0 4.82,0.83 5.62,0.24 l -5.52,-4.27 c 0,0 -3,4.18 -7.18,4.55 0,0 7.15,-4.24 6.38,-5.22 -0.16,-0.2 -3,-2.13 -3,-2.13 0,0 -5.2,7.23 -11.71,7.61 0,0 9.21,-3.91 10.63,-8.35 l -4.51,-2.66 c 0,0 -5.12,7.92 -12.52,8.62 0,0 9.48,-4.42 11.5,-9.14 l -4.79,-2 c 0,0 -5.15,7.62 -11.3,8.17 0,0 10.44,-6.21 10.18,-8.56 0,0 -4.51,-1.59 -5.91,-1.43 0,0 -3.82,5.38 -7.43,5.38 0,0 6.54,-4.89 6.14,-5.68 0,0 -6.42,-0.5 -9.81,1 a 19.52,19.52 0 0 1 9.84,-2 10.69,10.69 0 0 0 -5.14,-3.39 c 0,0 3.58,-1.37 6.69,3.53 0,0 5,0.59 5.59,1.16 0,0 -2.39,-5.26 -5.44,-7.56 0,0 4.62,0.94 6.73,8.05 l 4.85,1.92 c 0,0 -2.79,-7.13 -5.36,-9.37 0,0 4.56,1.68 6.54,10 l 4.45,2.55 c 0,0 -1.94,-6.32 -4.26,-9.44 0,0 3.9,2.48 5.51,10.23 l 2.77,2 c 0,0 -1.5,-4.59 -2,-5.87 -0.5,-1.28 -0.25,-1.53 -0.25,-1.53 a 16.35,16.35 0 0 1 3.47,8.25 c 0,0 5.44,4.61 5.75,4.31 z"
     id="path195"
     inkscape:connector-curvature="0"
     style="opacity:0.1;fill:#b04027" />
  <ellipse
     cx="206.95"
     cy="768.43005"
     rx="22.99"
     ry="2.5699999"
     id="ellipse197"
     style="opacity:0.1;fill:#b04027" />
  <ellipse
     cx="56.240002"
     cy="724.75"
     rx="22.99"
     ry="2.5699999"
     id="ellipse199"
     style="opacity:0.1;fill:#b04027" />
  <ellipse
     cx="321.82999"
     cy="797.44"
     rx="22.99"
     ry="2.5699999"
     id="ellipse201"
     style="opacity:0.1;fill:#b04027" />
  <ellipse
     cx="910.53003"
     cy="734.25"
     rx="22.99"
     ry="2.5699999"
     id="ellipse203"
     style="opacity:0.1;fill:#b04027" />
  <ellipse
     cx="719.21997"
     cy="721.78003"
     rx="22.99"
     ry="2.5699999"
     id="ellipse205"
     style="opacity:0.1;fill:#b04027" />
  <ellipse
     cx="595.46002"
     cy="780.5"
     rx="27.190001"
     ry="4.6700001"
     id="ellipse207"
     style="opacity:0.1;fill:#b04027" />
  <path
     d="m 607.59,733.56 c 0,0 -37.86,19.56 -18.3,42.6 0,0 1.84,5 7.16,4.65 0,0 -1.06,-1.94 3,-3.49 a 19.51,19.51 0 0 0 4.09,-2.17 9.61,9.61 0 0 0 3.66,-4.89 v 0 c 0,0 7.74,-10.36 1.74,-29.53 0,0 0.78,-5.42 0.1,-6.3 l -4.6,6.31 c 0,0 4.75,3.19 5.3,7.88 0,0 -5,-7.87 -6,-7 -0.22,0.18 -2.28,3.45 -2.28,3.45 0,0 8.24,5.59 8.85,12.85 0,0 -4.64,-10.17 -9.65,-11.62 l -2.87,5.12 c 0,0 9,5.48 10,13.72 0,0 -5.23,-10.45 -10.57,-12.56 l -2.11,5.41 c 0,0 8.68,5.52 9.48,12.38 0,0 -7.26,-11.47 -9.87,-11.11 0,0 -1.64,5.08 -1.42,6.65 0,0 6.13,4.1 6.24,8.13 0,0 -5.66,-7.15 -6.53,-6.68 0,0 -0.36,7.19 1.38,10.93 0,0 -3,-5.34 -2.51,-10.93 a 12,12 0 0 0 -3.63,5.84 c 0,0 -1.63,-3.95 3.74,-7.59 0,0 0.51,-5.59 1.13,-6.28 0,0 -5.81,2.84 -8.28,6.32 0,0 0.91,-5.19 8.79,-7.77 l 2,-5.48 c 0,0 -7.88,3.34 -10.31,6.28 0,0 1.75,-5.15 10.93,-7.62 l 2.72,-5 c 0,0 -7,2.36 -10.42,5 0,0 2.65,-4.43 11.26,-6.47 l 2.21,-3.15 c 0,0 -5.08,1.81 -6.5,2.46 -1.42,0.65 -1.7,0.33 -1.7,0.33 a 18.39,18.39 0 0 1 9.11,-4.14 c 0,0 5.01,-6.19 4.66,-6.53 z"
     id="path209"
     style="fill:#51c9e7;fill-opacity:1"
     inkscape:connector-curvature="0" />
  <path
     d="m 954.42,605.05 c 0,0 5.93,7.75 -2.74,19.46 -8.67,11.71 -15.81,21.59 -12.93,28.89 0,0 13.08,-21.74 23.72,-22.05 10.64,-0.31 3.64,-13.23 -8.05,-26.3 z"
     id="path343"
     inkscape:connector-curvature="0"
     style="fill:#b04027" />
  <path
     d="m 954.42,605.05 a 9.6,9.6 0 0 1 1.21,2.43 c 10.38,12.2 15.92,23.59 5.93,23.87 -9.3,0.27 -20.45,16.9 -23.12,21.09 a 9.78,9.78 0 0 0 0.31,1 c 0,0 13.08,-21.74 23.72,-22.05 10.64,-0.31 3.64,-13.27 -8.05,-26.34 z"
     id="path345"
     inkscape:connector-curvature="0"
     style="opacity:0.1" />
  <path
     d="m 965.42,614.93 c 0,2.73 -0.31,4.94 -0.68,4.94 -0.37,0 -0.69,-2.21 -0.69,-4.94 0,-2.73 0.38,-1.44 0.76,-1.44 0.38,0 0.61,-1.29 0.61,1.44 z"
     id="path347"
     inkscape:connector-curvature="0"
     style="fill:#ffd037" />
  <path
     d="m 969.21,618.19 c -2.39,1.3 -4.48,2.09 -4.66,1.76 -0.18,-0.33 1.61,-1.66 4,-3 2.39,-1.34 1.45,-0.36 1.63,0 0.18,0.36 1.43,-0.07 -0.97,1.24 z"
     id="path349"
     inkscape:connector-curvature="0"
     style="fill:#ffd037" />
  <path
     d="m 923.08,605.05 c 0,0 -5.93,7.75 2.74,19.46 8.67,11.71 15.81,21.59 12.92,28.89 0,0 -13.07,-21.74 -23.72,-22.05 -10.65,-0.31 -3.6,-13.23 8.06,-26.3 z"
     id="path351"
     inkscape:connector-curvature="0"
     style="fill:#b04027" />
  <path
     d="m 923.08,605.05 a 9.6,9.6 0 0 0 -1.21,2.43 c -10.38,12.2 -15.92,23.59 -5.93,23.87 9.29,0.27 20.45,16.9 23.12,21.09 a 7.72,7.72 0 0 1 -0.32,1 c 0,0 -13.07,-21.74 -23.72,-22.05 -10.65,-0.31 -3.6,-13.27 8.06,-26.34 z"
     id="path353"
     inkscape:connector-curvature="0"
     style="opacity:0.1" />
  <path
     d="m 912.06,614.93 c 0,2.73 0.3,4.94 0.68,4.94 0.38,0 0.69,-2.21 0.69,-4.94 0,-2.73 -0.39,-1.44 -0.76,-1.44 -0.37,0 -0.61,-1.29 -0.61,1.44 z"
     id="path355"
     inkscape:connector-curvature="0"
     style="fill:#ffd037" />
  <path
     d="m 908.28,618.19 c 2.39,1.3 4.48,2.09 4.66,1.76 0.18,-0.33 -1.61,-1.66 -4,-3 -2.39,-1.34 -1.45,-0.36 -1.63,0 -0.18,0.36 -1.43,-0.07 0.97,1.24 z"
     id="path357"
     inkscape:connector-curvature="0"
     style="fill:#ffd037" />
  <ellipse
     cx="938.75"
     cy="703.21002"
     rx="62"
     ry="9.5100002"
     id="ellipse359"
     style="opacity:0.1;fill:#b04027" />
  <path
     d="m 970.66,642.95 -0.3,2.42 -0.42,3.42 -0.17,1.43 -0.42,3.42 -0.18,1.43 -0.41,3.41 -4.75,38.9 c -0.42,3.47 -6.09,6.18 -12.94,6.18 h -24.65 c -6.85,0 -12.51,-2.71 -12.94,-6.18 l -4.75,-38.9 -0.42,-3.41 -0.17,-1.43 -0.42,-3.42 -0.18,-1.43 -0.41,-3.42 -0.3,-2.42 c -0.23,-2 2.83,-3.62 6.71,-3.62 h 50.42 c 3.87,0 6.94,1.65 6.7,3.62 z"
     id="path361"
     inkscape:connector-curvature="0"
     style="fill:#65617d" />
  <polygon
     points="902.55,661.95 902.13,658.53 965.36,658.53 964.95,661.95 "
     id="polygon363"
     style="fill:#9d9cb5"
     transform="translate(5,-13.16)" />
  <polygon
     points="903.14,666.8 902.72,663.38 964.77,663.38 964.36,666.8 "
     id="polygon365"
     style="fill:#9d9cb5"
     transform="translate(5,-13.16)" />
  <polygon
     points="903.73,671.65 903.32,668.23 964.18,668.23 963.76,671.65 "
     id="polygon367"
     style="fill:#9d9cb5"
     transform="translate(5,-13.16)" />
  <g
     id="g1838"
     transform="translate(34.034876,-882.89763)">
    <circle
       id="circle1696"
       r="86.292252"
       cy="1196.0159"
       cx="619.80878"
       style="fill:#2f2e41" />
    <polygon
       id="polygon1698"
       points="788.056,624.794 766.65,674.925 742.805,664.031 764.211,613.9 "
       style="fill:#2f2e41"
       transform="translate(-208.31239,627.37358)" />
    <rect
       id="rect1700"
       transform="rotate(24.55435)"
       height="46.9692"
       width="26.21537"
       y="898.01471"
       x="1073.8773"
       style="fill:#2f2e41" />
    <ellipse
       id="ellipse1702"
       transform="rotate(-35.44565)"
       ry="21.84614"
       rx="8.1922998"
       cy="1421.0363"
       cx="-276.41364"
       style="fill:#2f2e41" />
    <ellipse
       id="ellipse1704"
       transform="rotate(-35.44565)"
       ry="21.84614"
       rx="8.1922998"
       cy="1381.5173"
       cx="-307.91769"
       style="fill:#2f2e41" />
    <circle
       id="circle1706"
       r="29.49229"
       cy="1177.0531"
       cx="630.87408"
       style="fill:#ffffff" />
    <circle
       id="circle1708"
       r="9.83076"
       cy="1193.0383"
       cx="636.06665"
       style="fill:#3f3d56" />
    <path
       id="path1710"
       d="m 577.02019,1088.239 c 6.6297,-31.2782 39.9913,-50.702 74.5153,-43.3844 34.524,7.3177 57.1368,38.6057 50.5071,69.8839 -6.6296,31.2781 -32.1744,32.2604 -66.6984,24.9428 -34.524,-7.3177 -64.9536,-20.1642 -58.324,-51.4423 z"
       inkscape:connector-curvature="0"
       style="fill:#51c9e7;fill-opacity:1" />
    <ellipse
       id="ellipse1712"
       transform="rotate(-88.61681)"
       ry="43.14613"
       rx="13.5449"
       cy="729.6759"
       cx="-1183.1843"
       style="fill:#2f2e41" />
    <ellipse
       id="ellipse1714"
       transform="rotate(-88.61681)"
       ry="43.14613"
       rx="13.5449"
       cy="558.2757"
       cx="-1172.7961"
       style="fill:#2f2e41" />
    <path
       id="path1716"
       d="m 623.68669,1248.5942 a 21.545273,23.266722 0 1 0 -39.19377,-19.3372 c -4.94472,11.6877 2.80505,18.4371 13.62802,23.777 10.82307,5.3398 20.62113,7.248 25.56575,-4.4398 z"
       inkscape:connector-curvature="0"
       style="fill:#ffffff;stroke-width:1.13874388" />
    <circle
       id="circle1770"
       r="5"
       cy="991.3736"
       cx="627.35541"
       style="fill:#cfcce0" />
    <circle
       id="circle1772"
       r="5"
       cy="1105.3735"
       cx="496.35544"
       style="fill:#cfcce0" />
  </g>
</svg>
