<?xml version="1.0" encoding="UTF-8" standalone="no"?>
<svg
   xmlns:dc="http://purl.org/dc/elements/1.1/"
   xmlns:cc="http://creativecommons.org/ns#"
   xmlns:rdf="http://www.w3.org/1999/02/22-rdf-syntax-ns#"
   xmlns:svg="http://www.w3.org/2000/svg"
   xmlns="http://www.w3.org/2000/svg"
   xmlns:sodipodi="http://sodipodi.sourceforge.net/DTD/sodipodi-0.dtd"
   xmlns:inkscape="http://www.inkscape.org/namespaces/inkscape"
   id="e43251fe-2b99-4b63-8176-d5da4893f038"
   data-name="Layer 1"
   width="1187.8401"
   height="734.47083"
   viewBox="0 0 1187.8401 734.47085"
   version="1.1"
   sodipodi:docname="undraw_under_construction_46pa.svg"
   inkscape:version="0.92.5 (2060ec1f9f, 2020-04-08)">
  <metadata
     id="metadata171">
    <rdf:RDF>
      <cc:Work
         rdf:about="">
        <dc:format>image/svg+xml</dc:format>
        <dc:type
           rdf:resource="http://purl.org/dc/dcmitype/StillImage" />
        <dc:title>under construction</dc:title>
      </cc:Work>
    </rdf:RDF>
  </metadata>
  <defs
     id="defs169" />
  <sodipodi:namedview
     pagecolor="#ffffff"
     bordercolor="#666666"
     borderopacity="1"
     objecttolerance="10"
     gridtolerance="10"
     guidetolerance="10"
     inkscape:pageopacity="0"
     inkscape:pageshadow="2"
     inkscape:window-width="1920"
     inkscape:window-height="1047"
     id="namedview167"
     showgrid="false"
     fit-margin-top="5"
     fit-margin-left="5"
     fit-margin-bottom="5"
     fit-margin-right="5"
     inkscape:zoom="0.65151079"
     inkscape:cx="288.21383"
     inkscape:cy="440.5576"
     inkscape:window-x="0"
     inkscape:window-y="33"
     inkscape:window-maximized="0"
     inkscape:current-layer="e43251fe-2b99-4b63-8176-d5da4893f038" />
  <title
     id="title2">under construction</title>
  <path
     d="m 1182.84,470.31041 a 241.36,241.36 0 0 1 -7.07,58.24 q -2.38,9.63 -5.53,18.86 a 222.72,222.72 0 0 1 -8.92,22.32 q -2.55,5.52 -5.39,10.82 a 145.56,145.56 0 0 1 -12.17,58.49 150.79,150.79 0 0 1 -73.18,75.4 153.93,153.93 0 0 1 -65.33,15 H 228.61 a 195.68,195.68 0 0 1 -98.42,-26.31 l -0.46,-0.26 q -6.39,-3.74 -12.46,-7.92 a 195.41,195.41 0 0 1 -25.57,-21.08 190.28,190.28 0 0 1 -28.11,-34.83 185.86,185.86 0 0 1 -28.59,-99.23 c -18.95,-33.25 -30,-73.08 -30,-115.88 0,-54 17.56,-103.26 46.41,-140.55 a 197.6,197.6 0 0 1 19.71,-21.93 183.42,183.42 0 0 1 22.54,-18.45 175.38,175.38 0 0 1 20,-12 c 2.89,-1.47 5.79,-2.86 8.74,-4.15 2.59,-1.15 5.21,-2.22 7.86,-3.23 q 4.77,-1.81 9.66,-3.33 4.89,-1.52 9.65,-2.66 7,-1.71 14.24,-2.78 c 4,-0.59 8,-1 12,-1.31 3.18,-0.24 6.39,-0.37 9.62,-0.41 h 1.75 c 3.56,0 7.1,0.14 10.61,0.38 0.37,-0.74 0.77,-1.49 1.14,-2.22 1.4,-2.67 2.85,-5.33 4.31,-7.93 a 0.25,0.25 0 0 1 0,-0.07 c 0.25,-0.46 0.5,-0.91 0.76,-1.35 1.18,-2.13 2.41,-4.24 3.67,-6.33 0.58,-1 1.15,-1.94 1.74,-2.88 a 7.66,7.66 0 0 1 0.41,-0.68 q 0.9,-1.5 1.83,-3 4.63,-7.4 9.63,-14.54 l 0.85,-1.22 c 0.52,-0.74 1,-1.46 1.58,-2.2 1.38,-1.93 2.8,-3.87 4.23,-5.77 1,-1.36 2,-2.71 3.08,-4 q 3.9,-5 8,-10 4.1,-5 8.52,-9.87 c 0.4,-0.45 0.8,-0.89 1.22,-1.33 l 4.27,-4.66 v 0 c 0.21,-0.22 0.39,-0.42 0.59,-0.62 v 0 c 0.51,-0.55 1,-1.1 1.55,-1.63 2.29,-2.43 4.64,-4.81 7,-7.18 a 381.2,381.2 0 0 1 38.3,-33.370003 c 0.53,-0.42 1.07,-0.82 1.6,-1.22 2.54,-1.91 5.12,-3.8 7.7,-5.66 a 405.31,405.31 0 0 1 44.41,-27.7 c 1.06,-0.61 2.14,-1.18 3.23,-1.74 a 424,424 0 0 1 42.49,-19.56 c 7.91,-3.13 16,-6.07 24.14,-8.76 5.42,-1.78 10.86,-3.47 16.37,-5.06 q 12.92,-3.72 26.02,-6.67 A 463.35,463.35 0 0 1 544.67,5.6304075 q 12,-0.61 24.27,-0.63 a 465,465 0 0 1 117,14.7999995 4.22,4.22 0 0 0 3.63,1.89 h 3.36 c 1.46,0.4 2.91,0.8 4.37,1.22 q 12.23,3.52 24.11,7.69 l 2,0.72 a 430.44,430.44 0 0 1 56.91,25 410.69,410.69 0 0 1 47.65,29.44 q 3.51,2.52 6.92,5.08 4.14,-2.65 8.42,-5.08 a 165.62,165.62 0 0 1 34.88,-14.87 159.1,159.1 0 0 1 78.24,-3.06 c 33.25,7.05 63.35,24.55 87.66,49.440003 a 204.55,204.55 0 0 1 26.29,33.38 c 0.55,0.86 1.1,1.73 1.63,2.61 a 220,220 0 0 1 16.74,33.37 c 0.17,0.43 0.34,0.83 0.49,1.25 a 231.09,231.09 0 0 1 10.3,33.35 c 0.12,0.58 0.26,1.15 0.38,1.73 a 240.11,240.11 0 0 1 4.92,33.37 c 0,0.4 0,0.81 0.08,1.23 q 0.63,8.71 0.64,17.6 c 0,5.3 -0.18,10.56 -0.51,15.78 0,0.57 -0.08,1.16 -0.13,1.75 -0.09,1.51 -0.22,3 -0.35,4.52 a 189.79,189.79 0 0 1 21.38,20.17 q 4.37,4.77 8.46,9.9 a 210.61,210.61 0 0 1 21.8,33.37 c 16.91,31.92 26.63,69.47 26.63,109.66 z"
     id="path4"
     inkscape:connector-curvature="0"
     style="opacity:0.1;fill:#b04027" />
  <path
     d="m 1069.84,710.74041 c 0,6.83 -23.53,13.23 -64.59,18.73 H 228.61 a 195.68,195.68 0 0 1 -98.42,-26.31 l -0.46,-0.26 c 11.8,-4.3 33.1,-8.31 62.09,-11.93 v 0 l 1.3,-0.16 c 13,-1.59 27.53,-3.1 43.41,-4.53 0.4,0 0.81,-0.06 1.21,-0.11 v 0 q 18.9,-1.68 40.21,-3.15 c 0.45,0 0.89,-0.08 1.34,-0.1 q 8.22,-0.59 16.78,-1.12 v 0 l 2.2,-0.14 c 41.55,-2.58 88.78,-4.64 140,-6 h 0.06 q 10.76,-0.3 21.75,-0.53 12.22,-0.29 24.74,-0.51 c 6.37,-0.14 12.82,-0.24 19.29,-0.34 h 0.15 c 29.19,-0.44 59.35,-0.66 90.19,-0.66 76.26,0 148.34,1.39 212.21,3.89 h 0.18 c 9.82,0.38 19.46,0.8 28.86,1.23 l 8,0.38 q 15.91,0.76 31,1.63 v 0 c 118.3,6.73 195.14,17.66 195.14,29.99 z"
     id="path6"
     inkscape:connector-curvature="0"
     style="opacity:0.1;fill:#b04027" />
  <g
     id="g22"
     style="opacity:0.2"
     transform="translate(5.02,5.0004075)">
    <path
       d="M 691.37,751.79 A 19,19 0 0 1 691,755 q -10.44,-1.66 -21,-3 c 0,-0.28 0,-0.57 0,-0.86 a 16.88,16.88 0 0 1 2.5,-8.48 c 2.06,-3.26 5.19,-5.3 8.64,-5.19 3.45,0.11 6.44,2.34 8.29,5.71 a 16.87,16.87 0 0 1 1.94,8.61 z"
       transform="translate(-11.09,-87.76)"
       id="path8"
       inkscape:connector-curvature="0"
       style="fill:#3f3d56" />
    <ellipse
       cx="681.21002"
       cy="734.33002"
       rx="14.01"
       ry="10.7"
       transform="rotate(-88.19,630.4138,696.16939)"
       id="ellipse10"
       style="fill:#3f3d56" />
    <ellipse
       cx="681.75"
       cy="717.21002"
       rx="14.01"
       ry="10.7"
       transform="rotate(-88.19,630.95635,679.04627)"
       id="ellipse12"
       style="fill:#3f3d56" />
    <ellipse
       cx="682.28998"
       cy="700.09003"
       rx="14.01"
       ry="10.7"
       transform="rotate(-88.19,631.49391,661.92831)"
       id="ellipse14"
       style="fill:#3f3d56" />
    <ellipse
       cx="682.83002"
       cy="682.96997"
       rx="14.01"
       ry="10.7"
       transform="rotate(-88.19,632.03147,644.81034)"
       id="ellipse16"
       style="fill:#3f3d56" />
    <path
       d="m 646.47,564.55 a 49.66,49.66 0 0 1 -3.8,-6 l 28.26,-3.73 -30.42,-0.73 a 51.38,51.38 0 0 1 0.31,-40.64 l 40.12,22.45 -36.75,-28.84 a 51.28,51.28 0 1 1 82.84,60 50.8,50.8 0 0 1 5.55,9.53 l -37.09,17.8 39.33,-11.83 a 51.34,51.34 0 0 1 -9.82,47.91 51.28,51.28 0 1 1 -80.56,-2.54 51.28,51.28 0 0 1 2,-63.38 z"
       transform="translate(-11.09,-87.76)"
       id="path18"
       inkscape:connector-curvature="0"
       style="fill:#b04027" />
    <path
       d="m 737,599.13 a 51,51 0 0 1 -12,31.34 51.28,51.28 0 1 1 -80.56,-2.54 C 637.87,619 737.18,593.38 737,599.13 Z"
       transform="translate(-11.09,-87.76)"
       id="path20"
       inkscape:connector-curvature="0"
       style="opacity:0.1" />
  </g>
  <g
     id="g38"
     style="opacity:0.2"
     transform="translate(5.02,5.0004075)">
    <path
       d="M 539.37,751.79 A 19,19 0 0 1 539,755 q -10.44,-1.66 -21,-3 c 0,-0.28 0,-0.57 0,-0.86 a 16.88,16.88 0 0 1 2.5,-8.48 c 2.06,-3.26 5.19,-5.3 8.64,-5.19 3.45,0.11 6.44,2.34 8.29,5.71 a 16.87,16.87 0 0 1 1.94,8.61 z"
       transform="translate(-11.09,-87.76)"
       id="path24"
       inkscape:connector-curvature="0"
       style="fill:#3f3d56" />
    <ellipse
       cx="529.21002"
       cy="734.33002"
       rx="14.01"
       ry="10.7"
       transform="rotate(-88.19,478.41047,696.17712)"
       id="ellipse26"
       style="fill:#3f3d56" />
    <ellipse
       cx="529.75"
       cy="717.21002"
       rx="14.01"
       ry="10.7"
       transform="rotate(-88.19,478.95303,679.054)"
       id="ellipse28"
       style="fill:#3f3d56" />
    <ellipse
       cx="530.28998"
       cy="700.09003"
       rx="14.01"
       ry="10.7"
       transform="rotate(-88.19,479.49058,661.93604)"
       id="ellipse30"
       style="fill:#3f3d56" />
    <ellipse
       cx="530.83002"
       cy="682.96997"
       rx="14.01"
       ry="10.7"
       transform="rotate(-88.19,480.02814,644.81808)"
       id="ellipse32"
       style="fill:#3f3d56" />
    <path
       d="m 494.47,564.55 a 49.66,49.66 0 0 1 -3.8,-6 l 28.26,-3.73 -30.42,-0.73 a 51.38,51.38 0 0 1 0.31,-40.64 l 40.12,22.45 -36.75,-28.84 a 51.28,51.28 0 1 1 82.84,60 50.8,50.8 0 0 1 5.55,9.53 l -37.09,17.8 39.33,-11.83 a 51.34,51.34 0 0 1 -9.82,47.91 51.28,51.28 0 1 1 -80.56,-2.54 51.28,51.28 0 0 1 2,-63.38 z"
       transform="translate(-11.09,-87.76)"
       id="path34"
       inkscape:connector-curvature="0"
       style="fill:#b04027" />
    <path
       d="m 585,599.13 a 51,51 0 0 1 -12,31.34 51.28,51.28 0 1 1 -80.56,-2.54 C 485.87,619 585.18,593.38 585,599.13 Z"
       transform="translate(-11.09,-87.76)"
       id="path36"
       inkscape:connector-curvature="0"
       style="opacity:0.1" />
  </g>
  <g
     id="g54"
     style="opacity:0.2"
     transform="translate(5.02,5.0004075)">
    <path
       d="m 954.57,762.73 a 37.3,37.3 0 0 1 -0.73,6.08 q -20.1,-3.21 -40.49,-5.74 c 0,-0.54 0,-1.09 0,-1.65 a 32.5,32.5 0 0 1 4.82,-16.33 c 4,-6.27 10,-10.2 16.63,-10 6.63,0.2 12.4,4.51 16,11 a 32.53,32.53 0 0 1 3.77,16.64 z"
       transform="translate(-11.09,-87.76)"
       id="path40"
       inkscape:connector-curvature="0"
       style="fill:#3f3d56" />
    <ellipse
       cx="935"
       cy="729.10999"
       rx="26.98"
       ry="20.610001"
       transform="rotate(-88.19,884.21917,690.94566)"
       id="ellipse42"
       style="fill:#3f3d56" />
    <ellipse
       cx="936.03998"
       cy="696.15002"
       rx="26.98"
       ry="20.610001"
       transform="rotate(-88.19,885.25854,657.98576)"
       id="ellipse44"
       style="fill:#3f3d56" />
    <ellipse
       cx="937.08002"
       cy="663.20001"
       rx="26.98"
       ry="20.610001"
       transform="rotate(-88.19,886.29792,625.02586)"
       id="ellipse46"
       style="fill:#3f3d56" />
    <ellipse
       cx="938.12"
       cy="630.23999"
       rx="26.98"
       ry="20.610001"
       transform="matrix(0.03,-1,1,0.03,267.53,1460.26)"
       id="ellipse48"
       style="fill:#3f3d56" />
    <path
       d="m 868.12,402.27 a 99.27,99.27 0 0 1 -7.31,-11.53 l 54.4,-7.18 -58.55,-1.41 a 98.9,98.9 0 0 1 0.58,-78.24 l 77.25,43.21 -70.74,-55.52 a 98.72,98.72 0 1 1 159.47,115.56 98.71,98.71 0 0 1 10.69,18.35 L 962.5,459.8 1038.21,437 a 98.75,98.75 0 0 1 -18.83,92.15 98.72,98.72 0 1 1 -155.1,-4.89 98.75,98.75 0 0 1 3.84,-122 z"
       transform="translate(-11.09,-87.76)"
       id="path50"
       inkscape:connector-curvature="0"
       style="fill:#b04027" />
    <path
       d="m 1042.42,468.83 a 98.34,98.34 0 0 1 -23,60.34 98.72,98.72 0 1 1 -155.1,-4.89 c -12.74,-17.21 178.45,-66.52 178.1,-55.45 z"
       transform="translate(-11.09,-87.76)"
       id="path52"
       inkscape:connector-curvature="0"
       style="opacity:0.1" />
  </g>
  <polygon
     points="183.1,676.7 201.8,372.92 386.99,63.89 378.94,55.25 378.94,33.37 178.66,365.76 157.82,676.73 168.31,676.7 "
     id="polygon56"
     style="fill:#f1c0c0"
     transform="translate(5.02,5.0004075)" />
  <polygon
     points="201.8,372.92 386.99,63.89 378.94,55.25 187.92,368.29 169.43,676.7 183.1,676.7 "
     id="polygon58"
     style="opacity:0.1"
     transform="translate(5.02,5.0004075)" />
  <polygon
     points="607.17,716.01 1071.56,687.45 1071.91,687.43 1071.91,667.82 560.21,658.43 133.3,658.02 130.18,658.02 129.84,660.22 126.91,679.26 606.76,715.98 "
     id="polygon60"
     style="fill:#f1c0c0"
     transform="translate(5.02,5.0004075)" />
  <polygon
     points="607.17,716.01 1071.56,687.45 1071.91,687.07 1071.91,668.23 1071.5,668.23 606.76,683.75 133.3,658.02 133.23,658.02 132.39,658.57 129.84,660.22 126.91,679.26 606.76,715.98 "
     id="polygon62"
     style="opacity:0.1"
     transform="translate(5.02,5.0004075)" />
  <polygon
     points="606.76,683.75 132.39,658.57 129.84,660.22 126.91,679.26 606.76,715.98 "
     id="polygon64"
     style="opacity:0.1"
     transform="translate(5.02,5.0004075)" />
  <polygon
     points="583.89,681.3 601.86,683.47 602.16,683.51 620.13,683.51 622.28,299.05 1018.41,431.37 1025.09,666.97 1039.55,668.59 1044.45,669.14 1033.11,415.03 619.01,269.65 391.95,33.6 378.88,33.6 378.88,54.84 590.43,281.9 "
     id="polygon66"
     style="fill:#f1c0c0"
     transform="translate(5.02,5.0004075)" />
  <polygon
     points="1018.41,431.37 1025.09,666.97 1039.55,668.59 1028.21,426.47 620.65,291.7 622.28,299.05 "
     id="polygon68"
     style="opacity:0.1"
     transform="translate(5.02,5.0004075)" />
  <polygon
     points="583.89,681.3 601.86,683.47 606.76,268.83 378.88,33.6 378.88,54.84 590.43,281.9 "
     id="polygon70"
     style="opacity:0.1"
     transform="translate(5.02,5.0004075)" />
  <polygon
     points="766.76,480.61 1021.23,530.74 1032.88,526.07 1032.84,525.25 1032.08,509 621.57,426.05 621.42,451.99 766.71,480.6 "
     id="polygon72"
     style="fill:#f1c0c0"
     transform="translate(5.02,5.0004075)" />
  <polygon
     points="1032.88,526.07 1032.84,525.25 766.76,480.61 1021.23,530.74 "
     id="polygon74"
     style="opacity:0.1"
     transform="translate(5.02,5.0004075)" />
  <polygon
     points="782.45,677.89 800.34,677.29 811.6,676.91 808.1,353.69 800.34,351.11 798.64,350.56 776.49,350.56 780.42,566.9 "
     id="polygon76"
     style="fill:#f1c0c0"
     transform="translate(5.02,5.0004075)" />
  <polygon
     points="780.42,566.9 782.45,677.89 800.34,677.29 800.34,350.51 776.65,350.51 776.65,350.56 "
     id="polygon78"
     style="opacity:0.1"
     transform="translate(5.02,5.0004075)" />
  <path
     d="m 501.28,410.81041 a 22.79,22.79 0 0 1 3,1.95 19.85,19.85 0 0 1 3,3.29 c 4.29,5.55 8.25,12 7.83,19 a 7.73,7.73 0 0 1 -2.23,5.5 c -1.77,1.51 -4.31,1.58 -6.63,1.58 -2.52,0 -5.17,0 -7.35,-1.3 -2.18,-1.3 -4,-3.83 -6.58,-3.77 a 3.37,3.37 0 0 1 -1.1,0 c -0.89,-0.29 -1.07,-1.46 -1.65,-2.2 -1,-1.33 -3.11,-1 -4.68,-0.42 -1.57,0.58 -3.31,1.45 -4.86,0.78 a 5.05,5.05 0 0 1 -2.11,-2.11 c -3.71,-6 -4.5,-13.21 -5.2,-20.18 -0.43,-4.24 -3.71,-18.7 5.34,-15.41 4,1.44 7.74,4.32 11.38,6.43 z"
     id="path80"
     inkscape:connector-curvature="0"
     style="fill:#3f3d56" />
  <path
     d="m 492.34,412.24041 a 4.46,4.46 0 0 0 5.49,-0.22 8.27,8.27 0 0 0 2.67,-5.18 c 1,-0.31 1.51,1 2.15,1.8 1.12,1.36 3.4,1.34 4.42,2.79 0.71,1 0.55,2.39 1.05,3.52 0.65,1.46 2.26,2.22 3.36,3.4 a 11.58,11.58 0 0 1 2.2,4.39 l 1.64,4.92 a 24.32,24.32 0 0 1 1.5,6.37 8.25,8.25 0 0 1 -1.9,6.09 c -2.2,2.37 -5.81,2.62 -9,2.55 a 11.58,11.58 0 0 1 -3.16,-0.37 c -2.83,-0.88 -4.64,-3.73 -5.39,-6.6 -0.75,-2.87 -0.67,-5.88 -1.11,-8.82 a 34.57,34.57 0 0 0 -2.5,-8.38 c -0.88,-2.08 -3.3,-5.18 -3.26,-7.39 0.72,0 1.24,0.66 1.84,1.13 z"
     id="path82"
     inkscape:connector-curvature="0"
     style="fill:#3f3d56" />
  <path
     d="m 495.93,402.11041 a 16.51,16.51 0 0 1 -0.81,-4.39 c 0,-3 1.37,-5.82 2.75,-8.5 l -11.43,1.55 c -1.38,0.19 -2.92,0.47 -3.7,1.62 a 4,4 0 0 0 0,3.69 18.86,18.86 0 0 1 1.36,3.57 17.83,17.83 0 0 0 0.37,3.21 6.8,6.8 0 0 0 1.47,2.07 c 3.27,3.62 5.72,7.89 8.16,12.12 -0.07,-0.12 6.89,-5.51 6.61,-7.27 -0.16,-1 -2.17,-2.2 -2.81,-3.16 a 16.09,16.09 0 0 1 -1.97,-4.51 z"
     id="path84"
     inkscape:connector-curvature="0"
     style="fill:#be6f72" />
  <polygon
     points="420.24,400.79 411.49,406.09 381.3,406.09 381.3,400.54 547.02,360.5 588.91,358.04 588.91,367.89 "
     id="polygon86"
     style="fill:#f1c0c0"
     transform="translate(5.02,5.0004075)" />
  <polygon
     points="411.49,406.09 381.3,406.09 548.25,370.36 588.91,367.89 420.24,400.79 "
     id="polygon88"
     style="opacity:0.1"
     transform="translate(5.02,5.0004075)" />
  <path
     d="m 458.51,642.66041 a 13.07,13.07 0 0 0 -15.9,-3.38 4.19,4.19 0 0 0 -1.46,1.14 c -1,1.4 -0.36,3.33 -0.27,5.06 0.23,4.22 -3.13,7.65 -6.15,10.6 -1.62,1.58 -3.27,3.27 -4,5.42 -0.73,2.15 -0.19,4.88 1.77,6 a 7.37,7.37 0 0 0 2.74,0.76 29.57,29.57 0 0 0 9.7,0.27 c 3.19,-0.61 6.32,-2.42 7.7,-5.36 a 5.65,5.65 0 0 1 1.29,-2.13 c 1.76,-1.39 4.46,0.24 6.46,-0.75 1.65,-0.82 1.72,-2.11 1.74,-3.81 0.06,-4.7 -0.64,-10.02 -3.62,-13.82 z"
     id="path90"
     style="fill:#51c9e7;fill-opacity:1"
     inkscape:connector-curvature="0" />
  <path
     d="m 482.51,642.48041 c 1.23,3.24 1.4,6.77 1.56,10.23 0.09,2 0.15,4.14 -0.93,5.83 -1.08,1.69 -3.19,2.58 -5.21,3 -4.17,0.86 -9,0.05 -11.69,-3.26 -2.06,-2.53 -2.49,-6 -2.11,-9.28 0.32,-2.69 1,-5.84 -0.93,-7.75 -0.5,-0.51 -1.15,-0.87 -1.61,-1.42 -1,-1.22 -0.84,-3.06 -0.3,-4.56 a 19.81,19.81 0 0 0 1.57,-4.51 c 0.08,-0.74 13.54,0.52 14.78,1.13 1.69,0.83 1.43,2.22 1.94,3.9 0.71,2.34 2.07,4.45 2.93,6.69 z"
     id="path92"
     style="fill:#51c9e7;fill-opacity:1"
     inkscape:connector-curvature="0" />
  <path
     d="m 484.98,498.82041 c 2.64,1.71 3.66,5.07 4.07,8.19 1.13,8.55 -0.85,17.19 -1,25.82 -0.14,12.09 3.36,24.4 0.37,36.11 -1.79,7 -0.27,15 -1.95,22.07 -0.5,2.1 -1.42,4.08 -1.9,6.18 -1,4.55 0.05,9.31 1.46,13.76 a 14.21,14.21 0 0 1 0.85,3.73 13.42,13.42 0 0 1 -1.46,5.64 l -6,14.19 c -0.67,1.59 -3.31,1.85 -5,2.06 -3.18,0.38 -6.73,0.65 -9.26,-1.32 -2.53,-1.97 -3.14,-5.27 -3.53,-8.35 a 128,128 0 0 1 -1,-17.83 14.69,14.69 0 0 0 -0.41,-4.63 c -0.55,-1.71 -1.76,-3.19 -2.09,-5 -0.42,-2.34 0.77,-4.64 1.21,-7 a 21.09,21.09 0 0 0 -0.1,-6.49 c -0.39,-3.2 -0.84,-6.4 -1.35,-9.58 -0.72,-4.45 0.31,-8.84 1,-13.3 0.65,-4.19 -0.18,-8.46 -1,-12.62 a 34.79,34.79 0 0 1 -1.25,10 c -0.53,1.59 -1.29,3.11 -1.75,4.73 -2.05,7.27 2.32,14.9 1.7,22.43 -0.29,3.52 -1.67,7 -1.28,10.47 0.27,2.54 1.45,4.87 2.26,7.29 0.81,2.42 1.23,5.19 0,7.45 -3.25,6.14 -0.82,14.49 2.09,20.79 a 28.06,28.06 0 0 1 1.54,3.46 c 0.86,2.84 0.14,5.89 0.37,8.85 a 5.58,5.58 0 0 1 -4.69,-1.41 c -0.44,-0.46 -0.8,-1 -1.23,-1.48 a 12.21,12.21 0 0 0 -4.18,-2.61 5.49,5.49 0 0 0 -3,-0.69 6,6 0 0 0 -2.85,1.77 27.94,27.94 0 0 1 -3.14,2.39 3.72,3.72 0 0 1 -1.6,0.71 1.41,1.41 0 0 1 -1.47,-0.75 1.78,1.78 0 0 1 -0.11,-0.52 79.14,79.14 0 0 1 -0.59,-9.1 c 0,-5.23 -6.26,-8.83 -7.05,-14 -0.63,-4.17 0.54,-8.42 0.15,-12.62 -0.19,-2.16 -0.79,-4.28 -0.75,-6.44 0,-1.4 0.32,-2.77 0.43,-4.16 a 31.12,31.12 0 0 0 -0.07,-4.63 l -0.31,-4.83 c -0.3,-4.77 -0.63,-9.64 -2.51,-14 a 47.57,47.57 0 0 1 -3.9,-16.08 c -0.2,-3.5 -0.07,-7 -0.47,-10.51 -0.36,-3.17 -1.16,-6.32 -0.93,-9.5 0.19,-2.46 1,-4.84 1.19,-7.3 0.39,-4.73 -1.41,-9.33 -2.82,-13.86 -1.41,-4.53 -2.45,-9.55 -0.6,-13.92 a 4.57,4.57 0 0 1 1.28,-1.86 5.58,5.58 0 0 1 2.36,-0.88 183.11,183.11 0 0 1 52.22,-3.33 17.34,17.34 0 0 1 8.05,2.51 z"
     id="path94"
     inkscape:connector-curvature="0"
     style="fill:#3f3d56" />
  <circle
     cx="428.20999"
     cy="376.59039"
     r="16.02"
     id="circle96"
     style="fill:#be6f72" />
  <path
     d="m 425.11,396.60041 a 5.72,5.72 0 0 1 0,2.79 6.32,6.32 0 0 1 -1.05,1.76 45.2,45.2 0 0 1 -5.13,5.58 9.29,9.29 0 0 0 4.79,4.73 27.81,27.81 0 0 0 6.61,1.89 9.32,9.32 0 0 0 3.48,0.24 9.23,9.23 0 0 0 3,-1.36 l 8.9,-5.33 a 17.78,17.78 0 0 0 3.7,-2.67 9.11,9.11 0 0 0 2.58,-6.26 1.72,1.72 0 0 0 -0.32,-1.18 2.1,2.1 0 0 0 -1.22,-0.51 c -3.13,-0.69 -5.6,-3.23 -7,-6.11 a 32.36,32.36 0 0 1 -2.43,-9.27 l -9.49,5 c -1.41,0.75 -2.81,1.5 -4.27,2.15 -0.93,0.42 -2.81,0.77 -3.47,1.62 -1.26,1.57 0.99,5.04 1.32,6.93 z"
     id="path98"
     inkscape:connector-curvature="0"
     style="fill:#be6f72" />
  <path
     d="m 418.99,403.82041 a 10.55,10.55 0 0 0 -3.07,4.15 c -0.62,2 0,4.11 0.56,6.09 a 181.7,181.7 0 0 1 6,25.79 c 0.84,6 1.15,12.09 1.56,18.16 0.84,12.38 2.06,32.12 3.69,44.42 6,0.27 11.85,-1.48 17.8,-2.12 11.12,-1.18 22.57,1.52 33.46,-1 -2.64,-10.43 -5.28,-28.24 -7.92,-38.66 a 73.77,73.77 0 0 1 -2.42,-12.55 c -0.23,-3.05 -0.09,-6.11 -0.05,-9.18 0.09,-6 -0.24,-12 -0.57,-18 -0.38,-7 -0.76,-14 -2.42,-20.85 a 3.88,3.88 0 0 0 -1.16,-2.29 c -1,-0.73 -2.3,-0.47 -3.49,-0.31 a 15.18,15.18 0 0 1 -10.38,-2.46 c -1.32,-0.9 -3.09,-2 -4.32,-1 a 4.3,4.3 0 0 0 -1,2.13 10.65,10.65 0 0 1 -6.26,6.17 31.33,31.33 0 0 1 -8.86,1.82 4.35,4.35 0 0 1 -2.75,-0.31 c -1.42,-0.87 -1.52,-4 -3.31,-4.21 -1.57,-0.18 -4.03,3.2 -5.09,4.21 z"
     id="path100"
     inkscape:connector-curvature="0"
     style="fill:#3f3d56" />
  <path
     d="m 442.65,428.24041 c -3.69,-3.53 -5.31,-8.65 -8,-13 a 28.94,28.94 0 0 0 -6.91,-7.6 20.61,20.61 0 0 1 -3.76,-3.19 c -0.95,-1.17 -1.67,-2.73 -3.11,-3.18 a 3.76,3.76 0 0 0 -3.37,0.93 33.16,33.16 0 0 0 -2.5,2.66 c -4.24,4.39 -11.69,5 -15.05,10.08 a 8.26,8.26 0 0 0 -1.79,3.75 29.06,29.06 0 0 0 5.34,20.9 7.1,7.1 0 0 0 3.7,3 11.58,11.58 0 0 0 0.72,5.5 147.07,147.07 0 0 0 6.81,18.55 44.87,44.87 0 0 0 -1.34,7.19 c -0.7,6.11 -0.05,12.31 -0.71,18.43 -0.54,5 -2,9.87 -2.05,14.88 0,0.8 0.07,1.75 0.76,2.16 a 2.3,2.3 0 0 0 1.19,0.25 l 12.3,0.37 c 7.14,0.21 14.35,0.42 21.38,-0.9 a 8.9,8.9 0 0 0 2.69,-0.85 c 2.38,-1.33 3.17,-4.33 3.55,-7 a 61,61 0 0 0 0.59,-10.46 c 1.49,4.71 3.26,9.58 7.76,11.62 2.38,1.08 5.1,1 7.71,0.93 a 145.16,145.16 0 0 0 16.79,-1.73 2.21,2.21 0 0 0 2.45,-2.57 l 0.06,-5.46 c 0.12,-11.09 -2.63,-21.69 -3.7,-32.73 -0.34,-3.48 -0.31,-7 -1.16,-10.41 -0.35,-1.43 -0.86,-2.83 -1.17,-4.27 a 30.52,30.52 0 0 1 -0.5,-4.27 l -0.78,-11 c -0.37,-5.09 -0.9,-10 -1.29,-15.08 a 73,73 0 0 0 -2.14,-14.66 c -0.87,-3 -2.68,-6.4 -5.81,-6.77 -1.67,-0.19 -3.29,0.54 -4.88,1.05 a 19.72,19.72 0 0 1 -12,-0.05 16.9,16.9 0 0 0 -3.74,-1 3.67,3.67 0 0 0 -3.42,1.42 5.13,5.13 0 0 0 -0.53,2.52 c -0.47,9.99 -1.34,20.28 -4.09,29.99 z"
     id="path102"
     style="fill:#51c9e7;fill-opacity:1"
     inkscape:connector-curvature="0" />
  <path
     d="m 426.56,428.54041 c -4.61,-4.86 -9.34,-9.81 -15.28,-12.9 -2.34,-1.22 -5,-2.14 -7.59,-1.68 -2.59,0.46 -5,2.71 -4.88,5.34 0.08,1.63 1.07,3.07 1.38,4.67 0.36,1.8 -0.16,3.72 0.4,5.46 a 9.24,9.24 0 0 0 2,3.07 l 7.08,8.39 c 3,3.5 6,7.05 9.86,9.47 3.86,2.42 8.86,3.55 13.1,1.83 a 16.1,16.1 0 0 0 7.18,-6.59 c 1.76,-2.8 3,-5.86 4.65,-8.75 a 43.45,43.45 0 0 1 10,-12.13 c -2.08,-0.54 -4.69,-1.3 -6,-3 a 9.91,9.91 0 0 1 -0.95,-1.72 l -1.62,-3.5 a 4,4 0 0 0 -3,1.13 25.16,25.16 0 0 1 -2.23,2.27 c -1.41,1.06 -3.32,1.35 -4.6,2.56 a 12.19,12.19 0 0 0 -1.34,1.68 11.22,11.22 0 0 1 -8.16,4.4 z"
     id="path104"
     inkscape:connector-curvature="0"
     style="fill:#3f3d56" />
  <path
     d="m 454.83,407.63041 c 3.47,-6.33 3.31,-13.92 4.3,-21.07 a 9.62,9.62 0 0 1 1.91,-5.23 c 2,-2.26 5.53,-2.29 8.55,-2 0.89,0.1 2,0.52 1.95,1.41 a 1.8,1.8 0 0 1 -0.45,0.85 23.79,23.79 0 0 0 -4.94,13.12 c 1.57,1.09 4,-1.15 5.51,0 1,0.84 0.54,2.5 -0.06,3.7 q -2.09,4.17 -4.31,8.28 a 26.59,26.59 0 0 1 -4.57,6.59 c -1.27,1.22 -2.76,2.18 -4.05,3.38 -3,2.81 -4.81,6.78 -7.91,9.52 a 1.62,1.62 0 0 1 -1,0.51 1.68,1.68 0 0 1 -1.05,-0.47 15.16,15.16 0 0 1 -3.78,-4.57 c -1.18,-2.18 -1,-2.82 0.86,-4.36 3.48,-2.75 6.87,-5.7 9.04,-9.66 z"
     id="path106"
     inkscape:connector-curvature="0"
     style="fill:#be6f72" />
  <path
     d="m 420.76,424.24041 c 0.6,0.37 1.34,0.79 2,0.48 a 2.08,2.08 0 0 0 0.67,-0.65 23.54,23.54 0 0 0 2.84,-4.94 1.9,1.9 0 0 0 0.21,-0.8 c 0,-0.64 -0.57,-1.11 -1.1,-1.48 a 40.76,40.76 0 0 0 -9.09,-4.32 c -2.64,-1 -5.4,-1.87 -8.2,-1.62 a 7.82,7.82 0 0 0 -5.47,2.78 c -2,2.57 1.35,3.35 3.45,4.28 4.86,2.21 10.12,3.49 14.69,6.27 z"
     id="path108"
     style="fill:#51c9e7;fill-opacity:1"
     inkscape:connector-curvature="0" />
  <path
     d="m 417.61,441.24041 a 1.47,1.47 0 0 0 0.42,1.26 c 0.29,-1.42 -0.09,-2.92 0.21,-4.35 0.44,-2.15 2.53,-3.77 2.71,-5.93 -3.83,-0.75 -3.31,6.7 -3.34,9.02 z"
     id="path110"
     inkscape:connector-curvature="0"
     style="opacity:0.1" />
  <polygon
     points="548.25,370.36 547.02,360.5 588.91,358.04 588.91,367.89 "
     id="polygon112"
     style="opacity:0.2"
     transform="translate(5.02,5.0004075)" />
  <path
     d="m 413.79,378.97041 c 2.54,-2.07 1.07,-6.41 2.79,-9.19 1,-1.52 2.69,-2.32 4.35,-3 a 19.79,19.79 0 0 1 6.35,-1.76 7.37,7.37 0 0 1 6,2.21 c 0.65,0.74 1.09,1.64 1.7,2.41 a 6.5,6.5 0 0 0 6.3,2.18 c 1.33,-0.3 2.71,-1.31 2.62,-2.67 a 3.77,3.77 0 0 0 -1.2,-2.14 l -2.86,-3.17 c -3.25,-3.6 -6.86,-7.42 -11.63,-8.32 -3.32,-0.63 -6.72,0.26 -9.92,1.33 -1.29,0.43 -2.74,1.07 -3.1,2.38 -0.24,0.9 0.12,1.88 -0.09,2.79 -0.41,1.81 -2.73,2.42 -3.81,3.94 -1.08,1.52 -0.75,3.32 -1.06,5 -0.31,1.68 -1.21,3.32 -1.32,5.06 -0.07,1.05 0.46,3 1.64,3.38 1.18,0.38 2.51,-1.68 3.24,-0.43 z"
     id="path114"
     inkscape:connector-curvature="0"
     style="fill:#3f3d56" />
  <path
     d="m 442.93,367.71041 a 30,30 0 0 0 -5.32,-12.16 21.31,21.31 0 0 0 -9.47,-7.52 13.56,13.56 0 0 0 -11.79,0.93 17.12,17.12 0 0 0 -5.89,7.43 c -2.59,5.58 -3.55,12.4 -0.54,17.76 1.2,-1.46 3.26,-0.8 5.08,-1.33 2.28,-0.65 4.21,-2.17 6.38,-3.12 6.55,-2.89 14.55,-0.55 21.55,-1.99 z"
     id="path116"
     inkscape:connector-curvature="0"
     style="fill:#fed253" />
  <path
     d="m 411.45,367.40041 c -0.23,-1.8 -0.38,-3.89 0.9,-5.17 a 0.65,0.65 0 0 1 0.53,-0.24 0.69,0.69 0 0 1 0.41,0.36 22.38,22.38 0 0 1 1.88,3.68 3.82,3.82 0 0 0 -4,1.55"
     id="path118"
     inkscape:connector-curvature="0"
     style="opacity:0.1" />
  <path
     d="m 434.82,362.32041 -0.36,-3.57 a 1.63,1.63 0 0 1 0.07,-0.88 1.13,1.13 0 0 1 1.46,-0.4 3,3 0 0 1 1.17,1.17 21,21 0 0 1 2.06,4.07 12.1,12.1 0 0 0 -4.87,0.06"
     id="path120"
     inkscape:connector-curvature="0"
     style="opacity:0.1" />
  <polygon
     points="431.86,510.83 395.62,510.83 395.62,502.21 438.75,502.21 438.75,510.37 "
     id="polygon122"
     style="opacity:0.1"
     transform="translate(5.02,5.0004075)" />
  <polygon
     points="395.62,510.83 281.04,367.3 281.04,360.52 305.06,360.52 438.75,502.21 438.75,510.83 "
     id="polygon124"
     style="fill:#f1c0c0"
     transform="translate(5.02,5.0004075)" />
  <polygon
     points="395.62,510.83 281.04,367.3 281.04,360.52 305.06,360.52 438.75,502.21 438.75,510.83 "
     id="polygon126"
     style="opacity:0.1"
     transform="translate(5.02,5.0004075)" />
  <polygon
     points="395.62,510.83 281.04,367.3 281.04,360.52 396.24,502.21 438.75,502.21 438.75,510.83 "
     id="polygon128"
     style="opacity:0.1"
     transform="translate(5.02,5.0004075)" />
  <path
     d="m 301.08,651.07041 a 3,3 0 0 1 -2.62,3.53 c -2.78,0.94 -5.73,1.87 -7.7,4 -1.97,2.13 -2.36,6.08 0,7.81 a 7.59,7.59 0 0 0 4,1.09 c 4.53,0.31 9.25,0.25 13.36,-1.67 2.94,-1.36 5.71,-3.68 8.94,-3.47 1.67,0.1 3.45,0.88 4.94,0.12 1.49,-0.76 1.91,-2.88 1.92,-4.65 a 34.43,34.43 0 0 0 -1.65,-10.89 c -0.15,-0.48 -6.51,-0.85 -7.27,-1 l -7.71,-1 c -1.46,-0.19 -4.61,-1.29 -5.76,-0.07 -1.15,1.22 -0.45,4.75 -0.45,6.2 z"
     id="path130"
     style="fill:#51c9e7;fill-opacity:1"
     inkscape:connector-curvature="0" />
  <path
     d="m 347.09,626.11041 a 24.15,24.15 0 0 0 1.58,5.24 c 1.07,2.72 2.44,5.61 5.06,6.93 2.38,1.19 5.3,0.76 7.72,-0.37 a 6.36,6.36 0 0 0 2.57,-1.95 7.74,7.74 0 0 0 1,-4.49 c 0,-3.87 -0.23,-7.87 -2,-11.31 -1.52,-3 -4.17,-5.58 -4.21,-8.9 l -9.11,1.76 a 2.6,2.6 0 0 0 -1.34,0.53 2.31,2.31 0 0 0 -0.58,1.09 29.77,29.77 0 0 0 -0.69,11.47 z"
     id="path132"
     style="fill:#51c9e7;fill-opacity:1"
     inkscape:connector-curvature="0" />
  <path
     d="m 238.3,531.11041 c -0.38,3.22 -0.22,6.67 1.46,9.45 1.68,2.78 5.22,4.62 8.28,3.51 a 1.21,1.21 0 0 0 0.75,-0.57 1.41,1.41 0 0 0 -0.13,-1 14.76,14.76 0 0 1 0.31,-11.12 c 0.2,-0.46 0.63,-1 1.1,-0.82 a 1,1 0 0 1 0.45,0.46 5.23,5.23 0 0 1 0.7,2.76 10.26,10.26 0 0 0 -0.08,2.65 c 0.19,0.86 1.11,1.67 1.91,1.3 a 2,2 0 0 0 0.91,-1.29 c 2.23,-6.45 1.22,-13.5 0.2,-20.25 a 1.06,1.06 0 0 0 -1.19,-1.11 c -4.72,-0.47 -7.3,-1.6 -10,2.79 -2.32,3.7 -4.67,8.79 -4.67,13.24 z"
     id="path134"
     inkscape:connector-curvature="0"
     style="fill:#b04027" />
  <path
     d="m 293.48,514.70041 c -1.4,5.82 -2.81,11.71 -2.9,17.69 a 81.27,81.27 0 0 0 0.84,11.13 l 1.05,8.66 c 0.36,2.92 0.71,5.83 1.22,8.72 a 23.15,23.15 0 0 1 0.53,4.53 24.26,24.26 0 0 1 -0.71,4.45 52,52 0 0 0 -1.05,9.3 c -0.11,5 0.51,10 0.9,15 a 167.05,167.05 0 0 1 -0.35,29.92 11.22,11.22 0 0 0 1.64,7.71 9.92,9.92 0 0 1 1.45,2.38 c 0.75,2.29 -1,4.58 -1.45,6.93 a 7,7 0 0 0 5.82,8 c 8,0.95 16.22,0.52 23.43,4.18 0.76,-2.22 -0.9,-4.74 -0.14,-7 0.48,-1.4 1.8,-2.31 2.7,-3.49 a 10.16,10.16 0 0 0 1.72,-6.1 22.29,22.29 0 0 0 -1.48,-8.27 c -0.85,-2.2 -2.07,-4.37 -2,-6.73 0,-1.16 0.41,-2.38 -0.06,-3.45 a 5.39,5.39 0 0 0 -1.29,-1.61 20.33,20.33 0 0 1 -5.23,-11.85 54.58,54.58 0 0 1 0.42,-13.14 c 0.49,-4.14 1.15,-8.51 3.78,-11.74 a 75.33,75.33 0 0 1 2.11,-29.25 c 0.26,-0.88 0.67,-1.9 1.57,-2.11 a 2.24,2.24 0 0 1 1.92,0.76 c 1.57,1.47 2.32,3.6 3,5.64 0.75,2.21 1.51,4.57 0.94,6.83 -0.24,1 -0.72,1.88 -1,2.84 a 8.42,8.42 0 0 0 0.3,5.87 5.64,5.64 0 0 1 0.72,2.21 6.12,6.12 0 0 1 -0.6,1.92 8.84,8.84 0 0 0 0.83,7.15 25.89,25.89 0 0 0 4.67,5.73 21,21 0 0 0 0.65,11.56 1.46,1.46 0 0 1 0.13,1.11 c -0.18,0.38 -0.64,0.52 -1,0.79 -1,0.82 -0.38,2.37 0.29,3.44 a 78.88,78.88 0 0 0 6.07,8.42 c 2,2.39 1.82,7 4.8,7.86 a 9,9 0 0 0 3.8,0 c 2.94,-0.45 6.22,-1.3 7.66,-3.9 0.59,-1.07 0.83,-2.37 1.75,-3.17 0.92,-0.8 2.11,-0.94 2.62,-1.9 0.51,-0.96 -0.06,-2.22 0.11,-3.33 0.17,-1.11 1.14,-2 1.45,-3.17 0.74,-2.7 -2.41,-4.92 -2.84,-7.68 -0.62,-4 4.42,-7 4.21,-11 -0.44,-8.69 -0.72,-17.42 -1.17,-26.11 a 188.26,188.26 0 0 1 -0.24,-23.39 c 0.35,-4.85 1,-9.93 -0.78,-14.44 -2.56,-6.36 -9.62,-9.93 -16.45,-10.61 -6.83,-0.68 -13.64,0.94 -20.41,2 a 129,129 0 0 1 -33.95,0.71 z"
     id="path136"
     inkscape:connector-curvature="0"
     style="fill:#3f3d56" />
  <circle
     cx="313.78"
     cy="403.1004"
     r="16.02"
     id="circle138"
     style="fill:#fbbebe" />
  <path
     d="m 307.26,422.11041 a 6.83,6.83 0 0 1 -6.53,4.13 c -0.58,2.4 0.81,4.82 2.4,6.71 a 28.48,28.48 0 0 0 27.26,9.35 13.45,13.45 0 0 0 5.37,-2.24 11.91,11.91 0 0 0 4.1,-7.1 35.3,35.3 0 0 0 0.39,-8.35 2.16,2.16 0 0 0 -0.44,-1.54 2.2,2.2 0 0 0 -1.4,-0.46 c -3.38,-0.3 -6.91,-0.43 -9.88,-2.09 -2.97,-1.66 -5.08,-5.41 -3.65,-8.49 -0.23,0.48 -6.07,0.71 -6.84,0.81 -2.41,0.34 -4.82,0.72 -7.22,1.16 a 13.13,13.13 0 0 0 -3.39,0.64 c -1.45,0.75 -0.91,0.38 -0.57,1.74 0.51,2.08 1.26,3.57 0.4,5.73 z"
     id="path140"
     inkscape:connector-curvature="0"
     style="fill:#fbbebe" />
  <path
     d="m 319.45,431.85041 a 26.53,26.53 0 0 1 -6.41,-0.71 9,9 0 0 1 -5.26,-3.51 c -0.74,-1.12 -1.22,-2.53 -2.4,-3.16 -1.93,-1 -4.13,0.69 -5.67,2.24 a 20.6,20.6 0 0 1 -4.82,3.88 c -2.14,1.13 -4.64,1.53 -6.66,2.86 a 16.74,16.74 0 0 0 -4,4.32 l -14.17,19.3 c -5.69,7.76 -10.64,16.09 -15.71,24.28 -4.39,7.09 -6.69,15.25 -10,22.9 a 2.56,2.56 0 0 0 -0.31,1.54 c 0.12,0.52 0.75,0.94 1.19,0.64 -1.49,1.48 -0.18,4 -0.53,6.08 a 7.46,7.46 0 0 1 -2.38,3.73 18.8,18.8 0 0 1 6.6,0.31 20.23,20.23 0 0 1 6.24,3 c 1.21,-0.19 1.1,-2.34 2,-3.14 0.54,-0.47 1.34,-0.41 2.05,-0.55 2.67,-0.52 3.73,-3.73 5.78,-5.54 1.71,-1.51 4.13,-2 5.94,-3.42 2.94,-2.31 3.57,-6.42 5.11,-9.83 1.31,-2.89 3.37,-5.41 4.52,-8.37 0.75,-1.92 1.11,-4 2.18,-5.77 1.71,-2.86 4.93,-4.38 8,-5.75 1.94,-0.87 4,-1.77 6.09,-1.63 -0.11,4.65 -0.7,9.23 0.31,13.77 0.35,1.6 0.84,3.16 1.26,4.75 1.91,7.16 2.36,14.62 2.45,22 a 66.94,66.94 0 0 1 14,-1.68 c 3.71,-0.11 7.41,0.37 11.12,0.3 4.4,-0.08 8.75,-0.93 13.15,-1.23 4.4,-0.3 9,0 12.89,2 a 122.46,122.46 0 0 1 0.53,-19 l 1.06,-9.94 a 61.07,61.07 0 0 1 1.33,-8.58 c 0.58,-2.28 1.42,-4.48 2.06,-6.75 2.25,-8 1.84,-16.54 1.41,-24.87 -0.22,-4.28 -1.87,-8.49 -3.81,-12.3 a 33.29,33.29 0 0 0 -2.4,-4.08 23.63,23.63 0 0 0 -20.66,-9.7 4.18,4.18 0 0 0 -1.48,0.32 4.93,4.93 0 0 0 -1.89,2.25 24.5,24.5 0 0 1 -8.71,9.04 z"
     id="path142"
     inkscape:connector-curvature="0"
     style="fill:#3f3d56" />
  <path
     d="m 299.69,408.41041 c 0.45,-1 1.66,-1.37 2.4,-2.17 1.42,-1.52 0.78,-3.95 1,-6 0.36,-3 2.85,-5.51 5.7,-6.58 a 18.42,18.42 0 0 1 9,-0.57 8.71,8.71 0 0 1 4.06,1.35 c 0.52,0.38 1,0.87 1.49,1.22 a 4,4 0 0 0 5.44,-1.27 c -3.54,-4.26 -7.46,-8.76 -12.84,-10.07 a 26.34,26.34 0 0 0 -5.61,-0.53 c -2.49,-0.05 -5.06,-0.09 -7.36,0.86 -3.13,1.29 -5.33,4.26 -6.46,7.46 a 36.27,36.27 0 0 0 -1.57,10 37.67,37.67 0 0 0 0,6.8 18.8,18.8 0 0 0 3.34,8.57 2.59,2.59 0 0 0 1,0.93 c 4.56,2 0.04,-9.17 0.41,-10 z"
     id="path144"
     inkscape:connector-curvature="0"
     style="fill:#3f3d56" />
  <path
     d="m 328.26,391.92041 c -0.55,-4.71 -3.91,-8.6 -7.48,-11.73 a 27.58,27.58 0 0 0 -10.05,-6.05 c -3.77,-1.11 -8.11,-0.87 -11.34,1.38 -2.6,1.81 -4.25,4.69 -5.52,7.59 a 23.89,23.89 0 0 0 -2.41,11 c 0.25,3.78 2.09,7.61 5.37,9.52 1.18,-1.74 3.23,-2.64 5.2,-3.35 a 254.61,254.61 0 0 1 26.23,-8.36 z"
     id="path146"
     inkscape:connector-curvature="0"
     style="fill:#fed253" />
  <path
     d="m 297.93,389.96041 c 0.32,0 0.53,0.33 0.69,0.6 a 25.35,25.35 0 0 1 2.09,4 c -1.17,0.25 -3.18,0.53 -3.76,-0.5 -0.31,-0.52 0.06,-4.15 0.98,-4.1 z"
     id="path148"
     inkscape:connector-curvature="0"
     style="opacity:0.1" />
  <path
     d="m 320.72,387.70041 c -0.24,0.23 -0.52,-0.24 -0.52,-0.58 v -3.88 a 0.57,0.57 0 0 1 0.07,-0.31 0.47,0.47 0 0 1 0.33,-0.16 c 0.81,-0.09 1.48,0.6 2,1.26 a 21.12,21.12 0 0 1 2.05,3.41 l -4.23,-0.13"
     id="path150"
     inkscape:connector-curvature="0"
     style="opacity:0.1" />
  <path
     d="m 373.51,451.95041 a 26.17,26.17 0 0 1 2.94,-2.41 c 2.77,-1.85 6.12,-2.58 9.23,-3.76 3.11,-1.18 6.27,-3.09 7.48,-6.19 a 14.7,14.7 0 0 0 0.58,-6 6,6 0 0 0 -0.44,-2.47 4.91,4.91 0 0 0 -1.58,-1.72 c -4.22,-3.12 -9.88,-3.37 -15.12,-3.05 a 94.77,94.77 0 0 0 -33.41,8.34 2.9,2.9 0 0 0 -1.4,1 2.86,2.86 0 0 0 -0.27,1.39 23,23 0 0 0 1.13,8.71 c 1.38,3.56 4.22,6.43 5.41,10.06 0.54,1.63 0.72,3.36 1.19,5 a 7,7 0 0 0 2.81,4.18 c 3.95,2.36 7.68,-0.81 10.42,-3.27 z"
     id="path152"
     inkscape:connector-curvature="0"
     style="fill:#3f3d56" />
  <path
     d="m 321.78,465.80041 -5.07,-11.06 a 38.71,38.71 0 0 1 -1.92,-4.73 c -0.58,-1.93 -0.86,-3.93 -1.4,-5.87 -1.78,-6.46 -6.27,-11.84 -8.46,-18.17 a 3.45,3.45 0 0 0 -0.82,-1.53 2.67,2.67 0 0 0 -2.23,-0.4 c -3.06,0.53 -5.45,2.86 -8.25,4.18 -1.3,0.6 -2.7,1 -4,1.69 a 5,5 0 0 0 -2.68,3.19 c -0.31,1.53 0.45,3 1.09,4.49 2.72,6.14 3.34,13 3.46,19.72 0.09,4.52 -0.14,9.37 -2.81,13 -5.13,7 -1.85,17.28 0.07,25.75 0.23,1 0.5,2.08 0.66,3.14 a 28.87,28.87 0 0 1 0.23,4 c 0,4.49 -0.25,9.12 -2.13,13.19 a 14.76,14.76 0 0 0 6,1.7 q 8.71,1.11 17.49,1.56 a 19.06,19.06 0 0 0 5.49,-0.28 10,10 0 0 0 7.39,-9.8 c 0.32,2.77 0.91,5.78 2.92,7.7 2.01,1.92 4.94,2.21 7.67,2.36 a 142.6,142.6 0 0 0 23.1,-0.65 4,4 0 0 0 1.42,-0.33 c 1.48,-0.74 1.56,-2.78 1.44,-4.42 -0.22,-3.07 -0.45,-6.14 -0.82,-9.19 a 37.61,37.61 0 0 1 -0.48,-5.88 33.83,33.83 0 0 1 1,-6 c 1.34,-6.24 2.4,-12.61 1.95,-19 a 32.06,32.06 0 0 1 -0.19,-4.69 c 0.26,-3.53 2.12,-6.89 1.77,-10.4 -1,-10.32 -1.81,-20.91 -4.69,-30.87 -0.52,-1.78 -1.18,-3.69 -2.73,-4.71 -2,-1.34 -4.81,-0.64 -7.1,-1.49 a 17.76,17.76 0 0 1 -3.05,-1.81 14,14 0 0 0 -6.89,-2.12 c -1.84,-0.07 -3.89,0.34 -5,1.82 a 7.26,7.26 0 0 0 -1,2.73 c -1.45,6.1 -3.15,12.13 -4.85,18.16 l -1.63,5.78 -4.37,15.52 c -0.43,1.65 -0.14,2.16 -0.58,3.72 z"
     id="path154"
     style="fill:#51c9e7;fill-opacity:1"
     inkscape:connector-curvature="0" />
  <polyline
     points="342.33 400.25 439.06 501.9 439.06 510.52 395.93 510.52 323.24 415.65"
     id="polyline156"
     style="fill:#f1c0c0"
     transform="translate(5.02,5.0004075)" />
  <polyline
     points="342.33 400.25 439.06 501.9 439.06 510.52 395.93 510.52 323.24 415.65"
     id="polyline158"
     style="opacity:0.1"
     transform="translate(5.02,5.0004075)" />
  <polygon
     points="396.55,501.9 439.06,501.9 439.06,510.52 395.93,510.52 323.24,415.65 324.78,414.31 325.09,414.42 "
     id="polygon160"
     style="opacity:0.1"
     transform="translate(5.02,5.0004075)" />
  <path
     d="m 340.93,421.45041 c -3.5,1.53 -7.39,3.49 -8.44,7.17 a 4.12,4.12 0 0 0 -0.13,2 4.08,4.08 0 0 0 3.67,2.81 12,12 0 0 0 4.81,-0.88 l 20.65,-6.82 c 0.56,-0.18 1.2,-0.45 1.34,-1 a 1.72,1.72 0 0 0 -0.2,-1 c -0.64,-1.56 -1.27,-4.75 -2.61,-5.84 -1.1,-0.88 -3.28,-0.57 -4.61,-0.55 -5.12,0.04 -9.93,2.11 -14.48,4.11 z"
     id="path162"
     inkscape:connector-curvature="0"
     style="fill:#b04027" />
  <path
     d="m 359.34,426.54041 a 33.21,33.21 0 0 1 10.25,1.59 18.26,18.26 0 0 1 8.49,5.8 6.36,6.36 0 0 1 1.34,2.62 c 0.2,1 3.46,1.6 2.74,2.28 2.19,-0.35 1.67,0.68 3.89,0.66 2.22,-0.02 4.62,-0.59 5.95,-2.36 a 7.73,7.73 0 0 0 1.17,-4.89 8.33,8.33 0 0 0 -0.66,-3.46 c -1,-2.1 -3.3,-3.23 -5.42,-4.2 l -17.86,-8.17 a 11.86,11.86 0 0 0 -3.3,-1.17 12.34,12.34 0 0 0 -2.91,0.07 l -8.09,0.93 a 12.13,12.13 0 0 1 5.53,10.67"
     id="path164"
     inkscape:connector-curvature="0"
     style="fill:#3f3d56" />
</svg>
