<?xml version="1.0" encoding="UTF-8" standalone="no"?>
<svg
   xmlns:dc="http://purl.org/dc/elements/1.1/"
   xmlns:cc="http://creativecommons.org/ns#"
   xmlns:rdf="http://www.w3.org/1999/02/22-rdf-syntax-ns#"
   xmlns:svg="http://www.w3.org/2000/svg"
   xmlns="http://www.w3.org/2000/svg"
   xmlns:sodipodi="http://sodipodi.sourceforge.net/DTD/sodipodi-0.dtd"
   xmlns:inkscape="http://www.inkscape.org/namespaces/inkscape"
   id="e2e0f303-db8f-43b0-b991-e6394321a108"
   data-name="Layer 1"
   width="729.79456"
   height="688.11542"
   viewBox="0 0 729.79453 688.11542"
   version="1.1"
   sodipodi:docname="undraw_joyride_hnno.svg"
   inkscape:version="0.92.5 (2060ec1f9f, 2020-04-08)">
  <metadata
     id="metadata163">
    <rdf:RDF>
      <cc:Work
         rdf:about="">
        <dc:format>image/svg+xml</dc:format>
        <dc:type
           rdf:resource="http://purl.org/dc/dcmitype/StillImage" />
        <dc:title>joyride</dc:title>
      </cc:Work>
    </rdf:RDF>
  </metadata>
  <defs
     id="defs161" />
  <sodipodi:namedview
     pagecolor="#ffffff"
     bordercolor="#666666"
     borderopacity="1"
     objecttolerance="10"
     gridtolerance="10"
     guidetolerance="10"
     inkscape:pageopacity="0"
     inkscape:pageshadow="2"
     inkscape:window-width="1920"
     inkscape:window-height="1047"
     id="namedview159"
     showgrid="false"
     inkscape:zoom="0.68462354"
     inkscape:cx="351.81509"
     inkscape:cy="207.31137"
     inkscape:window-x="0"
     inkscape:window-y="33"
     inkscape:window-maximized="0"
     inkscape:current-layer="e2e0f303-db8f-43b0-b991-e6394321a108"
     fit-margin-top="5"
     fit-margin-right="5"
     fit-margin-bottom="5"
     fit-margin-left="5" />
  <title
     id="title2">joyride</title>
  <path
     d="m 598.32466,281.64 h -128.36 v -27.76 a 6.63,6.63 0 0 0 -6.64,-6.64 h -37.69 v -29.52 a 4.18,4.18 0 0 0 -4.18,-4.18 h -48.55 a 4.18,4.18 0 0 0 -4.18,4.18 v 29.57 h -44.33 a 6.64,6.64 0 0 0 -6.64,6.64 v 27.69 h -122.36 a 1.35,1.35 0 0 0 -1.34,1.35 v 368.54 a 1.35,1.35 0 0 0 1.34,1.35 h 81.34 a 1.35,1.35 0 0 0 1.35,-1.35 v -49.58 a 1.37,1.37 0 0 1 1.36,-1.35 h 34.35 a 1.36,1.36 0 0 1 1.35,1.35 v 49.58 a 1.36,1.36 0 0 0 1.34,1.35 h 160.74 a 1.36,1.36 0 0 0 1.35,-1.35 v -49.58 a 1.36,1.36 0 0 1 1.34,-1.35 h 34.36 a 1.36,1.36 0 0 1 1.36,1.35 v 49.58 a 1.36,1.36 0 0 0 1.34,1.35 h 81.35 a 1.35,1.35 0 0 0 1.34,-1.35 V 282.99 a 1.35,1.35 0 0 0 -1.34,-1.35 z m -334.81,301.72 a 1.34,1.34 0 0 1 -1.33,1.34 h -50.24 a 1.35,1.35 0 0 1 -1.36,-1.34 V 566.2 a 1.36,1.36 0 0 1 1.36,-1.35 h 50.24 a 1.35,1.35 0 0 1 1.33,1.35 z m 0,-44.34 a 1.34,1.34 0 0 1 -1.33,1.35 h -50.24 a 1.35,1.35 0 0 1 -1.36,-1.35 v -17.15 a 1.35,1.35 0 0 1 1.36,-1.35 h 50.24 a 1.34,1.34 0 0 1 1.33,1.35 z m 0,-44.33 a 1.35,1.35 0 0 1 -1.33,1.35 h -50.24 a 1.36,1.36 0 0 1 -1.36,-1.35 v -17.16 a 1.36,1.36 0 0 1 1.36,-1.35 h 50.24 a 1.35,1.35 0 0 1 1.33,1.35 z m 0,-44.34 a 1.34,1.34 0 0 1 -1.33,1.35 h -50.24 a 1.35,1.35 0 0 1 -1.36,-1.35 V 433.2 a 1.35,1.35 0 0 1 1.36,-1.35 h 50.24 a 1.34,1.34 0 0 1 1.33,1.35 z m 0,-44.33 a 1.35,1.35 0 0 1 -1.33,1.35 h -50.24 a 1.36,1.36 0 0 1 -1.36,-1.35 v -17.16 a 1.35,1.35 0 0 1 1.36,-1.34 h 50.24 a 1.34,1.34 0 0 1 1.33,1.34 z m 0,-44.33 a 1.34,1.34 0 0 1 -1.33,1.34 h -50.24 a 1.35,1.35 0 0 1 -1.36,-1.34 v -17.16 a 1.36,1.36 0 0 1 1.36,-1.35 h 50.24 a 1.35,1.35 0 0 1 1.33,1.35 z m 0,-44.34 a 1.34,1.34 0 0 1 -1.33,1.35 h -50.24 a 1.35,1.35 0 0 1 -1.36,-1.35 V 300.2 a 1.35,1.35 0 0 1 1.36,-1.35 h 50.24 a 1.34,1.34 0 0 1 1.33,1.35 z m 119.12,266 a 1.35,1.35 0 0 1 -1.36,1.34 h -50.24 a 1.34,1.34 0 0 1 -1.34,-1.34 V 566.2 a 1.35,1.35 0 0 1 1.34,-1.35 h 50.24 a 1.36,1.36 0 0 1 1.36,1.35 z m 0,-44.34 a 1.35,1.35 0 0 1 -1.36,1.35 h -50.24 a 1.34,1.34 0 0 1 -1.34,-1.35 v -17.14 a 1.34,1.34 0 0 1 1.34,-1.35 h 50.24 a 1.35,1.35 0 0 1 1.36,1.35 z m 0,-44.33 a 1.36,1.36 0 0 1 -1.36,1.35 h -50.24 a 1.35,1.35 0 0 1 -1.34,-1.31 v -17.19 a 1.35,1.35 0 0 1 1.34,-1.35 h 50.24 a 1.36,1.36 0 0 1 1.36,1.35 z m 0,-44.34 a 1.35,1.35 0 0 1 -1.36,1.35 h -50.24 a 1.34,1.34 0 0 1 -1.34,-1.35 V 433.2 a 1.34,1.34 0 0 1 1.34,-1.35 h 50.24 a 1.35,1.35 0 0 1 1.36,1.35 z m 0,-44.33 a 1.36,1.36 0 0 1 -1.36,1.35 h -50.24 a 1.35,1.35 0 0 1 -1.34,-1.35 v -17.15 a 1.34,1.34 0 0 1 1.34,-1.34 h 50.24 a 1.35,1.35 0 0 1 1.36,1.34 z m 0,-44.33 a 1.35,1.35 0 0 1 -1.36,1.34 h -50.24 a 1.34,1.34 0 0 1 -1.34,-1.3 v -17.19 a 1.35,1.35 0 0 1 1.34,-1.35 h 50.24 a 1.36,1.36 0 0 1 1.36,1.35 z m 0,-44.34 a 1.35,1.35 0 0 1 -1.36,1.35 h -50.24 a 1.34,1.34 0 0 1 -1.34,-1.35 V 300.2 a 1.34,1.34 0 0 1 1.34,-1.35 h 50.24 a 1.35,1.35 0 0 1 1.36,1.35 z m 81.38,266 a 1.34,1.34 0 0 1 -1.35,1.34 h -50.27 a 1.36,1.36 0 0 1 -1.36,-1.34 V 566.2 a 1.37,1.37 0 0 1 1.36,-1.35 h 50.23 a 1.35,1.35 0 0 1 1.35,1.35 z m 0,-44.34 a 1.34,1.34 0 0 1 -1.35,1.35 h -50.27 a 1.36,1.36 0 0 1 -1.36,-1.35 v -17.13 a 1.36,1.36 0 0 1 1.36,-1.35 h 50.23 a 1.34,1.34 0 0 1 1.35,1.35 z m 0,-44.33 a 1.35,1.35 0 0 1 -1.35,1.35 h -50.27 a 1.37,1.37 0 0 1 -1.36,-1.35 v -17.14 a 1.37,1.37 0 0 1 1.36,-1.35 h 50.23 a 1.35,1.35 0 0 1 1.35,1.35 z m 0,-44.34 a 1.34,1.34 0 0 1 -1.35,1.35 h -50.27 a 1.36,1.36 0 0 1 -1.36,-1.35 V 433.2 a 1.36,1.36 0 0 1 1.36,-1.35 h 50.23 a 1.34,1.34 0 0 1 1.35,1.35 z m 0,-44.33 a 1.35,1.35 0 0 1 -1.35,1.35 h -50.27 a 1.37,1.37 0 0 1 -1.36,-1.35 v -17.14 a 1.36,1.36 0 0 1 1.36,-1.34 h 50.23 a 1.34,1.34 0 0 1 1.35,1.34 z m 0,-44.33 a 1.34,1.34 0 0 1 -1.35,1.34 h -50.27 a 1.36,1.36 0 0 1 -1.36,-1.34 v -17.14 a 1.37,1.37 0 0 1 1.36,-1.35 h 50.23 a 1.35,1.35 0 0 1 1.35,1.35 z m 0,-44.34 a 1.34,1.34 0 0 1 -1.35,1.35 h -50.27 a 1.36,1.36 0 0 1 -1.36,-1.35 V 300.2 a 1.36,1.36 0 0 1 1.36,-1.35 h 50.23 a 1.34,1.34 0 0 1 1.35,1.35 z m 119.12,266 a 1.36,1.36 0 0 1 -1.36,1.34 h -50.24 a 1.33,1.33 0 0 1 -1.34,-1.34 V 566.2 a 1.34,1.34 0 0 1 1.34,-1.35 h 50.24 a 1.37,1.37 0 0 1 1.36,1.35 z m 0,-44.34 a 1.36,1.36 0 0 1 -1.36,1.35 h -50.24 a 1.34,1.34 0 0 1 -1.34,-1.35 v -17.12 a 1.34,1.34 0 0 1 1.34,-1.35 h 50.24 a 1.36,1.36 0 0 1 1.36,1.35 z m 0,-44.33 a 1.37,1.37 0 0 1 -1.36,1.35 h -50.24 a 1.34,1.34 0 0 1 -1.34,-1.29 v -17.19 a 1.34,1.34 0 0 1 1.34,-1.35 h 50.24 a 1.37,1.37 0 0 1 1.36,1.35 z m 0,-44.34 a 1.36,1.36 0 0 1 -1.36,1.35 h -50.24 a 1.34,1.34 0 0 1 -1.34,-1.35 V 433.2 a 1.34,1.34 0 0 1 1.34,-1.35 h 50.24 a 1.36,1.36 0 0 1 1.36,1.35 z m 0,-44.33 a 1.37,1.37 0 0 1 -1.36,1.35 h -50.24 a 1.34,1.34 0 0 1 -1.34,-1.35 v -17.13 a 1.33,1.33 0 0 1 1.34,-1.34 h 50.24 a 1.36,1.36 0 0 1 1.36,1.34 z m 0,-44.33 a 1.36,1.36 0 0 1 -1.36,1.34 h -50.24 a 1.33,1.33 0 0 1 -1.34,-1.28 v -17.19 a 1.34,1.34 0 0 1 1.34,-1.35 h 50.24 a 1.37,1.37 0 0 1 1.36,1.35 z m 0,-44.34 a 1.36,1.36 0 0 1 -1.36,1.35 h -50.24 a 1.34,1.34 0 0 1 -1.34,-1.35 V 300.2 a 1.34,1.34 0 0 1 1.34,-1.35 h 50.24 a 1.36,1.36 0 0 1 1.36,1.35 z"
     id="path8"
     inkscape:connector-curvature="0"
     style="fill:#f2f2f2" />
  <ellipse
     cx="371.72501"
     cy="665.04803"
     rx="353.06955"
     ry="18.067371"
     id="ellipse14"
     style="fill:#51c9e7;fill-opacity:1;stroke-width:0.69255108" />
  <path
     d="m 653.39466,409.94 c -9.94,-17.22 -51,-12.15 -91.61,11.32 a 195.17,195.17 0 0 0 -20.38,13.51 176.65,176.65 0 0 0 -352.48,4.44 189.49,189.49 0 0 0 -26,-18 c -40.53,-23.42 -81.6,-28.49 -91.53,-11.27 -9.93,17.22 15,50.2 55.61,73.67 26.31,15.19 52.76,22.66 70.85,21.39 a 176.85,176.85 0 0 0 53.82,79 c -35.62,5 -61.81,21.66 -61.81,41.48 0,23.74 37.61,43 84,43 46.39,0 84,-19.26 84,-43 0,-0.06 0,-0.12 0,-0.19 q 3.74,0.16 7.51,0.17 3.77,0.01 7.51,-0.17 c 0,0.07 0,0.13 0,0.19 0,23.74 37.61,43 84,43 46.39,0 84,-19.26 84,-43 0,-19.82 -26.19,-36.49 -61.81,-41.48 a 176.82,176.82 0 0 0 53.78,-78.85 c 17.69,-0.46 41.4,-7.87 65,-21.5 40.62,-23.51 65.54,-56.5 55.54,-73.71 z"
     id="path16"
     inkscape:connector-curvature="0"
     style="fill:#b04027" />
  <path
     d="m 71.39466,418.94 c 9.94,-17.22 51,-12.15 91.61,11.32 a 189.25,189.25 0 0 1 25.61,17.64 c 0.39,-8.46 0.39,0.54 0.37,-8.7 a 189.58,189.58 0 0 0 -26,-17.94 c -40.59,-23.47 -81.66,-28.54 -91.59,-11.32 -2.19,3.79 -2.68,8.35 -1.69,13.4 a 16,16 0 0 1 1.69,-4.4 z"
     id="path18"
     inkscape:connector-curvature="0"
     style="opacity:0.1" />
  <path
     d="m 653.61466,418.94 c -9.94,-17.22 -51,-12.15 -91.62,11.32 -9.47,5.46 -13.08,7.46 -20.6,13.64 -0.4,-8.46 -0.4,0.54 -0.37,-8.7 7.6,-6.29 11.35,-8.38 21,-13.94 40.66,-23.47 81.68,-28.54 91.62,-11.32 2.19,3.79 2.68,8.35 1.69,13.4 a 16,16 0 0 0 -1.72,-4.4 z"
     id="path20"
     inkscape:connector-curvature="0"
     style="opacity:0.1" />
  <ellipse
     cx="318.02466"
     cy="414.54001"
     rx="18.32"
     ry="23.99"
     id="ellipse22"
     style="fill:#444053" />
  <ellipse
     cx="412.67465"
     cy="414.54001"
     rx="18.32"
     ry="23.99"
     id="ellipse24"
     style="fill:#444053" />
  <path
     d="m 479.19466,490 c 0,34.44 -57.53,92.46 -115.58,92.46 -58.05,0 -113.41,-59.33 -113.41,-93.74 0,-34.41 54.19,-3 112.19,-3 58,0 116.8,-30.17 116.8,4.28 z"
     id="path26"
     inkscape:connector-curvature="0"
     style="fill:#3f3d56" />
  <path
     d="m 268.50466,495.88 c 0,0 104.35,23.23 192,0.66 0,0 10.73,0 3.4,12.4 a 19.81,19.81 0 0 1 -8,7.52 c -16.9,8.63 -79.45,34.15 -179.47,1.61 a 19.68,19.68 0 0 1 -13.04,-13.35 c -1.14,-4.21 -0.63,-8.25 5.11,-8.84 z"
     id="path28"
     inkscape:connector-curvature="0"
     style="fill:#f6f8fb" />
  <path
     d="m 364.70466,295.55 a 176.64,176.64 0 0 1 176.32,166.17 q 0.5,-6.6 0.5,-13.33 a 176.65,176.65 0 0 0 -353.29,0 c 0,3.53 0.12,7 0.32,10.51 a 176.66,176.66 0 0 1 176.15,-163.35 z"
     id="path30"
     inkscape:connector-curvature="0"
     style="opacity:0.1" />
  <path
     d="m 384.63466,67.08 a 22.64,22.64 0 1 1 -45.28,0 c 0,-0.37 0,-0.73 0,-1.09 a 22.64,22.64 0 0 1 45.22,0 c 0.05,0.36 0.06,0.73 0.06,1.09 z"
     id="path32"
     inkscape:connector-curvature="0"
     style="fill:#3f3d56" />
  <path
     d="m 384.63466,67.08 a 22.64,22.64 0 1 1 -45.28,0 c 0,-0.37 0,-0.73 0,-1.09 a 35.74,35.74 0 0 1 45.22,0 c 0.05,0.36 0.06,0.73 0.06,1.09 z"
     id="path34"
     inkscape:connector-curvature="0"
     style="opacity:0.1" />
  <circle
     cx="361.99466"
     cy="95.68"
     r="35.75"
     id="circle36"
     style="fill:#3f3d56" />
  <path
     d="m 340.39466,62.08 a 22.65,22.65 0 0 1 19.64,-22.44 22.64,22.64 0 1 0 0,44.88 22.65,22.65 0 0 1 -19.64,-22.44 z"
     id="path38"
     inkscape:connector-curvature="0"
     style="fill:#3f3d56" />
  <path
     d="m 321.66466,110.19 a 22.64,22.64 0 0 1 -3.81,-29.58 22.64,22.64 0 1 0 31.79,32.11 21.75,21.75 0 0 0 1.84,-2.39 22.63,22.63 0 0 1 -29.82,-0.14 z"
     id="path40"
     inkscape:connector-curvature="0"
     style="fill:#3f3d56" />
  <path
     d="m 343.30466,141.01 c -1.78,0.6 -3.76,0.73 -5.29,1.81 -3,2.07 -2.87,6.46 -2,10 2,8 7,15.71 14.57,19 4.58,2 9.7,2.19 14.68,2.13 5.43,-0.06 11.54,-0.75 14.9,-5 1.67,-2.13 2.38,-4.83 3.05,-7.46 1.66,-6.5 3.33,-13.15 2.73,-19.83 -3.29,0.29 -7,0.48 -9.52,-1.59 -2.52,-2.07 -3.18,-6 -4.3,-9.29 a 2.34,2.34 0 0 0 -0.84,-1.32 2.56,2.56 0 0 0 -1.5,-0.23 59.24,59.24 0 0 1 -10.29,-0.51 c -2.13,-0.28 -7.37,-2.5 -9,-0.63 -1.17,1.37 -0.43,5.5 -1.32,7.41 a 10.36,10.36 0 0 1 -5.87,5.51 z"
     id="path42"
     inkscape:connector-curvature="0"
     style="fill:#ffc1c7" />
  <path
     d="m 343.30466,141.01 c -1.78,0.6 -3.76,0.73 -5.29,1.81 -3,2.07 -2.87,6.46 -2,10 2,8 7,15.71 14.57,19 4.58,2 9.7,2.19 14.68,2.13 5.43,-0.06 11.54,-0.75 14.9,-5 1.67,-2.13 2.38,-4.83 3.05,-7.46 1.66,-6.5 3.33,-13.15 2.73,-19.83 -3.29,0.29 -7,0.48 -9.52,-1.59 -2.52,-2.07 -3.18,-6 -4.3,-9.29 a 2.34,2.34 0 0 0 -0.84,-1.32 2.56,2.56 0 0 0 -1.5,-0.23 59.24,59.24 0 0 1 -10.29,-0.51 c -2.13,-0.28 -7.37,-2.5 -9,-0.63 -1.17,1.37 -0.43,5.5 -1.32,7.41 a 10.36,10.36 0 0 1 -5.87,5.51 z"
     id="path44"
     inkscape:connector-curvature="0"
     style="opacity:0.05" />
  <path
     d="m 156.55466,374.3 c -8,0.24 -16.17,-0.1 -24,1.66 a 6.15,6.15 0 0 0 -3.88,2 c -1.15,1.64 -0.54,3.93 0.41,5.7 a 17.71,17.71 0 0 0 10.12,8.41 c 4.76,1.52 9.89,0.94 14.87,1.1 a 49.74,49.74 0 0 1 19.62,4.72 c 1.4,0.66 2.88,1.4 4.41,1.17 2.21,-0.34 3.59,-2.55 4.41,-4.63 a 56.5,56.5 0 0 0 2.21,-7.67 c 1.16,-4.93 1.32,-14.67 -5.45,-16 -3.1,-0.6 -6.75,1.54 -9.73,2.16 a 72.41,72.41 0 0 1 -12.99,1.38 z"
     id="path46"
     inkscape:connector-curvature="0"
     style="fill:#444053" />
  <path
     d="m 566.56466,376.61 a 9.22,9.22 0 0 0 4.67,-3.58 c 3,-4.37 3,-9.59 4.59,-14.38 2,-6.23 6.43,-11.37 9.21,-17.3 a 35.77,35.77 0 0 0 3.34,-17 3,3 0 0 0 -3.51,-2.8 c -3.77,0.73 -7.19,3.46 -9.59,6.58 -3.09,4 -5.11,8.76 -8.28,12.71 -3.17,3.95 -7.62,7.12 -11.39,10.75 -4.73,4.56 -8.44,9.52 -4.22,15.44 3.43,4.86 8.17,11.88 15.18,9.58 z"
     id="path48"
     inkscape:connector-curvature="0"
     style="fill:#444053" />
  <path
     d="m 321.48466,245.66 a 321.29,321.29 0 0 1 -92,81.17 c -10.89,6.39 -22.25,12.19 -31.93,20.3 -7.34,6.16 -13.57,13.52 -19.76,20.84 a 5,5 0 0 0 -1.4,2.56 4.91,4.91 0 0 0 0.37,2.06 c 2,5.9 4.32,12.3 9.66,15.52 13.84,-20 41.34,-25.17 62.43,-37.27 9.8,-5.62 18.73,-12.6 27.77,-19.36 q 19.6,-14.67 40.07,-28.11 c 9.05,-5.94 18.37,-11.78 28.75,-14.87 22,-6.58 46,0 66.32,10.8 20.32,10.8 38.21,25.56 58.12,37.05 27.06,15.6 57.25,24.8 87.14,33.87 1.07,-7.18 1.72,-14.22 3.24,-21.32 -7.46,-1.05 -14.51,-4 -21.47,-6.89 -7.77,-3.24 -15.59,-6.52 -22.57,-11.23 -4.61,-3.12 -8.8,-6.84 -13.36,-10 -9.94,-7 -21.46,-11.4 -31.53,-18.19 -13.12,-8.84 -23.27,-21.35 -35.27,-31.66 -5.23,-4.49 -10.79,-8.56 -16.36,-12.62 -5.76,-4.21 -11.61,-8.46 -18.25,-11.07 -7.88,-3.11 -16.48,-3.75 -24.93,-4.35 -18.9,-1.4 -37.13,-3.26 -55.04,2.77 z"
     id="path50"
     inkscape:connector-curvature="0"
     style="fill:#575a89" />
  <circle
     cx="361.49466"
     cy="112.93"
     r="25"
     id="circle52"
     style="fill:#ffc1c7" />
  <path
     d="m 360.75466,165.06 a 30,30 0 0 1 -12.62,-4.6 18.38,18.38 0 0 1 -7.69,-10.74 c -0.81,-3.53 -0.36,-7.34 -1.78,-10.66 a 95.44,95.44 0 0 1 -14,5.68 c -2.71,0.85 -5.54,1.63 -7.74,3.42 -4.73,3.85 -5,10.85 -4.87,16.94 a 11.26,11.26 0 0 0 0.45,3.57 9,9 0 0 0 1.95,2.94 c 5.14,5.5 13.13,7.78 18,13.55 a 19.29,19.29 0 0 0 -4.71,10.16 35.89,35.89 0 0 1 -0.64,4.52 27.89,27.89 0 0 1 -1.47,3.59 c -3.16,7.2 -3.05,15.34 -3.53,23.18 -0.48,7.84 -1.84,16.19 -7.14,22 2.16,2.32 5,3 8.11,3.29 3.11,0.29 6.33,-0.12 9.5,0 8.36,0.24 16.25,3.66 24.31,5.89 8.06,2.23 17.21,3.14 24.34,-1.23 2.5,-1.53 4.62,-3.64 7.13,-5.15 3,-1.82 6.52,-2.69 10,-3.54 l 1.25,-41.76 a 70.94,70.94 0 0 1 0.63,-8.75 c 1.81,-11.42 9.1,-21.09 16.16,-30.24 a 27.67,27.67 0 0 0 -12.69,-20.6 54.36,54.36 0 0 0 -10,-4.64 l -8.22,-3.16 a 4.58,4.58 0 0 0 -2.34,-0.44 c -1.78,0.32 -2.46,2.49 -2.56,4.29 -0.16,2.84 0.26,5.69 0.16,8.53 -0.1,2.84 -0.81,5.84 -2.82,7.85 a 13.56,13.56 0 0 1 -5,2.84 c -4.2,1.6 -7.74,3.93 -12.17,3.27 z"
     id="path54"
     inkscape:connector-curvature="0"
     style="fill:#ff6584" />
  <path
     d="m 327.57466,269.72 c 0.33,5.57 0.66,11.2 -0.28,16.7 -0.94,5.5 -3.24,10.94 -7.42,14.64 -3.23,2.85 -7.77,5 -8.57,9.27 a 5,5 0 0 0 0.22,2.8 c 0.89,2.1 3.5,3.05 5.76,2.69 a 13.43,13.43 0 0 0 6,-3.14 132.54,132.54 0 0 0 9.94,-9 c 2.79,-2.71 5.68,-5.57 6.85,-9.28 a 22.91,22.91 0 0 0 0.81,-5.42 c 0.65,-10 0.82,-20 1,-30 0.12,-7.28 0.2,-14.79 -2.48,-21.56 0.4,1 -9.34,1.95 -10.08,2 -4.2,0.37 -3.4,2.1 -3.16,6.06 q 0.7,12.16 1.41,24.24 z"
     id="path56"
     inkscape:connector-curvature="0"
     style="fill:#ffc1c7" />
  <path
     d="m 400.39466,269.72 c -0.33,5.57 -0.66,11.2 0.28,16.7 0.94,5.5 3.24,10.94 7.42,14.64 3.23,2.85 7.77,5 8.57,9.27 a 5,5 0 0 1 -0.22,2.8 c -0.89,2.1 -3.5,3.05 -5.76,2.69 a 13.43,13.43 0 0 1 -6,-3.14 132.54,132.54 0 0 1 -9.94,-9 c -2.79,-2.71 -5.68,-5.57 -6.85,-9.28 a 22.91,22.91 0 0 1 -0.81,-5.42 c -0.65,-10 -0.82,-20 -1,-30 -0.12,-7.28 -0.2,-14.79 2.48,-21.56 -0.4,1 9.34,1.95 10.08,2 4.2,0.37 3.4,2.1 3.16,6.06 q -0.66,12.16 -1.41,24.24 z"
     id="path58"
     inkscape:connector-curvature="0"
     style="fill:#ffc1c7" />
  <path
     d="m 315.02466,161.42 c -3.53,10.42 -2.1,22 1.51,32.37 0.88,2.55 1.91,5.21 1.5,7.88 a 24.78,24.78 0 0 1 -1.24,4 18.94,18.94 0 0 0 -0.54,9.71 6.08,6.08 0 0 0 1.11,2.68 12.45,12.45 0 0 1 1,1.16 c 1.37,2.14 -1.32,4.79 -1,7.32 0.24,2.1 2.37,3.34 3.86,4.85 4.21,4.27 3.4,11.22 2.3,17.12 5.11,-0.45 9.52,-4.63 14.64,-4.29 a 8.76,8.76 0 0 1 7.54,5.81 c -0.19,-4.95 1.57,-9.17 2,-14.11 0.57,-6.43 -3.59,-12.19 -5.6,-18.31 -2.93,-8.92 -1.28,-18.61 -2,-28 a 93.56,93.56 0 0 0 -1.52,-10.39 c -0.91,-4.7 -2.24,-9.84 -6.22,-12.51 -5.13,-3.41 -12.85,-0.99 -17.34,-5.29 z"
     id="path60"
     inkscape:connector-curvature="0"
     style="opacity:0.1" />
  <path
     d="m 314.02466,159.42 c -3.53,10.42 -2.1,22 1.51,32.37 0.88,2.55 1.91,5.21 1.5,7.88 a 24.78,24.78 0 0 1 -1.24,4 18.94,18.94 0 0 0 -0.54,9.71 6.08,6.08 0 0 0 1.11,2.68 12.45,12.45 0 0 1 1,1.16 c 1.37,2.14 -1.32,4.79 -1,7.32 0.24,2.1 2.37,3.34 3.86,4.85 4.21,4.27 3.4,11.22 2.3,17.12 5.11,-0.45 9.52,-4.63 14.64,-4.29 a 8.76,8.76 0 0 1 7.54,5.81 c -0.19,-4.95 1.57,-9.17 2,-14.11 0.57,-6.43 -3.59,-12.19 -5.6,-18.31 -2.93,-8.92 -1.28,-18.61 -2,-28 a 93.56,93.56 0 0 0 -1.52,-10.39 c -0.91,-4.7 -2.24,-9.84 -6.22,-12.51 -5.13,-3.41 -12.85,-0.99 -17.34,-5.29 z"
     id="path62"
     inkscape:connector-curvature="0"
     style="fill:#ff6584" />
  <path
     d="m 412.97466,161.42 c 3.53,10.42 2.1,22 -1.51,32.37 -0.88,2.55 -1.91,5.21 -1.5,7.88 a 24.78,24.78 0 0 0 1.24,4 18.94,18.94 0 0 1 0.54,9.71 6.08,6.08 0 0 1 -1.11,2.68 12.45,12.45 0 0 0 -1,1.16 c -1.37,2.14 1.32,4.79 1,7.32 -0.24,2.1 -2.37,3.34 -3.86,4.85 -4.21,4.27 -3.4,11.22 -2.3,17.12 -5.11,-0.45 -9.52,-4.63 -14.64,-4.29 a 8.76,8.76 0 0 0 -7.54,5.81 c 0.19,-4.95 -1.57,-9.17 -2,-14.11 -0.57,-6.43 3.59,-12.19 5.6,-18.31 2.93,-8.92 1.28,-18.61 2,-28 a 93.56,93.56 0 0 1 1.5,-10.34 c 0.91,-4.7 2.24,-9.84 6.22,-12.51 5.15,-3.46 12.87,-1.04 17.36,-5.34 z"
     id="path64"
     inkscape:connector-curvature="0"
     style="opacity:0.1" />
  <path
     d="m 413.97466,159.42 c 3.53,10.42 2.1,22 -1.51,32.37 -0.88,2.55 -1.91,5.21 -1.5,7.88 a 24.78,24.78 0 0 0 1.24,4 18.94,18.94 0 0 1 0.54,9.71 6.08,6.08 0 0 1 -1.11,2.68 12.45,12.45 0 0 0 -1,1.16 c -1.37,2.14 1.32,4.79 1,7.32 -0.24,2.1 -2.37,3.34 -3.86,4.85 -4.21,4.27 -3.4,11.22 -2.3,17.12 -5.11,-0.45 -9.52,-4.63 -14.64,-4.29 a 8.76,8.76 0 0 0 -7.54,5.81 c 0.19,-4.95 -1.57,-9.17 -2,-14.11 -0.57,-6.43 3.59,-12.19 5.6,-18.31 2.93,-8.92 1.28,-18.61 2,-28 a 93.56,93.56 0 0 1 1.5,-10.34 c 0.91,-4.7 2.24,-9.84 6.22,-12.51 5.15,-3.46 12.87,-1.04 17.36,-5.34 z"
     id="path66"
     inkscape:connector-curvature="0"
     style="fill:#ff6584" />
  <ellipse
     cx="360.99466"
     cy="89.43"
     rx="30"
     ry="20"
     id="ellipse68"
     style="fill:#3f3d56" />
  <path
     d="m 335.99466,195.44 a 14,14 0 0 1 13,-14 c -0.33,0 -0.66,0 -1,0 a 14,14 0 0 0 0,28 c 0.34,0 0.67,0 1,-0.05 a 14,14 0 0 1 -13,-13.95 z"
     id="path70"
     inkscape:connector-curvature="0"
     style="opacity:0.05" />
  <ellipse
     cx="346.99466"
     cy="195.42999"
     rx="11"
     ry="14"
     id="ellipse72"
     style="fill:#ff6584" />
  <path
     d="m 392.99466,195.44 a 14,14 0 0 0 -13,-14 c 0.34,0 0.67,0 1,0 a 14,14 0 0 1 0,28 c -0.33,0 -0.66,0 -1,-0.05 a 14,14 0 0 0 13,-13.95 z"
     id="path74"
     inkscape:connector-curvature="0"
     style="opacity:0.05" />
  <ellipse
     cx="381.99466"
     cy="195.42999"
     rx="11"
     ry="14"
     id="ellipse76"
     style="fill:#ff6584" />
  <path
     d="m 360.99466,107.44 c -16.06,0 -29.18,-8.42 -30,-19 0,0.33 0,0.66 0,1 0,11 13.44,20 30,20 16.56,0 30,-9 30,-20 0,-0.34 0,-0.67 0,-1 -0.81,10.58 -13.93,19 -30,19 z"
     id="path78"
     inkscape:connector-curvature="0"
     style="opacity:0.1" />
  <path
     d="m 183.98466,39.13 -15.52,9.85 9.42,-17.14 a 15.35,15.35 0 0 0 -9.38,-3.35 h -0.25 a 18.09,18.09 0 0 1 -3.22,-0.23 l -5.26,3.33 2.25,-4.1 a 18.72,18.72 0 0 1 -9.2,-7 l -9.41,6 5.98,-10.83 c -5.5,-6.6 -12.92,-10.66 -21.09,-10.66 -9.79,0 -18.51,5.83 -24.14,14.9 a 18,18 0 0 1 -16,8.6 h -0.52 c -10.81,0 -19.57,12.26 -19.57,27.37 0,15.11 8.76,27.37 19.57,27.37 a 14.71,14.71 0 0 0 6.81,-1.7 c 7.05,-3.67 16.31,-3.74 23.69,-0.47 a 24.71,24.71 0 0 0 20.14,0 28.27,28.27 0 0 1 23.47,0.45 14.72,14.72 0 0 0 6.75,1.67 c 10.81,0 19.57,-12.25 19.57,-27.37 a 34.77,34.77 0 0 0 -4.09,-16.69 z"
     id="path80"
     inkscape:connector-curvature="0"
     style="fill:#f2f2f2" />
  <path
     d="m 154.73466,79.18 a 28.9,28.9 0 0 0 -16.77,1.83 24.69,24.69 0 0 1 -20.13,0 28.25,28.25 0 0 0 -23.69,0.46 14.6,14.6 0 0 1 -6.81,1.71 c -9.61,0 -17.59,-9.67 -19.26,-22.43 a 18.43,18.43 0 0 0 4.8,-5.18 c 5.63,-9.07 14.35,-14.89 24.14,-14.89 9.79,0 18.41,5.75 24,14.73 a 18.52,18.52 0 0 0 15.95,8.76 h 0.25 c 7.68,-0.05 14.3,6.08 17.52,15.01 z"
     id="path82"
     inkscape:connector-curvature="0"
     style="opacity:0.02999998" />
  <path
     d="m 713.96466,210.72 -7.74,4.91 4.7,-8.54 a 7.64,7.64 0 0 0 -4.69,-1.67 h -0.12 a 9.62,9.62 0 0 1 -1.61,-0.12 l -2.62,1.66 1.12,-2 a 9.4,9.4 0 0 1 -4.59,-3.49 l -4.69,3 3,-5.39 a 13.75,13.75 0 0 0 -10.56,-5.36 c -4.88,0 -9.23,2.91 -12,7.43 a 9,9 0 0 1 -8,4.29 h -0.26 c -5.39,0 -9.76,6.11 -9.76,13.65 0,7.54 4.37,13.63 9.76,13.63 a 7.32,7.32 0 0 0 3.4,-0.85 14.1,14.1 0 0 1 11.82,-0.23 12.31,12.31 0 0 0 10,0 14.08,14.08 0 0 1 11.71,0.23 7.29,7.29 0 0 0 3.36,0.83 c 5.39,0 9.76,-6.11 9.76,-13.65 a 17.42,17.42 0 0 0 -1.99,-8.33 z"
     id="path84"
     inkscape:connector-curvature="0"
     style="fill:#f2f2f2" />
  <path
     d="m 699.39466,230.72 a 14.44,14.44 0 0 0 -8.37,0.91 12.28,12.28 0 0 1 -5,1.06 12.41,12.41 0 0 1 -5,-1.08 14,14 0 0 0 -11.81,0.23 7.35,7.35 0 0 1 -3.4,0.85 c -4.79,0 -8.78,-4.83 -9.61,-11.19 a 9.25,9.25 0 0 0 2.4,-2.58 c 2.8,-4.53 7.15,-7.43 12,-7.43 4.85,0 9.18,2.87 12,7.35 a 9.24,9.24 0 0 0 8,4.37 h 0.13 c 3.73,0 7.03,3.05 8.66,7.51 z"
     id="path86"
     inkscape:connector-curvature="0"
     style="opacity:0.02999998" />
  <path
     d="m 555.12466,96.72 12.44,7.89 -7.55,-13.73 a 12.29,12.29 0 0 1 7.52,-2.69 h 0.2 a 14.8,14.8 0 0 0 2.58,-0.2 l 4.21,2.68 -1.8,-3.29 a 15,15 0 0 0 7.37,-5.66 l 7.54,4.78 -4.76,-8.66 c 4.41,-5.3 10.35,-8.55 16.9,-8.55 7.84,0 14.83,4.67 19.34,11.94 a 14.46,14.46 0 0 0 12.78,6.89 h 0.43 c 8.66,0 15.67,9.82 15.67,21.93 0,12.11 -7,21.93 -15.67,21.93 a 11.81,11.81 0 0 1 -5.47,-1.36 22.61,22.61 0 0 0 -19,-0.38 19.79,19.79 0 0 1 -16.14,0 22.62,22.62 0 0 0 -18.81,0.37 11.78,11.78 0 0 1 -5.4,1.33 c -8.66,0 -15.68,-9.82 -15.68,-21.93 a 27.84,27.84 0 0 1 3.3,-13.29 z"
     id="path88"
     inkscape:connector-curvature="0"
     style="fill:#f2f2f2" />
  <path
     d="m 578.56466,128.72 a 23.11,23.11 0 0 1 13.43,1.46 19.79,19.79 0 0 0 16.14,0 22.65,22.65 0 0 1 19,0.37 11.76,11.76 0 0 0 5.47,1.37 c 7.69,0 14.09,-7.75 15.42,-18 a 14.94,14.94 0 0 1 -3.84,-4.15 c -4.51,-7.27 -11.5,-11.93 -19.35,-11.93 -7.85,0 -14.74,4.61 -19.25,11.8 a 14.85,14.85 0 0 1 -12.78,7 h -0.2 c -6.16,0.08 -11.46,4.96 -14.04,12.08 z"
     id="path90"
     inkscape:connector-curvature="0"
     style="opacity:0.02999998" />
  <path
     d="m 80.39466,658.89 c -4.13,-7.64 0.55,-17 5.93,-23.81 5.38,-6.81 11.95,-13.91 11.81,-22.59 -0.2,-12.48 -13.45,-19.85 -24,-26.46 a 117,117 0 0 1 -21.56,-17.31 31.49,31.49 0 0 1 -6.63,-8.87 c -2.19,-4.88 -2.13,-10.43 -2,-15.78 q 0.69,-26.7 2.64,-53.36"
     stroke-miterlimit="10"
     id="path92"
     inkscape:connector-curvature="0"
     style="fill:none;stroke:#3f3d56;stroke-width:4;stroke-miterlimit:10" />
  <path
     d="m 26.47466,489.72 a 19.41,19.41 0 0 1 9.72,-16 l 4.35,8.61 -0.15,-10.39 a 19.2,19.2 0 0 1 6.41,-0.77 19.46,19.46 0 1 1 -20.33,18.55 z"
     id="path94"
     inkscape:connector-curvature="0"
     style="fill:#57b894" />
  <path
     d="m 61.18466,621.41 a 19.46,19.46 0 1 0 -0.94,-15.67 l 12.15,9.89 -13.37,-3.1 a 19.17,19.17 0 0 0 2.16,8.88 z"
     id="path96"
     inkscape:connector-curvature="0"
     style="fill:#57b894" />
  <path
     d="m 70.79466,583.63 a 19.46,19.46 0 0 0 6.17,-38.18 l 0.1,8 -4.41,-8.73 h -0.05 a 19.47,19.47 0 1 0 -1.81,38.89 z"
     id="path98"
     inkscape:connector-curvature="0"
     style="fill:#57b894" />
  <path
     d="m 23.55466,552.19 a 19.46,19.46 0 1 0 -8.61,-36.42 l 3.44,9.43 -7.07,-6.8 a 19.38,19.38 0 0 0 -6.2900002,13.44 19,19 0 0 0 0.49,5.36 19.45,19.45 0 0 0 18.0400002,14.99 z"
     id="path100"
     inkscape:connector-curvature="0"
     style="fill:#57b894" />
  <path
     d="m 29.09466,494.88 c 4.49,0.5 8.86,1.89 13.37,2.17 4.51,0.28 9.45,-0.8 12.3,-4.3 1.54,-1.89 2.31,-4.28 3.61,-6.33 a 13.82,13.82 0 0 1 4.9,-4.62 19.46,19.46 0 1 1 -36.38,12.92 c 0.73,0 1.5,0.08 2.2,0.16 z"
     id="path102"
     inkscape:connector-curvature="0"
     style="opacity:0.1" />
  <path
     d="m 23.55466,552.19 a 19.47,19.47 0 0 0 18.51,-27.76 14.34,14.34 0 0 0 -3.92,3.92 c -1.38,2.09 -2.22,4.51 -3.85,6.43 -3,3.56 -8.21,4.73 -12.91,4.51 -4.7,-0.22 -9.23,-1.54 -13.9100002,-2 -0.64,-0.06 -1.3,-0.1 -2,-0.12 A 19.45,19.45 0 0 0 23.55466,552.19 Z"
     id="path104"
     inkscape:connector-curvature="0"
     style="opacity:0.1" />
  <path
     d="m 70.79466,583.63 a 19.46,19.46 0 0 0 18.67,-27.4 15.67,15.67 0 0 0 -4.12,4 c -1.51,2.14 -2.45,4.59 -4.22,6.56 -3.29,3.66 -8.8,5 -13.78,4.83 -4.82,-0.1 -9.46,-1.29 -14.25,-1.65 a 19.48,19.48 0 0 0 17.7,13.66 z"
     id="path106"
     inkscape:connector-curvature="0"
     style="opacity:0.1" />
  <path
     d="m 61.18466,621.41 a 19.46,19.46 0 0 0 35.47,-15.88 19.57,19.57 0 0 0 -4.27,3.81 c -1.85,2.26 -3.07,4.81 -5.21,6.91 -4,3.91 -10.4,5.52 -16.12,5.67 a 84.94,84.94 0 0 1 -9.87,-0.51 z"
     id="path108"
     inkscape:connector-curvature="0"
     style="opacity:0.1" />
  <path
     d="m 656.89466,651.36 c -3,-5.64 0.41,-12.56 4.39,-17.59 3.98,-5.03 8.82,-10.27 8.71,-16.68 -0.14,-9.22 -9.93,-14.66 -17.74,-19.55 a 86.29,86.29 0 0 1 -15.94,-12.82 23.55,23.55 0 0 1 -4.9,-6.56 c -1.61,-3.6 -1.57,-7.7 -1.47,-11.65 q 0.51,-19.72 2,-39.42"
     stroke-miterlimit="10"
     id="path110"
     inkscape:connector-curvature="0"
     style="fill:none;stroke:#3f3d56;stroke-width:4;stroke-miterlimit:10" />
  <path
     d="m 617.03466,526.38 a 14.4,14.4 0 0 1 7.18,-11.78 l 3.22,6.37 -0.1,-7.71 a 14.59,14.59 0 0 1 4.74,-0.57 14.38,14.38 0 1 1 -15,13.69 z"
     id="path112"
     inkscape:connector-curvature="0"
     style="fill:#57b894" />
  <path
     d="m 642.67466,623.72 a 14.37,14.37 0 1 0 -0.7,-11.57 l 9,7.31 -9.87,-2.29 a 14.21,14.21 0 0 0 1.57,6.55 z"
     id="path114"
     inkscape:connector-curvature="0"
     style="fill:#57b894" />
  <path
     d="m 649.77466,595.72 a 14.38,14.38 0 0 0 15,-13.69 14.19,14.19 0 0 0 -1.24,-6.54 14.41,14.41 0 0 0 -9.23,-8 l 0.07,5.93 -3.25,-6.45 v 0 a 14.390839,14.390839 0 1 0 -1.35,28.75 z"
     id="path116"
     inkscape:connector-curvature="0"
     style="fill:#57b894" />
  <path
     d="m 614.87466,572.54 a 14.38,14.38 0 1 0 -6.35,-26.9 l 2.54,7 -5.23,-5 a 14.28,14.28 0 0 0 -4.64,9.92 14,14 0 0 0 0.36,4 14.37,14.37 0 0 0 13.32,10.98 z"
     id="path118"
     inkscape:connector-curvature="0"
     style="fill:#57b894" />
  <path
     d="m 618.97466,530.21 c 3.31,0.37 6.54,1.4 9.87,1.61 3.33,0.21 7,-0.6 9.09,-3.18 1.14,-1.4 1.71,-3.16 2.66,-4.68 a 10.28,10.28 0 0 1 3.62,-3.41 14.37,14.37 0 0 1 -13.49,20.87 14.4,14.4 0 0 1 -13.33,-11.33 c 0.49,0.02 1,0.06 1.58,0.12 z"
     id="path120"
     inkscape:connector-curvature="0"
     style="opacity:0.1" />
  <path
     d="m 614.87466,572.54 a 14.39,14.39 0 0 0 13.68,-20.5 10.78,10.78 0 0 0 -2.9,2.89 c -1,1.55 -1.64,3.33 -2.84,4.75 -2.24,2.63 -6.07,3.5 -9.54,3.34 -3.47,-0.16 -6.81,-1.15 -10.27,-1.46 -0.48,-0.05 -1,-0.08 -1.45,-0.09 a 14.37,14.37 0 0 0 13.32,11.07 z"
     id="path122"
     inkscape:connector-curvature="0"
     style="opacity:0.1" />
  <path
     d="m 649.77466,595.72 a 14.38,14.38 0 0 0 15,-13.69 14.19,14.19 0 0 0 -1.24,-6.54 11.58,11.58 0 0 0 -3,2.92 c -1.12,1.57 -1.81,3.39 -3.12,4.84 -2.43,2.7 -6.5,3.66 -10.18,3.57 -3.68,-0.09 -7,-0.95 -10.52,-1.22 a 14.36,14.36 0 0 0 13.06,10.12 z"
     id="path124"
     inkscape:connector-curvature="0"
     style="opacity:0.1" />
  <path
     d="m 642.67466,623.72 a 14.38,14.38 0 0 0 26.21,-11.72 14.26,14.26 0 0 0 -3.16,2.81 c -1.37,1.67 -2.27,3.55 -3.85,5.11 -2.94,2.88 -7.68,4.07 -11.9,4.18 a 60.9,60.9 0 0 1 -7.3,-0.38 z"
     id="path126"
     inkscape:connector-curvature="0"
     style="opacity:0.1" />
  <path
     d="m 573.49466,658.59 c 4.13,-7.64 -0.55,-17 -5.93,-23.81 -5.38,-6.81 -12,-13.91 -11.81,-22.59 0.2,-12.48 13.45,-19.85 24,-26.46 a 117,117 0 0 0 21.57,-17.31 31.49,31.49 0 0 0 6.63,-8.87 c 2.19,-4.88 2.13,-10.43 2,-15.78 q -0.63,-26.74 -2.63,-53.35"
     stroke-miterlimit="10"
     id="path128"
     inkscape:connector-curvature="0"
     style="fill:none;stroke:#3f3d56;stroke-width:4;stroke-miterlimit:10" />
  <path
     d="m 627.45466,489.42 a 19.44,19.44 0 0 0 -9.72,-16 l -4.36,8.62 0.14,-10.43 a 19.23,19.23 0 0 0 -6.41,-0.77 19.46,19.46 0 1 0 20.35,18.58 z"
     id="path130"
     inkscape:connector-curvature="0"
     style="fill:#57b894" />
  <path
     d="m 592.74466,621.11 a 19.46,19.46 0 1 1 0.94,-15.67 l -12.15,9.89 13.37,-3.1 a 19.17,19.17 0 0 1 -2.16,8.88 z"
     id="path132"
     inkscape:connector-curvature="0"
     style="fill:#57b894" />
  <path
     d="m 583.13466,583.33 a 19.46,19.46 0 0 1 -6.17,-38.18 l -0.1,8 4.46,-8.73 v 0 a 19.47,19.47 0 1 1 1.81,38.89 z"
     id="path134"
     inkscape:connector-curvature="0"
     style="fill:#57b894" />
  <path
     d="m 630.37466,551.89 a 19.46,19.46 0 1 1 8.61,-36.42 l -3.44,9.43 7.07,-6.8 a 19.46,19.46 0 0 1 -12.24,33.79 z"
     id="path136"
     inkscape:connector-curvature="0"
     style="fill:#57b894" />
  <path
     d="m 624.83466,494.58 c -4.49,0.5 -8.86,1.89 -13.37,2.17 -4.51,0.28 -9.45,-0.8 -12.3,-4.3 -1.54,-1.89 -2.31,-4.28 -3.61,-6.33 a 13.82,13.82 0 0 0 -4.9,-4.62 19.46,19.46 0 1 0 36.38,12.92 c -0.71,0 -1.47,0.08 -2.2,0.16 z"
     id="path138"
     inkscape:connector-curvature="0"
     style="opacity:0.1" />
  <path
     d="m 630.37466,551.89 a 19.47,19.47 0 0 1 -18.51,-27.76 14.34,14.34 0 0 1 3.92,3.92 c 1.38,2.09 2.22,4.51 3.85,6.43 3,3.56 8.21,4.73 12.91,4.51 4.7,-0.22 9.23,-1.54 13.91,-2 0.64,-0.06 1.3,-0.1 2,-0.12 a 19.45,19.45 0 0 1 -18.08,15.02 z"
     id="path140"
     inkscape:connector-curvature="0"
     style="opacity:0.1" />
  <path
     d="m 583.13466,583.33 a 19.46,19.46 0 0 1 -18.67,-27.4 15.67,15.67 0 0 1 4.12,4 c 1.51,2.14 2.45,4.59 4.22,6.56 3.29,3.66 8.8,5 13.78,4.83 4.82,-0.1 9.46,-1.29 14.25,-1.65 a 19.48,19.48 0 0 1 -17.7,13.66 z"
     id="path142"
     inkscape:connector-curvature="0"
     style="opacity:0.1" />
  <path
     d="m 592.74466,621.11 a 19.46,19.46 0 0 1 -35.42,-15.88 19.57,19.57 0 0 1 4.27,3.81 c 1.85,2.26 3.07,4.81 5.21,6.91 4,3.91 10.4,5.52 16.12,5.67 a 84.94,84.94 0 0 0 9.82,-0.51 z"
     id="path144"
     inkscape:connector-curvature="0"
     style="opacity:0.1" />
  <path
     d="m 50.22466,653.1 c 0,0 15.35,-0.48 20,-3.77 4.65,-3.29 23.63,-7.23 24.78,-2 1.15,5.23 23.08,26.29 5.74,26.43 -17.34,0.14 -40.29,-2.7 -44.91,-5.51 -4.62,-2.81 -5.61,-15.15 -5.61,-15.15 z"
     id="path146"
     inkscape:connector-curvature="0"
     style="fill:#656380" />
  <path
     d="m 101.03466,671.97 c -17.34,0.14 -40.29,-2.7 -44.91,-5.51 -3.52,-2.14 -4.92,-9.83 -5.39,-13.38 h -0.51 c 0,0 1,12.38 5.59,15.2 4.59,2.82 27.57,5.65 44.91,5.51 5,0 6.73,-1.82 6.64,-4.45 -0.7,1.61 -2.6,2.6 -6.33,2.63 z"
     id="path148"
     inkscape:connector-curvature="0"
     style="opacity:0.2" />
  <path
     d="m 638.39466,651.2 c 0,0 9,-0.27 11.67,-2.2 2.67,-1.93 13.79,-4.22 14.46,-1.13 0.67,3.09 13.47,15.34 3.35,15.42 -10.12,0.08 -23.52,-1.57 -26.22,-3.22 -2.7,-1.65 -3.26,-8.87 -3.26,-8.87 z"
     id="path150"
     inkscape:connector-curvature="0"
     style="fill:#656380" />
  <path
     d="m 668.01466,662.22 c -10.12,0.08 -23.52,-1.58 -26.22,-3.22 -2,-1.25 -2.87,-5.74 -3.14,-7.81 h -0.26 c 0,0 0.57,7.23 3.26,8.87 2.69,1.64 16.1,3.31 26.22,3.22 2.92,0 3.93,-1.06 3.87,-2.6 -0.44,0.94 -1.56,1.52 -3.73,1.54 z"
     id="path152"
     inkscape:connector-curvature="0"
     style="opacity:0.2" />
  <path
     d="m 544.15466,649.8 c 0,0 15.35,-0.48 20,-3.77 4.65,-3.29 23.63,-7.23 24.78,-2 1.15,5.23 23.08,26.29 5.74,26.43 -17.34,0.14 -40.29,-2.7 -44.91,-5.51 -4.62,-2.81 -5.61,-15.15 -5.61,-15.15 z"
     id="path154"
     inkscape:connector-curvature="0"
     style="fill:#656380" />
  <path
     d="m 594.96466,668.67 c -17.34,0.14 -40.29,-2.7 -44.91,-5.51 -3.52,-2.14 -4.92,-9.83 -5.39,-13.38 h -0.51 c 0,0 1,12.38 5.59,15.2 4.59,2.82 27.57,5.65 44.91,5.51 5,0 6.73,-1.82 6.64,-4.45 -0.7,1.61 -2.6,2.6 -6.33,2.63 z"
     id="path156"
     inkscape:connector-curvature="0"
     style="opacity:0.2" />
</svg>
