<?xml version="1.0" encoding="UTF-8" standalone="no"?>
<svg
   xmlns:dc="http://purl.org/dc/elements/1.1/"
   xmlns:cc="http://creativecommons.org/ns#"
   xmlns:rdf="http://www.w3.org/1999/02/22-rdf-syntax-ns#"
   xmlns:svg="http://www.w3.org/2000/svg"
   xmlns="http://www.w3.org/2000/svg"
   xmlns:xlink="http://www.w3.org/1999/xlink"
   xmlns:sodipodi="http://sodipodi.sourceforge.net/DTD/sodipodi-0.dtd"
   xmlns:inkscape="http://www.inkscape.org/namespaces/inkscape"
   id="b6b21c14-e7c7-4824-8aee-a7e7fb4354e1"
   data-name="Layer 1"
   width="870.98956"
   height="820.98346"
   viewBox="0 0 870.9896 820.98347"
   version="1.1"
   sodipodi:docname="undraw_making_art_759c.svg"
   inkscape:version="0.92.5 (2060ec1f9f, 2020-04-08)">
  <metadata
     id="metadata465">
    <rdf:RDF>
      <cc:Work
         rdf:about="">
        <dc:format>image/svg+xml</dc:format>
        <dc:type
           rdf:resource="http://purl.org/dc/dcmitype/StillImage" />
        <dc:title>making art</dc:title>
      </cc:Work>
    </rdf:RDF>
  </metadata>
  <sodipodi:namedview
     pagecolor="#ffffff"
     bordercolor="#666666"
     borderopacity="1"
     objecttolerance="10"
     gridtolerance="10"
     guidetolerance="10"
     inkscape:pageopacity="0"
     inkscape:pageshadow="2"
     inkscape:window-width="1920"
     inkscape:window-height="1047"
     id="namedview463"
     showgrid="false"
     fit-margin-top="5"
     fit-margin-left="5"
     fit-margin-right="5"
     fit-margin-bottom="5"
     inkscape:zoom="1.1640094"
     inkscape:cx="341.34425"
     inkscape:cy="358.17408"
     inkscape:window-x="0"
     inkscape:window-y="33"
     inkscape:window-maximized="0"
     inkscape:current-layer="g3990" />
  <defs
     id="defs16">
    <linearGradient
       id="e166b746-489b-40ec-b044-481417f87da8"
       x1="430.01999"
       y1="841.28003"
       x2="430.01999"
       y2="145.5"
       gradientUnits="userSpaceOnUse">
      <stop
         offset="0"
         stop-color="gray"
         stop-opacity="0.25"
         id="stop2" />
      <stop
         offset="0.54"
         stop-color="gray"
         stop-opacity="0.12"
         id="stop4" />
      <stop
         offset="1"
         stop-color="gray"
         stop-opacity="0.1"
         id="stop6" />
    </linearGradient>
    <linearGradient
       id="fb002706-ca86-4a39-b11f-6baa546b4cba"
       x1="612.52002"
       y1="436.01999"
       x2="612.52002"
       y2="230.97"
       xlink:href="#e166b746-489b-40ec-b044-481417f87da8" />
    <radialGradient
       id="bfe43627-fb64-451a-a60b-63ec0f3e2f01"
       cx="626.91998"
       cy="274.41"
       r="10.14"
       gradientUnits="userSpaceOnUse">
      <stop
         offset="0"
         stop-color="#fff"
         id="stop10" />
      <stop
         offset="1"
         id="stop12" />
    </radialGradient>
    <radialGradient
       id="e811d1d0-4999-4f48-8b1f-72c39353b589"
       cx="1932.92"
       cy="274.41"
       r="10.14"
       gradientTransform="matrix(-1,0,0,1,2529,0)"
       xlink:href="#bfe43627-fb64-451a-a60b-63ec0f3e2f01" />
  </defs>
  <title
     id="title18">making art</title>
  <path
     d="m 270.83506,34.66347 c 29.21,-25.9999997 75.07,-31.3299997 116.8,-29.2599997 131.09,6.5099997 249.41999,69.7999997 351.82999,141.3899997 37.06,25.91 73.54,53.84 97.59,89.53 49,72.64 34.44,173.28 -33.64,233.13 -23.17,20.36 -51.25,36 -80.08,49.81 -51.26,24.61 -106.57,44.36 -164.74,50 -41.48999,4 -83.48999,0.75 -124.72999,-4.85 -115.29,-15.64 -228.4,-50.2 -323.2,-109.33 -41.589997,-25.93 -80.779997,-58.17 -97.919997,-100.12 -17.1399995,-41.95 -6.1699995,-95.11 36.29,-119.94 17.56,-10.27 38.56,-14.91 59.109997,-19.26 30.26,-6.41 61,-12.73 88.31,-25.77 28.2,-13.46 61.59,-39.49 56,-69.28 -5.99,-31.97 -10.79,-60.05 18.38,-86.05 z"
     id="path20"
     inkscape:connector-curvature="0"
     style="opacity:0.1;fill:#b04027" />
  <path
     d="m 680.05505,240.19347 c 0,0 -10.58,-4.29 -44.24,11.14 -33.66,15.43 -37.86,13.48 -46.57,11.16 -8.71,-2.32 -13.57,-2.92 -22.91,-15.81 0,0 -6.59,-35.71 -13,-41.25 -6.41,-5.54 -33.46999,3.16 -33.46999,3.16 0,0 -32.49,7.45 -38.68,-36 0,0 4.39,-32.72 -1.59,-42.76 0,0 12.08,5.2 32,-3.2 19.91999,-8.4 35.86999,9.05 35.86999,9.05 0,0 5,13 4.5,20.76 -0.5,7.76 2.66,10.67 12.16,6.92 0,0 4.67,-6.64 -1.94,-17.62 -6.61,-10.98 -11.33,-19.15 -9.49,-27.67 1.84,-8.52 7.15,-20.35 24.2,-26.26 17.05,-5.91 40.2,-7 51.31,-11.67 11.11,-4.67 13.85,-7.65 13.85,-7.65 0,0 -6.84,6.85 9.27,35.9 16.11,29.05 5.84,41.65 5.84,41.65 0,0 -8.57,20.43 -46.41,18.77 0,0 -36.46,1.33 -16.58,16.79 0,0 12.73,-2.59 31.76,-8.64 19.03,-6.05 32.77,18.92 36.18,36.29 3.41,17.37 17.94,26.94 17.94,26.94 z"
     id="path22"
     inkscape:connector-curvature="0"
     style="fill:#b04027" />
  <path
     d="m 631.04505,94.49347 0.2,-0.06 c 1.46,5.54 -14.83,27.82 -28.76,45.53 l -0.16,-0.13 c 19.64,-24.94 29.85,-41.05 28.72,-45.34 z"
     id="path24"
     inkscape:connector-curvature="0"
     style="fill:#444053" />
  <path
     d="m 602.60505,139.49347 0.09,0.22 c -11.13,14.14 -25.12,31 -36.32,43.53 -1.07,1.19 -2.13,2.44 -3.15,3.72 l -0.32,-0.26 c 1,-1.28 2.09,-2.54 3.16,-3.73 11.19,-12.48 25.4,-29.33 36.54,-43.48 z"
     id="path26"
     inkscape:connector-curvature="0"
     style="fill:#444053" />
  <path
     d="m 563.17505,186.38347 0.22,0.38 c -20.38,25.45 -21.73,65 -21.78,65.31 l -4.3,-5 c 0.05,-0.32 5.34,-35.06 25.86,-60.69 z"
     id="path28"
     inkscape:connector-curvature="0"
     style="fill:#444053" />
  <path
     d="m 656.46505,226.39347 c 0,0 -24,-12.5 -42.76,-8 -18.76,4.5 -60.95,-15.9 -60.95,-15.9 0,0 -17.9,-7.27 -21.5,-15.56 0,0 -12.28999,-13 -12.99999,-19.71 -0.71,-6.71 -12.66,-23.62 -20.46,-24.27"
     stroke-miterlimit="10"
     id="path30"
     inkscape:connector-curvature="0"
     style="fill:none;stroke:#444053;stroke-miterlimit:10" />
  <path
     d="m 652.93505,238.42347 c 0,0 -12.1,-8.16 -10.69,-17.66"
     stroke-miterlimit="10"
     id="path32"
     inkscape:connector-curvature="0"
     style="fill:none;stroke:#444053;stroke-miterlimit:10" />
  <path
     d="m 634.37505,248.95347 c 0,0 -17.31,-6.28 -19,-30.92"
     stroke-miterlimit="10"
     id="path34"
     inkscape:connector-curvature="0"
     style="fill:none;stroke:#444053;stroke-miterlimit:10" />
  <path
     d="m 606.46505,255.33347 c 0,0 -16.54,-13.72 -11.05,-37.7"
     stroke-miterlimit="10"
     id="path36"
     inkscape:connector-curvature="0"
     style="fill:none;stroke:#444053;stroke-miterlimit:10" />
  <path
     d="m 572.87505,248.63347 c 0,0 -11,-23.1 -1.21,-38.13"
     stroke-miterlimit="10"
     id="path38"
     inkscape:connector-curvature="0"
     style="fill:none;stroke:#444053;stroke-miterlimit:10" />
  <path
     d="m 656.69505,211.16347 c 0,0 -12.51,4 -9.83,10.56"
     stroke-miterlimit="10"
     id="path40"
     inkscape:connector-curvature="0"
     style="fill:none;stroke:#444053;stroke-miterlimit:10" />
  <path
     d="m 641.59505,188.49347 c 0,0 -16.75,5.31 -17.14,29"
     stroke-miterlimit="10"
     id="path42"
     inkscape:connector-curvature="0"
     style="fill:none;stroke:#444053;stroke-miterlimit:10" />
  <path
     d="m 618.23505,182.97347 c 0,0 -15.25,18.82 -14.13,35.92"
     stroke-miterlimit="10"
     id="path44"
     inkscape:connector-curvature="0"
     style="fill:none;stroke:#444053;stroke-miterlimit:10" />
  <path
     d="m 591.53505,190.35347 c 0,0 -15.14,14.48 -13.21,22.53"
     stroke-miterlimit="10"
     id="path46"
     inkscape:connector-curvature="0"
     style="fill:none;stroke:#444053;stroke-miterlimit:10" />
  <path
     d="m 582.40505,185.24347 c 0,0 -14.2,2.54 -16.19,-2.12"
     stroke-miterlimit="10"
     id="path48"
     inkscape:connector-curvature="0"
     style="fill:none;stroke:#444053;stroke-miterlimit:10" />
  <path
     d="m 563.95505,168.10347 c 0,0 7.17,9.5 9,7.37"
     stroke-miterlimit="10"
     id="path50"
     inkscape:connector-curvature="0"
     style="fill:none;stroke:#444053;stroke-miterlimit:10" />
  <path
     d="m 635.07505,162.09347 c 0,0 -35.8,2.6 -43.9,-8.2"
     stroke-miterlimit="10"
     id="path52"
     inkscape:connector-curvature="0"
     style="fill:none;stroke:#444053;stroke-miterlimit:10" />
  <path
     d="m 556.46505,120.22347 c 0,0 16.79,36.05 29,40.64"
     stroke-miterlimit="10"
     id="path54"
     inkscape:connector-curvature="0"
     style="fill:none;stroke:#444053;stroke-miterlimit:10" />
  <path
     d="m 574.04505,103.05347 c 0,0 10.31,33.16 23.09,43.51"
     stroke-miterlimit="10"
     id="path56"
     inkscape:connector-curvature="0"
     style="fill:none;stroke:#444053;stroke-miterlimit:10" />
  <path
     d="m 650.13505,134.72347 c 0,0 -27.22,11.68 -43.56,-0.14"
     stroke-miterlimit="10"
     id="path58"
     inkscape:connector-curvature="0"
     style="fill:none;stroke:#444053;stroke-width:0.75;stroke-miterlimit:10" />
  <path
     d="m 598.28505,95.98347 c 0,0 6.22,24.37 14.6,30.26"
     stroke-miterlimit="10"
     id="path60"
     inkscape:connector-curvature="0"
     style="fill:none;stroke:#444053;stroke-width:0.75;stroke-miterlimit:10" />
  <path
     d="m 646.02505,107.41347 c 0,0 -15.3,5.8 -21,1.36"
     stroke-miterlimit="10"
     id="path62"
     inkscape:connector-curvature="0"
     style="fill:none;stroke:#444053;stroke-width:0.75;stroke-miterlimit:10" />
  <path
     d="m 550.84505,176.06347 c 0,0 0,21.25 -5.78,22.76"
     stroke-miterlimit="10"
     id="path64"
     inkscape:connector-curvature="0"
     style="fill:none;stroke:#444053;stroke-miterlimit:10" />
  <path
     d="m 503.55506,203.59347 c 0,0 23,2 33.56999,-9.89"
     stroke-miterlimit="10"
     id="path66"
     inkscape:connector-curvature="0"
     style="fill:none;stroke:#444053;stroke-miterlimit:10" />
  <path
     d="m 544.92505,150.96347 c 0,0 -5.56,21.55 -20.89999,27.36"
     stroke-miterlimit="10"
     id="path68"
     inkscape:connector-curvature="0"
     style="fill:none;stroke:#444053;stroke-miterlimit:10" />
  <path
     d="m 489.77506,180.89347 c 0,0 16.26,5.65 30.25,-8.74"
     stroke-miterlimit="10"
     id="path70"
     inkscape:connector-curvature="0"
     style="fill:none;stroke:#444053;stroke-miterlimit:10" />
  <path
     d="m 526.83506,132.43347 c 0,0 -1.53,18.3 -11.48,26.87"
     stroke-miterlimit="10"
     id="path72"
     inkscape:connector-curvature="0"
     style="fill:none;stroke:#444053;stroke-miterlimit:10" />
  <path
     d="m 490.39506,153.00347 c 0,0 13.49,0.09 16.65,-4.31"
     stroke-miterlimit="10"
     id="path74"
     inkscape:connector-curvature="0"
     style="fill:none;stroke:#444053;stroke-miterlimit:10" />
  <ellipse
     cx="429.48508"
     cy="742.98346"
     rx="376"
     ry="73"
     id="ellipse76"
     style="opacity:0.1;fill:#b04027" />
  <polygon
     points="434.39,438.92 434.5,434.43 447.06,435.03 446.95,438.92 440.19,677.44 428.83,677.44 "
     id="polygon78"
     style="fill:#504f60"
     transform="translate(5.0050635,4.9934703)" />
  <polygon
     points="434.39,438.92 434.5,434.43 447.06,435.03 446.95,438.92 440.19,677.44 428.83,677.44 "
     id="polygon80"
     style="opacity:0.1"
     transform="translate(5.0050635,4.9934703)" />
  <polygon
     points="374.73,625.73 511.93,625.73 512.82,637.09 504.32,637.07 377.88,636.8 371.14,636.79 "
     id="polygon82"
     style="fill:#504f60"
     transform="translate(5.0050635,4.9934703)" />
  <polygon
     points="434.39,438.92 434.5,434.43 447.06,435.03 446.95,438.92 "
     id="polygon84"
     style="opacity:0.1"
     transform="rotate(-112.82336,372.53644,444.91184)" />
  <rect
     x="-496.3476"
     y="155.07942"
     width="21.07"
     height="7.9299998"
     id="rect86"
     style="fill:#504f60"
     transform="rotate(-112.82336)" />
  <polygon
     points="379,625.73 377.88,636.8 371.14,636.79 374.73,625.73 "
     id="polygon88"
     style="opacity:0.1"
     transform="translate(5.0050635,4.9934703)" />
  <polygon
     points="385.45,432.49 385.78,429.35 397.14,429.05 396.8,432.49 368.75,709.13 355.9,708.52 "
     id="polygon90"
     style="fill:#504f60"
     transform="translate(5.0050635,4.9934703)" />
  <polygon
     points="512.82,637.09 504.32,637.07 503.16,625.73 511.93,625.73 "
     id="polygon92"
     style="opacity:0.1"
     transform="translate(5.0050635,4.9934703)" />
  <polygon
     points="496.38,429.35 496.71,432.49 526.27,708.52 513.41,709.13 485.37,432.49 485.02,429.05 "
     id="polygon94"
     style="fill:#504f60"
     transform="translate(5.0050635,4.9934703)" />
  <rect
     x="302.61502"
     y="161.29347"
     width="283.35999"
     height="271.70001"
     id="rect96"
     style="fill:#ffffff" />
  <rect
     x="302.61502"
     y="161.29347"
     width="283.35999"
     height="271.70001"
     id="rect98"
     style="fill:#ffffff" />
  <path
     d="m 449.81506,70.43347 v 65.6 h -11.05 v -65.6 a 5.53,5.53 0 1 1 11.05,0 z"
     id="path100"
     inkscape:connector-curvature="0"
     style="fill:#504f60" />
  <rect
     x="438.76505"
     y="130.06348"
     width="11.06"
     height="5.9699998"
     id="rect102"
     style="opacity:0.1" />
  <path
     d="m 454.15506,134.54347 v 21.67 h -19.69 v -21.67 a 2.69,2.69 0 0 1 2.69,-2.69 h 14.31 a 2.7,2.7 0 0 1 2.69,2.69 z"
     id="path104"
     inkscape:connector-curvature="0"
     style="fill:#504f60" />
  <circle
     cx="444.29507"
     cy="145.60347"
     r="4.1799998"
     id="circle106"
     style="opacity:0.1" />
  <circle
     cx="444.29507"
     cy="144.70348"
     r="4.1799998"
     id="circle108"
     style="fill:#3f3d56" />
  <rect
     x="434.43503"
     y="153.52347"
     width="19.73"
     height="2.6900001"
     id="rect110"
     style="opacity:0.1" />
  <rect
     x="426.35507"
     y="157.11346"
     width="35.869999"
     height="5.98"
     id="rect112"
     style="opacity:0.1" />
  <rect
     x="426.35507"
     y="155.31348"
     width="35.869999"
     height="5.98"
     id="rect114"
     style="fill:#504f60" />
  <path
     d="m 371.73506,425.99347 h 150.65 a 6.5,6.5 0 0 1 6.5,6.5 v 1.42 h -163.65 v -1.42 a 6.5,6.5 0 0 1 6.5,-6.5 z"
     id="path116"
     inkscape:connector-curvature="0"
     style="opacity:0.1" />
  <polygon
     points="396.8,432.49 385.45,432.49 385.78,429.35 397.14,429.05 "
     id="polygon118"
     style="opacity:0.1"
     transform="rotate(-112.82336,372.53644,444.91184)" />
  <rect
     x="-496.3476"
     y="155.07942"
     width="21.07"
     height="3.29"
     id="rect120"
     style="opacity:0.1"
     transform="rotate(-112.82336)" />
  <polygon
     points="496.71,432.49 485.37,432.49 485.02,429.05 496.38,429.35 "
     id="polygon122"
     style="opacity:0.1"
     transform="translate(5.0050635,4.9934703)" />
  <path
     d="m 371.73506,427.76347 h 150.65 a 6.5,6.5 0 0 1 6.5,6.5 v 1.42 h -163.65 v -1.42 a 6.5,6.5 0 0 1 6.5,-6.5 z"
     id="path124"
     inkscape:connector-curvature="0"
     style="fill:#504f60" />
  <path
     d="m 393.00506,189.62347 c 8.78,-11.09 22.55,-13.34 35.09,-12.46 39.38,2.77 74.93,29.72 105.67999,60.2 11.13,11 22.09,22.92 29.32,38.12 14.71,30.93 10.34,73.78 -10.11,99.26 -7,8.67 -15.4,15.32 -24.05999,21.21 -15.39,10.48 -32,18.88 -49.49,21.28 -12.46,1.71 -25.08,0.32 -37.47,-2.06 -34.61,-6.66 -68.59,-21.37 -97.07,-46.55 -12.5,-11 -24.27,-24.76 -29.42,-42.62 -5.15,-17.86 -1.85,-40.5 10.9,-51.07 5.28,-4.38 11.59,-6.35 17.76,-8.21 9.09,-2.72 18.33,-5.42 26.53,-11 8.47,-5.74 18.5,-16.82 16.82,-29.51 -1.8,-13.57 -3.24,-25.52 5.52,-36.59 z"
     id="path126"
     inkscape:connector-curvature="0"
     style="opacity:0.05;fill:#b04027" />
  <path
     d="m 176.75809,491.06557 -46.6691,26.0107 79.4581,38.76968 39.03472,-24.07106 z m 25.90747,25.65414 c -2.13172,-2.11087 -2.98571,-4.65936 -1.93731,-5.71812 1.0484,-1.05875 3.61937,-0.21577 5.73688,1.88103 2.1175,2.0968 2.99281,4.6664 1.94441,5.72515 -1.0484,1.05875 -3.61937,0.21578 -5.74398,-1.88806 z"
     id="path164"
     inkscape:connector-curvature="0"
     style="fill:#464353" />
  <ellipse
     cx="483.27496"
     cy="234.69626"
     rx="4.73"
     ry="1.35"
     id="ellipse168"
     style="opacity:0.9;fill:#b04027"
     transform="rotate(44.718511)" />
  <ellipse
     cx="477.87506"
     cy="241.44627"
     rx="4.73"
     ry="1.35"
     id="ellipse170"
     style="opacity:0.9;fill:#fbbebe"
     transform="rotate(44.718511)" />
  <ellipse
     cx="512.99518"
     cy="231.98624"
     rx="4.73"
     ry="1.35"
     id="ellipse172"
     style="opacity:0.9;fill:#fbbebe"
     transform="rotate(44.718511)" />
  <ellipse
     cx="481.92487"
     cy="241.44627"
     rx="4.73"
     ry="1.35"
     id="ellipse174"
     style="opacity:0.9;fill:#fbbebe"
     transform="rotate(44.718511)" />
  <ellipse
     cx="473.82526"
     cy="240.09622"
     rx="4.73"
     ry="1.35"
     id="ellipse176"
     style="opacity:0.9;fill:#fbbebe"
     transform="rotate(44.718511)" />
  <ellipse
     cx="473.82526"
     cy="244.14621"
     rx="4.73"
     ry="1.35"
     id="ellipse178"
     style="opacity:0.9;fill:#fbbebe"
     transform="rotate(44.718511)" />
  <ellipse
     cx="484.62506"
     cy="238.74625"
     rx="4.73"
     ry="1.35"
     id="ellipse180"
     style="opacity:0.9;fill:#fbbebe"
     transform="rotate(44.718511)" />
  <ellipse
     cx="476.52496"
     cy="236.04623"
     rx="4.73"
     ry="1.35"
     id="ellipse182"
     style="opacity:0.9;fill:#fbbebe"
     transform="rotate(44.718511)" />
  <ellipse
     cx="485.98492"
     cy="240.09622"
     rx="4.73"
     ry="1.35"
     id="ellipse184"
     style="opacity:0.9;fill:#b04027"
     transform="rotate(44.718511)" />
  <ellipse
     cx="488.68512"
     cy="233.33621"
     rx="4.73"
     ry="1.35"
     id="ellipse186"
     style="opacity:0.9;fill:#b04027"
     transform="rotate(44.718511)" />
  <ellipse
     cx="488.68512"
     cy="236.04623"
     rx="4.73"
     ry="1.35"
     id="ellipse188"
     style="opacity:0.9;fill:#b04027"
     transform="rotate(44.718511)" />
  <ellipse
     cx="490.03522"
     cy="240.09622"
     rx="4.73"
     ry="1.35"
     id="ellipse190"
     style="opacity:0.9;fill:#b04027"
     transform="rotate(44.718511)" />
  <ellipse
     cx="503.53522"
     cy="234.69626"
     rx="4.73"
     ry="1.35"
     id="ellipse192"
     style="opacity:0.9;fill:#b04027"
     transform="rotate(44.718511)" />
  <ellipse
     cx="508.93512"
     cy="233.33621"
     rx="4.73"
     ry="1.35"
     id="ellipse194"
     style="opacity:0.9;fill:#b04027"
     transform="rotate(44.718511)" />
  <ellipse
     cx="508.93512"
     cy="236.04623"
     rx="4.73"
     ry="1.35"
     id="ellipse196"
     style="opacity:0.9;fill:#b04027"
     transform="rotate(44.718511)" />
  <ellipse
     cx="502.18512"
     cy="240.09622"
     rx="4.73"
     ry="1.35"
     id="ellipse198"
     style="opacity:0.9;fill:#b04027"
     transform="rotate(44.718511)" />
  <ellipse
     cx="503.53522"
     cy="240.09622"
     rx="4.73"
     ry="1.35"
     id="ellipse200"
     style="opacity:0.9;fill:#b04027"
     transform="rotate(44.718511)" />
  <ellipse
     cx="502.18512"
     cy="240.09622"
     rx="4.73"
     ry="1.35"
     id="ellipse202"
     style="opacity:0.9;fill:#b04027"
     transform="rotate(44.718511)" />
  <ellipse
     cx="498.13531"
     cy="240.09622"
     rx="4.73"
     ry="1.35"
     id="ellipse204"
     style="opacity:0.9;fill:#b04027"
     transform="rotate(44.718511)" />
  <ellipse
     cx="492.73492"
     cy="234.69626"
     rx="4.73"
     ry="1.35"
     id="ellipse206"
     style="opacity:0.9;fill:#b04027"
     transform="rotate(44.718511)" />
  <ellipse
     cx="494.08502"
     cy="237.39621"
     rx="4.73"
     ry="1.35"
     id="ellipse208"
     style="opacity:0.9;fill:#b04027"
     transform="rotate(44.718511)" />
  <ellipse
     cx="498.13531"
     cy="233.33621"
     rx="4.73"
     ry="1.35"
     id="ellipse210"
     style="opacity:0.9;fill:#3f3d56"
     transform="rotate(44.718511)" />
  <ellipse
     cx="498.13531"
     cy="236.04623"
     rx="4.73"
     ry="1.35"
     id="ellipse212"
     style="opacity:0.9;fill:#b04027"
     transform="rotate(44.718511)" />
  <ellipse
     cx="496.78522"
     cy="237.39621"
     rx="4.73"
     ry="1.35"
     id="ellipse214"
     style="fill:#f86d70"
     transform="rotate(44.718511)" />
  <ellipse
     cx="502.18512"
     cy="237.39621"
     rx="4.73"
     ry="1.35"
     id="ellipse216"
     style="opacity:0.9;fill:#b04027"
     transform="rotate(44.718511)" />
  <ellipse
     cx="504.88531"
     cy="242.79623"
     rx="4.73"
     ry="1.35"
     id="ellipse218"
     style="opacity:0.9;fill:#b04027"
     transform="rotate(44.718511)" />
  <ellipse
     cx="507.58502"
     cy="236.04623"
     rx="4.73"
     ry="1.35"
     id="ellipse220"
     style="opacity:0.9;fill:#b04027"
     transform="rotate(44.718511)" />
  <ellipse
     cx="507.58502"
     cy="238.74625"
     rx="4.73"
     ry="1.35"
     id="ellipse222"
     style="opacity:0.9;fill:#b04027"
     transform="rotate(44.718511)" />
  <ellipse
     cx="508.93512"
     cy="242.79623"
     rx="4.73"
     ry="1.35"
     id="ellipse224"
     style="opacity:0.9;fill:#b04027"
     transform="rotate(44.718511)" />
  <ellipse
     cx="522.44489"
     cy="237.39621"
     rx="4.73"
     ry="1.35"
     id="ellipse226"
     style="opacity:0.9;fill:#b04027"
     transform="rotate(44.718511)" />
  <ellipse
     cx="527.84528"
     cy="236.04623"
     rx="4.73"
     ry="1.35"
     id="ellipse228"
     style="opacity:0.9;fill:#b04027"
     transform="rotate(44.718511)" />
  <ellipse
     cx="527.84528"
     cy="238.74625"
     rx="4.73"
     ry="1.35"
     id="ellipse230"
     style="opacity:0.9;fill:#a1616a"
     transform="rotate(44.718511)" />
  <ellipse
     cx="521.09528"
     cy="242.79623"
     rx="4.73"
     ry="1.35"
     id="ellipse232"
     style="opacity:0.9;fill:#b04027"
     transform="rotate(44.718511)" />
  <ellipse
     cx="522.44489"
     cy="242.79623"
     rx="4.73"
     ry="1.35"
     id="ellipse234"
     style="opacity:0.9;fill:#b04027"
     transform="rotate(44.718511)" />
  <ellipse
     cx="521.09528"
     cy="242.79623"
     rx="4.73"
     ry="1.35"
     id="ellipse236"
     style="opacity:0.9;fill:#b04027"
     transform="rotate(44.718511)" />
  <ellipse
     cx="517.04498"
     cy="242.79623"
     rx="4.73"
     ry="1.35"
     id="ellipse238"
     style="fill:#f86d70"
     transform="rotate(44.718511)" />
  <ellipse
     cx="511.64508"
     cy="237.39621"
     rx="4.73"
     ry="1.35"
     id="ellipse240"
     style="opacity:0.9;fill:#b04027"
     transform="rotate(44.718511)" />
  <ellipse
     cx="512.99518"
     cy="240.09622"
     rx="4.73"
     ry="1.35"
     id="ellipse242"
     style="opacity:0.9;fill:#b04027"
     transform="rotate(44.718511)" />
  <ellipse
     cx="517.04498"
     cy="236.04623"
     rx="4.73"
     ry="1.35"
     id="ellipse244"
     style="opacity:0.9;fill:#a1616a"
     transform="rotate(44.718511)" />
  <ellipse
     cx="517.04498"
     cy="238.74625"
     rx="4.73"
     ry="1.35"
     id="ellipse246"
     style="fill:#f86d70"
     transform="rotate(44.718511)" />
  <ellipse
     cx="515.69489"
     cy="240.09622"
     rx="4.73"
     ry="1.35"
     id="ellipse248"
     style="fill:#f86d70"
     transform="rotate(44.718511)" />
  <ellipse
     cx="415.40729"
     cy="332.00909"
     rx="4.73"
     ry="1.35"
     transform="rotate(34.088511)"
     id="ellipse250"
     style="opacity:0.9;fill:#b04027" />
  <ellipse
     cx="418.10114"
     cy="337.4129"
     rx="4.73"
     ry="1.35"
     transform="rotate(34.088511)"
     id="ellipse252"
     style="opacity:0.9;fill:#b04027" />
  <ellipse
     cx="420.80231"
     cy="330.66766"
     rx="4.73"
     ry="1.35"
     transform="rotate(34.088511)"
     id="ellipse254"
     style="opacity:0.9;fill:#b04027" />
  <ellipse
     cx="418.82031"
     cy="332.06702"
     rx="4.7129412"
     ry="1.3451313"
     transform="rotate(34.3108)"
     id="ellipse256"
     style="opacity:0.9;fill:#b04027;stroke-width:0.9963935" />
  <ellipse
     cx="422.15485"
     cy="337.41925"
     rx="4.73"
     ry="1.35"
     transform="rotate(34.088511)"
     id="ellipse258"
     style="opacity:0.9;fill:#b04027" />
  <ellipse
     cx="435.66364"
     cy="332.00702"
     rx="4.73"
     ry="1.35"
     transform="rotate(34.088511)"
     id="ellipse260"
     style="opacity:0.9;fill:#b04027" />
  <ellipse
     cx="441.06842"
     cy="330.66754"
     rx="4.73"
     ry="1.35"
     transform="rotate(34.088511)"
     id="ellipse262"
     style="opacity:0.9;fill:#b04027" />
  <ellipse
     cx="441.06305"
     cy="333.36493"
     rx="4.73"
     ry="1.35"
     transform="rotate(34.088511)"
     id="ellipse264"
     style="opacity:0.9;fill:#b04027" />
  <ellipse
     cx="434.31403"
     cy="337.41632"
     rx="4.73"
     ry="1.35"
     transform="rotate(34.088511)"
     id="ellipse266"
     style="opacity:0.9;fill:#b04027" />
  <ellipse
     cx="435.65826"
     cy="337.41522"
     rx="4.73"
     ry="1.35"
     transform="rotate(34.088511)"
     id="ellipse268"
     style="opacity:0.9;fill:#b04027" />
  <ellipse
     cx="434.31403"
     cy="337.41632"
     rx="4.73"
     ry="1.35"
     transform="rotate(34.088511)"
     id="ellipse270"
     style="opacity:0.9;fill:#b04027" />
  <ellipse
     cx="430.26227"
     cy="337.41022"
     rx="4.73"
     ry="1.35"
     transform="rotate(34.088511)"
     id="ellipse272"
     style="opacity:0.9;fill:#b04027" />
  <ellipse
     cx="424.85699"
     cy="332.01862"
     rx="4.73"
     ry="1.35"
     transform="rotate(34.088511)"
     id="ellipse274"
     style="opacity:0.9;fill:#3f3d56" />
  <ellipse
     cx="426.21588"
     cy="334.7066"
     rx="4.73"
     ry="1.35"
     transform="rotate(34.088511)"
     id="ellipse276"
     style="opacity:0.9;fill:#b04027" />
  <ellipse
     cx="430.26422"
     cy="330.65924"
     rx="4.73"
     ry="1.35"
     transform="rotate(34.088511)"
     id="ellipse278"
     style="opacity:0.9;fill:#3f3d56" />
  <ellipse
     cx="430.2569"
     cy="333.36639"
     rx="4.73"
     ry="1.35"
     transform="rotate(34.088511)"
     id="ellipse280"
     style="opacity:0.9;fill:#b04027" />
  <ellipse
     cx="428.91315"
     cy="334.72394"
     rx="4.73"
     ry="1.35"
     transform="rotate(34.088511)"
     id="ellipse282"
     style="opacity:0.9;fill:#3f3d56" />
  <ellipse
     cx="434.31158"
     cy="334.71735"
     rx="4.73"
     ry="1.35"
     transform="rotate(34.088511)"
     id="ellipse284"
     style="opacity:0.9;fill:#b04027" />
  <ellipse
     cx="437.01715"
     cy="340.11322"
     rx="4.73"
     ry="1.35"
     transform="rotate(34.088511)"
     id="ellipse286"
     style="opacity:0.9;fill:#b04027" />
  <ellipse
     cx="439.71832"
     cy="333.35797"
     rx="4.73"
     ry="1.35"
     transform="rotate(34.088511)"
     id="ellipse288"
     style="opacity:0.9;fill:#b04027" />
  <ellipse
     cx="439.711"
     cy="336.06525"
     rx="4.73"
     ry="1.35"
     transform="rotate(34.088511)"
     id="ellipse290"
     style="opacity:0.9;fill:#b04027" />
  <ellipse
     cx="441.05914"
     cy="340.11761"
     rx="4.73"
     ry="1.35"
     transform="rotate(34.088511)"
     id="ellipse292"
     style="opacity:0.9;fill:#b04027" />
  <ellipse
     cx="454.56793"
     cy="334.71539"
     rx="4.73"
     ry="1.35"
     transform="rotate(34.088511)"
     id="ellipse294"
     style="opacity:0.9;fill:#b04027" />
  <ellipse
     cx="459.97467"
     cy="333.36603"
     rx="4.73"
     ry="1.35"
     transform="rotate(34.088511)"
     id="ellipse296"
     style="opacity:0.9;fill:#b04027" />
  <ellipse
     cx="459.97711"
     cy="336.06512"
     rx="4.73"
     ry="1.35"
     transform="rotate(34.088511)"
     id="ellipse298"
     style="opacity:0.9;fill:#a1616a" />
  <ellipse
     cx="453.21979"
     cy="340.11493"
     rx="4.73"
     ry="1.35"
     transform="rotate(34.088511)"
     id="ellipse300"
     style="opacity:0.9;fill:#b04027" />
  <ellipse
     cx="454.57428"
     cy="340.11371"
     rx="4.73"
     ry="1.35"
     transform="rotate(34.088511)"
     id="ellipse302"
     style="opacity:0.9;fill:#b04027" />
  <ellipse
     cx="453.21979"
     cy="340.11493"
     rx="4.73"
     ry="1.35"
     transform="rotate(34.088511)"
     id="ellipse304"
     style="opacity:0.9;fill:#b04027" />
  <ellipse
     cx="449.16656"
     cy="340.11847"
     rx="4.73"
     ry="1.35"
     transform="rotate(34.088511)"
     id="ellipse306"
     style="opacity:0.9;fill:#b04027" />
  <ellipse
     cx="441.71094"
     cy="333.42712"
     rx="4.7129412"
     ry="1.3451313"
     transform="rotate(34.3108)"
     id="ellipse308"
     style="opacity:0.9;fill:#a1616a;stroke-width:0.9963935" />
  <ellipse
     cx="445.12018"
     cy="337.41486"
     rx="4.73"
     ry="1.35"
     transform="rotate(34.088511)"
     id="ellipse310"
     style="opacity:0.9;fill:#b04027" />
  <path
     d="m 362.57023,462.45785 1.3096,0.53382 c 0,0 47.83467,-69.37649 50.89523,-81.5682 l -3.50285,-1.87834 c 0,0 -15.13277,18.95386 -48.70198,82.91272 z"
     id="path312"
     inkscape:connector-curvature="0"
     style="fill:#2f2e41" />
  <path
     d="m 412.33984,376.92594 c 0,0 -3.0547,3.87856 -1.90518,4.39294 1.14953,0.51439 4.1411,2.46685 4.57049,1.86301 0.4294,-0.60383 2.6061,-4.35159 2.6061,-4.35159 0,0 -1.41875,-3.11344 -4.57272,-2.92531 z"
     id="path314"
     inkscape:connector-curvature="0"
     style="fill:#464353" />
  <path
     d="m 427.35688,354.19092 0.0872,0.51661 c 0,0 -2.28429,0.52735 -2.35618,6.49226 a 30.89,30.89 0 0 0 0.14542,3.25874 c 0.81577,8.77023 -3.27627,14.05095 -7.76223,14.11611 a 3.47,3.47 0 0 1 -0.43996,0.0116 l -3.89231,-2.15927 0.16357,-0.51366 a 35.24,35.24 0 0 0 1.36983,-8.06261 14,14 0 0 1 3.87933,-9.2923 16.9,16.9 0 0 1 8.80531,-4.36745 z"
     id="path316"
     inkscape:connector-curvature="0"
     style="opacity:0.9;fill:#fdd8d8" />
  <path
     d="m 413.92564,376.38876 c 0,0 1.93484,-2.10535 2.33627,-9.06605 0.40144,-6.9607 8.11637,-11.65043 8.11637,-11.65043 0,0 -6.35798,6.21262 -5.81563,11.41995 0.54234,5.20734 -4.02538,9.53821 -4.02538,9.53821 z"
     stroke-miterlimit="10"
     id="path318"
     inkscape:connector-curvature="0"
     style="opacity:0.2;fill:none;stroke:#2f2e41;stroke-width:0.25;stroke-miterlimit:10" />
  <path
     d="m 415.24349,376.86485 c 0,0 3.34379,-1.10342 4.61994,-6.08875 1.27615,-4.98533 2.88144,-14.11263 4.99072,-15.18475 0,0 -2.14928,4.97305 -2.08685,8.47285 0.0624,3.4998 -0.64329,8.60311 -2.69831,10.01042 0,0 -2.8227,3.14081 -4.40163,3.23027 z"
     stroke-miterlimit="10"
     id="path320"
     inkscape:connector-curvature="0"
     style="opacity:0.2;fill:none;stroke:#2f2e41;stroke-width:0.25;stroke-miterlimit:10" />
  <path
     d="m 416.45116,377.72365 c 0,0 3.75781,0.24127 6.50868,-5.36469 a 17.55,17.55 0 0 0 0.93568,-7.93415 16.9,16.9 0 0 1 1.84873,-8.80662"
     stroke-miterlimit="10"
     id="path322"
     inkscape:connector-curvature="0"
     style="opacity:0.2;fill:none;stroke:#2f2e41;stroke-width:0.25;stroke-miterlimit:10" />
  <ellipse
     cx="449.16852"
     cy="333.36749"
     rx="4.73"
     ry="1.35"
     transform="rotate(34.088511)"
     id="ellipse324"
     style="opacity:0.9;fill:#3f3d56" />
  <ellipse
     cx="449.17242"
     cy="336.0567"
     rx="4.73"
     ry="1.35"
     transform="rotate(34.088511)"
     id="ellipse326"
     style="opacity:0.9;fill:#b04027" />
  <ellipse
     cx="447.8194"
     cy="337.41254"
     rx="4.73"
     ry="1.35"
     transform="rotate(34.088511)"
     id="ellipse328"
     style="opacity:0.9;fill:#b04027" />
  <path
     d="m 429.15724,352.77144 0.1386,0.69028 c 0,0 -2.81788,0.60001 -2.62819,8.52708 a 6.18,6.18 0 0 1 -1.40483,0.37422 5.21,5.21 0 0 1 -1.16807,0.11184 5.09,5.09 0 0 1 -1.12729,-0.10061 5.52,5.52 0 0 1 -2.32528,-0.83328 4.78,4.78 0 0 1 -1.22703,-1.11104 4.29,4.29 0 0 1 -0.61295,-1.04398 5.69,5.69 0 0 1 -0.33351,-1.20498 c 2.27057,-2.44192 5.68729,-4.45484 10.68855,-5.40953 z"
     id="path352"
     inkscape:connector-curvature="0"
     style="opacity:0.9;fill:#b04027" />
  <path
     d="m 126.46506,665.49347 c 0,0 6.22,8.13 -2.87,20.41 -9.09,12.28 -16.58,22.64 -13.55,30.3 0,0 13.71,-22.8 24.87,-23.12 11.16,-0.32 3.8,-13.87 -8.45,-27.59 z"
     id="path354"
     inkscape:connector-curvature="0"
     style="fill:#b04027" />
  <path
     d="m 126.46506,665.49347 a 10,10 0 0 1 1.27,2.55 c 10.89,12.8 16.69,24.74 6.23,25 -9.75,0.27 -21.45,17.71 -24.25,22.11 a 9.16,9.16 0 0 0 0.33,1 c 0,0 13.71,-22.8 24.87,-23.12 11.16,-0.32 3.8,-13.82 -8.45,-27.54 z"
     id="path356"
     inkscape:connector-curvature="0"
     style="opacity:0.1" />
  <path
     d="m 137.99506,675.87347 c 0,2.86 -0.32,5.18 -0.72,5.18 -0.4,0 -0.71,-2.32 -0.71,-5.18 0,-2.86 0.4,-1.52 0.79,-1.52 0.39,0 0.64,-1.35 0.64,1.52 z"
     id="path358"
     inkscape:connector-curvature="0"
     style="fill:#ffd037" />
  <path
     d="m 141.96506,679.28347 c -2.51,1.37 -4.71,2.2 -4.89,1.85 -0.18,-0.35 1.69,-1.74 4.2,-3.11 2.51,-1.37 1.52,-0.37 1.71,0 0.19,0.37 1.48,-0.11 -1.02,1.26 z"
     id="path360"
     inkscape:connector-curvature="0"
     style="fill:#ffd037" />
  <path
     d="m 93.595063,665.49347 c 0,0 -6.22,8.13 2.87,20.41 9.089997,12.28 16.579997,22.64 13.549997,30.3 0,0 -13.709997,-22.8 -24.869997,-23.12 -11.16,-0.32 -3.83,-13.87 8.45,-27.59 z"
     id="path362"
     inkscape:connector-curvature="0"
     style="fill:#b04027" />
  <path
     d="m 93.595063,665.49347 a 10,10 0 0 0 -1.27,2.55 c -10.89,12.8 -16.69,24.74 -6.23,25 9.75,0.27 21.449997,17.71 24.249997,22.11 a 9.16,9.16 0 0 1 -0.33,1 c 0,0 -13.709997,-22.8 -24.869997,-23.12 -11.16,-0.32 -3.83,-13.82 8.45,-27.54 z"
     id="path364"
     inkscape:connector-curvature="0"
     style="opacity:0.1" />
  <path
     d="m 82.035063,675.87347 c 0,2.86 0.32,5.18 0.72,5.18 0.4,0 0.71,-2.32 0.71,-5.18 0,-2.86 -0.4,-1.52 -0.79,-1.52 -0.39,0 -0.64,-1.35 -0.64,1.52 z"
     id="path366"
     inkscape:connector-curvature="0"
     style="fill:#ffd037" />
  <path
     d="m 78.065063,679.28347 c 2.51,1.37 4.7,2.2 4.89,1.85 0.19,-0.35 -1.69,-1.74 -4.2,-3.11 -2.51,-1.37 -1.52,-0.37 -1.71,0 -0.19,0.37 -1.49,-0.11 1.02,1.26 z"
     id="path368"
     inkscape:connector-curvature="0"
     style="fill:#ffd037" />
  <path
     d="m 84.015063,715.14347 c 0,0 17.379997,-0.53 22.619997,-4.27 5.24,-3.74 26.75,-8.18 28.05,-2.2 1.3,5.98 26.12,29.76 6.49,29.92 -19.63,0.16 -45.599997,-3.06 -50.829997,-6.24 -5.23,-3.18 -6.33,-17.21 -6.33,-17.21 z"
     id="path370"
     inkscape:connector-curvature="0"
     style="fill:#a8a8a8" />
  <path
     d="m 141.52506,736.49347 c -19.62,0.16 -45.599997,-3.06 -50.829997,-6.24 -4,-2.43 -5.57,-11.14 -6.1,-15.15 h -0.58 c 0,0 1.1,14 6.33,17.21 5.23,3.21 31.209997,6.4 50.829997,6.24 5.67,0 7.63,-2.06 7.52,-5.05 -0.79,1.85 -2.95,2.99 -7.17,2.99 z"
     id="path372"
     inkscape:connector-curvature="0"
     style="opacity:0.2" />
  <path
     d="m 571.00505,694.68347 c 0,0 -11.11,-37.73 2.08,-65.5 a 59.59,59.59 0 0 0 4.82,-37.39 100.34,100.34 0 0 0 -5.29,-17.55"
     stroke-miterlimit="10"
     id="path374"
     inkscape:connector-curvature="0"
     style="fill:none;stroke:#535461;stroke-width:2;stroke-miterlimit:10" />
  <path
     d="m 580.82505,556.69347 c 0,4.63 -8.37,18 -8.37,18 0,0 -8.38,-13.41 -8.38,-18 a 8.38,8.38 0 0 1 16.75,0 z"
     id="path376"
     inkscape:connector-curvature="0"
     style="fill:#b04027" />
  <path
     d="m 594.66505,582.31347 c -2.51,3.88 -16.83,10.58 -16.83,10.58 0,0 0.26,-15.8 2.77,-19.68 a 8.3739716,8.3739716 0 0 1 14.06,9.1 z"
     id="path378"
     inkscape:connector-curvature="0"
     style="fill:#b04027" />
  <path
     d="m 594.05505,626.08347 c -4.12,2.08 -19.87,0.64 -19.87,0.64 0,0 8.21,-13.51 12.33,-15.6 a 8.3942182,8.3942182 0 1 1 7.54,15 z"
     id="path380"
     inkscape:connector-curvature="0"
     style="fill:#b04027" />
  <path
     d="m 586.14505,659.09347 c -3.72,2.75 -19.48,4 -19.48,4 0,0 5.8,-14.7 9.52,-17.45 a 8.3840861,8.3840861 0 1 1 10,13.46 z"
     id="path382"
     inkscape:connector-curvature="0"
     style="fill:#b04027" />
  <path
     d="m 560.25505,593.79347 c 3.32,3.22 18.77,6.56 18.77,6.56 0,0 -3.79,-15.35 -7.1,-18.57 a 8.37,8.37 0 1 0 -11.67,12 z"
     id="path384"
     inkscape:connector-curvature="0"
     style="fill:#b04027" />
  <path
     d="m 551.46505,632.49347 c 4.13,2.08 19.87,0.64 19.87,0.64 0,0 -8.2,-13.51 -12.33,-15.6 a 8.38,8.38 0 0 0 -7.54,14.96 z"
     id="path386"
     inkscape:connector-curvature="0"
     style="fill:#b04027" />
  <path
     d="m 548.13505,671.33347 c 3.71,2.75 19.47,4 19.47,4 0,0 -5.8,-14.71 -9.52,-17.46 a 8.3881002,8.3881002 0 0 0 -10,13.47 z"
     id="path388"
     inkscape:connector-curvature="0"
     style="fill:#b04027" />
  <path
     d="m 580.82505,556.69347 c 0,4.63 -8.37,18 -8.37,18 0,0 -8.38,-13.41 -8.38,-18 a 8.38,8.38 0 0 1 16.75,0 z"
     id="path390"
     inkscape:connector-curvature="0"
     style="fill:#b04027" />
  <path
     d="m 594.66505,582.31347 c -2.51,3.88 -16.83,10.58 -16.83,10.58 0,0 0.26,-15.8 2.77,-19.68 a 8.3739716,8.3739716 0 0 1 14.06,9.1 z"
     id="path392"
     inkscape:connector-curvature="0"
     style="fill:#b04027" />
  <path
     d="m 594.05505,626.08347 c -4.12,2.08 -19.87,0.64 -19.87,0.64 0,0 8.21,-13.51 12.33,-15.6 a 8.3942182,8.3942182 0 1 1 7.54,15 z"
     id="path394"
     inkscape:connector-curvature="0"
     style="fill:#b04027" />
  <path
     d="m 586.14505,659.09347 c -3.72,2.75 -19.48,4 -19.48,4 0,0 5.8,-14.7 9.52,-17.45 a 8.3840861,8.3840861 0 1 1 10,13.46 z"
     id="path396"
     inkscape:connector-curvature="0"
     style="fill:#b04027" />
  <path
     d="m 560.25505,593.79347 c 3.32,3.22 18.77,6.56 18.77,6.56 0,0 -3.79,-15.35 -7.1,-18.57 a 8.37,8.37 0 1 0 -11.67,12 z"
     id="path398"
     inkscape:connector-curvature="0"
     style="fill:#b04027" />
  <path
     d="m 551.46505,632.49347 c 4.13,2.08 19.87,0.64 19.87,0.64 0,0 -8.2,-13.51 -12.33,-15.6 a 8.38,8.38 0 0 0 -7.54,14.96 z"
     id="path400"
     inkscape:connector-curvature="0"
     style="fill:#b04027" />
  <path
     d="m 548.13505,671.33347 c 3.71,2.75 19.47,4 19.47,4 0,0 -5.8,-14.71 -9.52,-17.46 a 8.3881002,8.3881002 0 0 0 -10,13.47 z"
     id="path402"
     inkscape:connector-curvature="0"
     style="fill:#b04027" />
  <path
     d="m 544.73505,692.30347 c 0,0 13.54,-2.69 17.14,-6.27 3.6,-3.58 19.85,-9.85 21.66,-5.37 1.81,4.48 24.35,19.7 9,22.39 -15.35,2.69 -36.09,3.58 -40.6,1.79 -4.51,-1.79 -7.2,-12.54 -7.2,-12.54 z"
     id="path404"
     inkscape:connector-curvature="0"
     style="fill:#a8a8a8" />
  <path
     d="m 592.55505,701.38347 c -15.34,2.69 -36.09,3.59 -40.6,1.8 -3.43,-1.37 -5.82,-7.92 -6.77,-11 l -0.45,0.09 c 0,0 2.71,10.75 7.22,12.54 4.51,1.79 25.26,0.9 40.6,-1.79 4.42,-0.78 5.69,-2.6 5.21,-4.9 -0.38,1.53 -1.92,2.69 -5.21,3.26 z"
     id="path406"
     inkscape:connector-curvature="0"
     style="opacity:0.2" />
  <g
     id="g460"
     style="opacity:0.75"
     transform="translate(5.0050635,4.9934703)">
    <path
       d="m 680.09,428.89 a 10.85,10.85 0 0 1 -0.59,-1.52 c -0.31,-1.21 0.07,-2.47 0.09,-3.72 a 13.14,13.14 0 0 0 -0.29,-2.57 c -0.59,-3.23 -1.17,-6.47 -1.76,-9.71 -0.27,-1.49 -0.54,-3 -0.67,-4.49 -0.13,-1.49 -0.11,-3.1 -0.14,-4.65 -0.07,-5 -1,-10 -1.15,-15.05 -0.11,-2.61 -0.31,-5.22 -0.52,-7.83 -0.37,-4.48 -0.76,-9 -1.55,-13.38 -0.62,-3.51 -2.38,-6.79 -2.42,-10.35 0,-1.85 0,-3.7 -0.05,-5.55 a 10.64,10.64 0 0 0 -0.74,-4.66 10.24,10.24 0 0 0 -2.74,-3.13 q -4.72,-4.08 -9.78,-7.75 a 6,6 0 0 0 3.06,-0.23 2,2 0 0 0 1.17,-2.52 2.52,2.52 0 0 0 -1.55,-1.12 14.18,14.18 0 0 0 -3.72,-0.6 13.74,13.74 0 0 0 0.27,-1.45 c 0.66,-5.16 -1.93,-10.22 -1.92,-15.42 0,-5.36 2.72,-10.27 4.29,-15.39 a 37.18,37.18 0 0 0 -1.1,-24.73 c -1.69,-4.16 -4.16,-8.07 -5,-12.48 -0.65,-3.46 -0.24,-7 -0.83,-10.51 -1.48,-8.83 -9.35,-15.62 -18,-18 -6.67,-1.81 -13.46,-1.23 -20.17,0 -5.77,1.07 -11,-1.29 -16.8,-0.53 -2.26,0.29 -4.61,1 -6.07,2.78 a 32.94,32.94 0 0 0 -2,3.39 c -2.57,4 -7.67,5.37 -11.91,7.56 -6.44,3.34 -11.57,9.57 -12.53,16.75 -0.89,6.66 1.73,13.26 2.13,20 0.51,8.56 -2.6,16.86 -5.23,25 a 19.53,19.53 0 0 0 -1.31,7 18.81,18.81 0 0 0 1.08,4.78 c 0.83,2.52 1.77,5 2.84,7.45 a 24.81,24.81 0 0 1 -6.22,1.63 c -2.18,0.25 -4.51,0.16 -6.4,1.27 a 7.48,7.48 0 0 0 -2.22,2.12 11.65,11.65 0 0 0 -2,8.79 2.73,2.73 0 0 0 -1.27,2.34 c -0.05,0.93 0.16,1.85 0.2,2.78 a 17.57,17.57 0 0 1 -1,5.14 43.59,43.59 0 0 0 -1.14,17.46 c 1.28,9.34 1.53,18.61 1.94,28 0.27,6.17 -0.24,12.41 0.78,18.51 0.34,2 1,4.2 2.58,5.48 a 11.23,11.23 0 0 1 1.16,0.9 c 0.9,0.94 0.93,2.39 1.23,3.66 a 7.88,7.88 0 0 0 8.12,5.79 v 0 0 0 c -0.67,2 -1.33,3.85 -2,5.77 H 661 c -0.06,-0.24 -0.12,-0.48 -0.17,-0.72 a 10.81,10.81 0 0 1 -0.07,-3.06 c 0.86,1 0.71,2.47 0.94,3.78 H 681 a 16.64,16.64 0 0 0 -0.91,-7.01 z"
       transform="translate(-169.54,-44.5)"
       id="path408"
       inkscape:connector-curvature="0"
       style="fill:url(#fb002706-ca86-4a39-b11f-6baa546b4cba)" />
    <path
       d="m 598,232.77 c -2.25,0.3 -4.58,1 -6,2.77 a 31.47,31.47 0 0 0 -2,3.37 c -2.55,4 -7.62,5.33 -11.82,7.51 -6.4,3.31 -11.49,9.51 -12.44,16.64 -0.89,6.62 1.71,13.18 2.11,19.84 0.5,8.5 -2.58,16.75 -5.19,24.86 a 19.48,19.48 0 0 0 -1.31,7 18.59,18.59 0 0 0 1.08,4.75 c 2.4,7.27 5.65,14.35 10.49,20.28 4.84,5.93 11.38,10.67 18.83,12.42 a 53.87,53.87 0 0 0 10.38,1.1 q 8,0.3 16,0.3 a 45.82,45.82 0 0 0 8.76,-0.59 c 6.11,-1.19 11.49,-4.64 16.71,-8 6,-3.9 12.6,-8.69 13.51,-15.8 0.65,-5.12 -1.91,-10.15 -1.91,-15.32 0,-5.17 2.7,-10.2 4.26,-15.28 A 37,37 0 0 0 658.36,274 c -1.68,-4.14 -4.13,-8 -5,-12.41 -0.65,-3.43 -0.25,-7 -0.83,-10.44 -1.47,-8.77 -9.28,-15.51 -17.86,-17.84 -6.63,-1.79 -13.37,-1.23 -20,0 C 609,234.36 603.73,232 598,232.77 Z"
       transform="translate(-169.54,-44.5)"
       id="path410"
       inkscape:connector-curvature="0"
       style="fill:#3f3d56" />
    <path
       d="m 599.82,306.26 a 21.59,21.59 0 0 1 -2.69,16.27 26.18,26.18 0 0 1 -5.79,6.05 37.05,37.05 0 0 1 -11.42,6.31 23,23 0 0 0 8.78,4.27 41.78,41.78 0 0 0 7.49,0.91 213,213 0 0 0 37.87,-1.37 c 4.2,-0.53 8.58,-1.26 12,-3.79 a 1.7,1.7 0 0 0 0.67,-0.79 c 0.24,-0.83 -0.75,-1.46 -1.57,-1.74 -4,-1.39 -8.41,-2.18 -11.91,-4.64 -5.36,-3.77 -7.6,-10.68 -8.08,-17.21 -0.48,-6.53 0.46,-13.12 -0.18,-19.65 q -13,-0.19 -26,0.76 c -1,0.07 -5.32,-0.17 -5.84,0.66 -0.52,0.83 1.84,3.24 2.44,4.15 a 28.83,28.83 0 0 1 4.23,9.81 z"
       transform="translate(-169.54,-44.5)"
       id="path412"
       inkscape:connector-curvature="0"
       style="fill:#fbbebe" />
    <circle
       cx="442.26999"
       cy="232.38"
       r="29.57"
       id="circle414"
       style="opacity:0.1" />
    <circle
       cx="442.26999"
       cy="231.33"
       r="29.57"
       id="circle416"
       style="fill:#fbbebe" />
    <path
       d="m 653.33,384.7 c -2.42,9.9 -3.94,20.15 -2.92,30.3 0.68,6.72 3,14 3.16,20.88 h -73.32 c 0,-3.7 0,-7.53 0,-11.35 0,-0.71 0,-1.41 0,-2.11 0,-0.91 0,-1.82 0,-2.73 0,-2.77 0,-5.51 0,-8.17 0,-4.79 0,-9.6 -0.51,-14.37 a 105.06,105.06 0 0 0 -5.86,-24.87 l -0.63,-1.76 v 0 c 0,-0.07 0,-0.13 -0.08,-0.19 -0.21,-0.6 -0.44,-1.19 -0.66,-1.79 -3.57,-9.48 -7.65,-19.32 -5.69,-29.18 a 25.27,25.27 0 0 1 12.18,-16.91 13.73,13.73 0 0 1 6.31,-1.94 c 3.81,-0.06 7.24,2.18 10.42,4.3 1.51,1 3,2 4.59,3 a 50.62,50.62 0 0 0 11.76,5.62 c 5.91,1.79 12.6,1.86 18,-1.12 a 21.09,21.09 0 0 0 3,-2.06 34.25,34.25 0 0 0 4.94,-5.2 c 1.44,2.8 4.56,4 7.15,5.75 a 22.36,22.36 0 0 1 7.83,10.45 57.62,57.62 0 0 1 3,12.88 67.07,67.07 0 0 1 0.86,13 c -0.38,6 -2.12,11.77 -3.53,17.57 z"
       transform="translate(-169.54,-44.5)"
       id="path418"
       inkscape:connector-curvature="0"
       style="fill:#3f3d56" />
    <path
       d="m 609.26,435.88 h -50.17 c 0.67,-1.92 1.32,-3.79 2,-5.74 v 0 H 561 a 7.81,7.81 0 0 1 -8.06,-5.76 c -0.3,-1.26 -0.33,-2.69 -1.23,-3.63 a 10,10 0 0 0 -1.14,-0.89 c -1.62,-1.27 -2.23,-3.42 -2.56,-5.45 -1,-6.06 -0.52,-12.25 -0.78,-18.39 -0.41,-9.36 -0.66,-18.58 -1.93,-27.86 a 43.35,43.35 0 0 1 1.13,-17.34 17.37,17.37 0 0 0 1,-5.11 c 0,-0.92 -0.25,-1.84 -0.2,-2.76 a 2.69,2.69 0 0 1 1.26,-2.32 11.61,11.61 0 0 1 2,-8.74 7.65,7.65 0 0 1 2.21,-2.11 c 1.88,-1.1 4.19,-1 6.35,-1.26 10.1,-1.14 18.1,-10 28.21,-11 a 38.15,38.15 0 0 1 6.84,0.16 c 3.72,0.31 5.08,5 5.94,8.66 0.12,0.48 0.22,1 0.32,1.44 1.9,9 1.55,18.4 1.55,27.65 a 23.38,23.38 0 0 0 0.86,6.28 c 1.53,5.58 1.69,11.42 2,17.2 a 389.7,389.7 0 0 0 4.06,40.34 73.94,73.94 0 0 1 0.93,7.56 45.8,45.8 0 0 1 -0.5,9.07 z"
       transform="translate(-169.54,-44.5)"
       id="path420"
       inkscape:connector-curvature="0"
       style="fill:#f86d70" />
    <path
       d="m 598.58,362.72 a 28.77,28.77 0 0 1 2.92,3.95 c 0.4,0.66 0.73,1.62 0.14,2.12 a 1.75,1.75 0 0 1 -1.08,0.3 l -7,0.3 a 8.15,8.15 0 0 1 -3.16,-0.29 8,8 0 0 1 -3.28,-2.93 L 584,362.09 a 9.23,9.23 0 0 1 -2,-3.52 3.16,3.16 0 0 1 1.4,-3.5 4.65,4.65 0 0 1 3.44,0.24 c 2.12,0.72 4.64,1.2 6.51,2.43 a 26.88,26.88 0 0 1 5.23,4.98 z"
       transform="translate(-169.54,-44.5)"
       id="path422"
       inkscape:connector-curvature="0"
       style="fill:#f86d70" />
    <path
       d="m 598.58,362.72 a 28.77,28.77 0 0 1 2.92,3.95 c 0.4,0.66 0.73,1.62 0.14,2.12 a 1.75,1.75 0 0 1 -1.08,0.3 l -7,0.3 a 8.15,8.15 0 0 1 -3.16,-0.29 8,8 0 0 1 -3.28,-2.93 L 584,362.09 a 9.23,9.23 0 0 1 -2,-3.52 3.16,3.16 0 0 1 1.4,-3.5 4.65,4.65 0 0 1 3.44,0.24 c 2.12,0.72 4.64,1.2 6.51,2.43 a 26.88,26.88 0 0 1 5.23,4.98 z"
       transform="translate(-169.54,-44.5)"
       id="path424"
       inkscape:connector-curvature="0"
       style="opacity:0.1" />
    <path
       d="m 594.58,363.19 a 100.14,100.14 0 0 1 3.53,-13.54 31.71,31.71 0 0 0 1.77,-6.58 c 0.19,-1.77 0,-3.56 0.18,-5.33 0.14,-1.53 0.51,-3 0.74,-4.54 a 22.81,22.81 0 0 0 -0.55,-9.23 c -0.64,-2.39 0,-5.3 -1.56,-7.24 -0.62,-0.79 -1.45,-1.39 -2.1,-2.16 a 3,3 0 0 1 -0.79,-2.77 17.46,17.46 0 0 0 6.64,0.21 4.36,4.36 0 0 0 1.86,-0.65 1.75,1.75 0 0 0 0.78,-1.69 2.44,2.44 0 0 0 -1.27,-1.45 15.57,15.57 0 0 0 -13.23,-1.48 0.77,0.77 0 0 1 0.33,-0.94 2.83,2.83 0 0 1 1,-0.33 6.9,6.9 0 0 0 4.93,-4.28 1.46,1.46 0 0 0 0.1,-0.94 c -0.26,-0.73 -1.3,-0.69 -2.05,-0.5 l -4.08,1 a 9.58,9.58 0 0 0 -2.28,0.77 9.38,9.38 0 0 0 -2.33,2 c -2.14,2.31 -4.32,4.69 -5.5,7.61 -0.53,1.32 -0.84,2.72 -1.39,4 a 6.16,6.16 0 0 1 -2.68,3.21 3.47,3.47 0 0 0 -1.75,3.68 10.3,10.3 0 0 0 1.86,4 48.84,48.84 0 0 0 5.13,6.67 18.6,18.6 0 0 1 3.5,4.29 c 0.58,1.18 0.83,2.5 1.34,3.7 a 8.11,8.11 0 0 1 0.65,1.76 4.5,4.5 0 0 1 0,1.32 c -0.85,6.65 -5.78,12.07 -7.62,18.51 a 1.81,1.81 0 0 0 1,2.37 c 3.58,2.71 8,4.11 12.24,5.46 a 46.25,46.25 0 0 0 1.6,-6.91 z"
       transform="translate(-169.54,-44.5)"
       id="path426"
       inkscape:connector-curvature="0"
       style="opacity:0.1" />
    <path
       d="m 594,362.89 a 100.14,100.14 0 0 1 3.53,-13.54 31.1,31.1 0 0 0 1.77,-6.58 c 0.19,-1.77 0,-3.56 0.18,-5.33 0.14,-1.53 0.51,-3 0.74,-4.54 a 22.81,22.81 0 0 0 -0.55,-9.23 c -0.64,-2.39 0,-5.3 -1.56,-7.24 -0.62,-0.79 -1.45,-1.39 -2.1,-2.16 a 3,3 0 0 1 -0.79,-2.77 17.46,17.46 0 0 0 6.64,0.21 4.36,4.36 0 0 0 1.86,-0.65 1.78,1.78 0 0 0 0.79,-1.69 2.49,2.49 0 0 0 -1.28,-1.45 15.57,15.57 0 0 0 -13.23,-1.48 0.77,0.77 0 0 1 0.33,-0.94 2.82,2.82 0 0 1 1,-0.33 6.9,6.9 0 0 0 4.92,-4.28 1.44,1.44 0 0 0 0.1,-0.93 c -0.26,-0.74 -1.3,-0.7 -2,-0.51 l -4.07,1 a 9.5,9.5 0 0 0 -2.29,0.77 9.38,9.38 0 0 0 -2.33,2 c -2.14,2.31 -4.32,4.69 -5.5,7.61 -0.53,1.32 -0.84,2.72 -1.39,4 a 6.16,6.16 0 0 1 -2.68,3.21 3.49,3.49 0 0 0 -1.75,3.68 10.3,10.3 0 0 0 1.86,4 49.65,49.65 0 0 0 5.13,6.67 18.6,18.6 0 0 1 3.5,4.29 c 0.58,1.18 0.83,2.5 1.34,3.71 a 7.84,7.84 0 0 1 0.65,1.75 4.5,4.5 0 0 1 0,1.32 c -0.85,6.65 -5.78,12.07 -7.62,18.51 a 1.81,1.81 0 0 0 1,2.37 c 3.58,2.71 8,4.11 12.24,5.46 a 46.25,46.25 0 0 0 1.56,-6.91 z"
       transform="translate(-169.54,-44.5)"
       id="path428"
       inkscape:connector-curvature="0"
       style="fill:#fbbebe" />
    <path
       d="m 596.69,361.22 a 0.73,0.73 0 0 1 0.34,0.31 0.75,0.75 0 0 1 0,0.53 44,44 0 0 1 -3.86,8.5 q -4.77,-2.62 -9.31,-5.61 a 5,5 0 0 1 -1.87,-1.76 c -4.47,-8.63 11.73,-3.7 14.7,-1.97 z"
       transform="translate(-169.54,-44.5)"
       id="path430"
       inkscape:connector-curvature="0"
       style="fill:#3f3d56" />
    <path
       d="m 578.85,365.4 c -1.05,1.4 -2.26,2.66 -3.3,4.07 a 63.61,63.61 0 0 0 -4.55,8.21 56.38,56.38 0 0 1 -6.91,10.21 c -2.69,3.16 -5.91,6.4 -6.21,10.54 a 3.3,3.3 0 0 1 -0.37,1.71 c -0.3,0.44 -0.83,0.66 -1.22,1 -0.39,0.34 -0.63,1 -0.23,1.41 -1.54,0.16 -2.18,2 -2.48,3.53 l -0.68,3.5 a 13.81,13.81 0 0 0 -0.33,2.79 11.56,11.56 0 0 0 0.91,3.68 59.56,59.56 0 0 0 6.32,12.2 c 1.23,1.82 2.65,3.65 4.67,4.52 a 12.87,12.87 0 0 0 6,0.56 c 2.85,-0.18 6.16,-0.63 7.58,-3.11 0.9,-1.57 0.76,-3.6 1.74,-5.12 a 17.48,17.48 0 0 1 1.88,-2.07 13.37,13.37 0 0 0 2.31,-4.56 170.5,170.5 0 0 0 6.24,-22.75 36.72,36.72 0 0 1 2.05,-7.63 42.73,42.73 0 0 1 3.8,-6.27 c 2.53,-3.83 2.91,-7.15 4.66,-11.39 -3.86,-0.9 -5.64,-3.46 -8.93,-5.63 -3.1,-2.05 -7.69,-6.41 -11,-8 -1.09,2.73 -0.18,6.2 -1.95,8.6 z"
       transform="translate(-169.54,-44.5)"
       id="path432"
       inkscape:connector-curvature="0"
       style="opacity:0.1" />
    <path
       d="m 576.49,363.3 c -1,1.4 -2.26,2.67 -3.29,4.08 a 62.32,62.32 0 0 0 -4.55,8.2 56.11,56.11 0 0 1 -6.91,10.22 c -2.7,3.16 -5.91,6.39 -6.21,10.54 a 3.35,3.35 0 0 1 -0.37,1.7 7.22,7.22 0 0 1 -1.23,1 c -0.39,0.36 -0.62,1 -0.23,1.4 -1.54,0.17 -2.18,2 -2.47,3.54 l -0.68,3.5 a 12.5,12.5 0 0 0 -0.33,2.78 11.36,11.36 0 0 0 0.91,3.69 59.78,59.78 0 0 0 6.31,12.2 c 1.23,1.82 2.66,3.65 4.68,4.52 a 12.87,12.87 0 0 0 6,0.56 c 2.84,-0.18 6.16,-0.64 7.57,-3.11 0.9,-1.58 0.76,-3.6 1.74,-5.13 a 20.31,20.31 0 0 1 1.88,-2.06 13.39,13.39 0 0 0 2.32,-4.56 170.87,170.87 0 0 0 6.23,-22.75 37,37 0 0 1 2,-7.64 43.52,43.52 0 0 1 3.8,-6.26 c 2.54,-3.83 2.39,-6.1 4.14,-10.35 -3.86,-0.89 -5.12,-4.5 -8.41,-6.67 -3.1,-2.05 -7.68,-6.41 -11,-8 -1.03,2.74 -0.12,6.22 -1.9,8.6 z"
       transform="translate(-169.54,-44.5)"
       id="path434"
       inkscape:connector-curvature="0"
       style="opacity:0.1" />
    <path
       d="m 577.8,364.35 c -1,1.4 -2.26,2.67 -3.29,4.07 a 61.93,61.93 0 0 0 -4.55,8.21 55.69,55.69 0 0 1 -6.91,10.21 c -2.7,3.17 -5.91,6.4 -6.21,10.54 a 3.38,3.38 0 0 1 -0.37,1.71 7.72,7.72 0 0 1 -1.23,1 c -0.39,0.36 -0.62,1 -0.23,1.4 -1.54,0.16 -2.18,2 -2.47,3.54 l -0.68,3.5 a 12.43,12.43 0 0 0 -0.33,2.78 11.6,11.6 0 0 0 0.9,3.69 60,60 0 0 0 6.32,12.19 c 1.23,1.83 2.66,3.66 4.68,4.53 a 13,13 0 0 0 6,0.56 c 2.84,-0.18 6.16,-0.64 7.57,-3.11 0.9,-1.58 0.76,-3.61 1.74,-5.13 a 20.42,20.42 0 0 1 1.88,-2.07 13.43,13.43 0 0 0 2.32,-4.55 170.6,170.6 0 0 0 6.23,-22.76 36.89,36.89 0 0 1 2,-7.63 43.52,43.52 0 0 1 3.8,-6.26 71.46,71.46 0 0 0 6.45,-12.16 33.24,33.24 0 0 1 -10.72,-4.87 c -3.1,-2 -7.68,-6.41 -11,-8 -1.03,2.74 -0.13,6.26 -1.9,8.61 z"
       transform="translate(-169.54,-44.5)"
       id="path436"
       inkscape:connector-curvature="0"
       style="fill:#f86d70" />
    <circle
       cx="418.19"
       cy="322.92999"
       r="2.0899999"
       id="circle438"
       style="fill:#3f3d56" />
    <circle
       cx="411.64999"
       cy="333.14001"
       r="2.0899999"
       id="circle440"
       style="fill:#3f3d56" />
    <circle
       cx="404.85001"
       cy="343.60999"
       r="2.0899999"
       id="circle442"
       style="fill:#3f3d56" />
    <path
       d="m 680.91,435.88 h -19.14 c -0.23,-1.3 -0.08,-2.77 -0.93,-3.77 a 11.12,11.12 0 0 0 0.07,3.05 c 0.05,0.24 0.11,0.48 0.17,0.72 h -24.34 a 38.82,38.82 0 0 1 0.87,-9.13 84.56,84.56 0 0 0 1.39,-13.28 c 0.12,-5.51 -0.29,-11 -0.32,-16.51 a 120,120 0 0 1 1.05,-16.3 c 0.66,-5 1.64,-10 0.83,-15 -0.91,-5.53 -1.69,-11.13 -2.39,-16.69 a 18.63,18.63 0 0 0 -0.7,-3.63 23.74,23.74 0 0 0 -1,-2.43 37.41,37.41 0 0 1 -3.24,-12.73 c -0.14,-1.66 -2.49,-3.16 -2.46,-4.84 3.2,-0.65 8.91,-1.45 12,-0.34 3.09,1.11 5.37,3.84 8.47,4.87 3.1,1.03 6.38,0.28 9.39,1.29 a 2.5,2.5 0 0 1 1.55,1.1 2,2 0 0 1 -1.17,2.51 5.85,5.85 0 0 1 -3,0.23 q 5,3.65 9.7,7.7 a 10.22,10.22 0 0 1 2.72,3.11 10.65,10.65 0 0 1 0.74,4.63 c 0,1.84 0,3.67 0.05,5.51 0,3.54 1.78,6.8 2.4,10.28 0.78,4.4 1.17,8.85 1.53,13.3 0.21,2.59 0.41,5.18 0.52,7.78 0.2,5 1.07,10 1.15,14.95 0,1.54 0,3.09 0.14,4.62 a 45,45 0 0 0 0.66,4.47 c 0.58,3.21 1.16,6.43 1.75,9.64 a 13,13 0 0 1 0.28,2.55 14.38,14.38 0 0 0 -0.09,3.7 10.73,10.73 0 0 0 0.59,1.51 16.75,16.75 0 0 1 0.76,7.13 z"
       transform="translate(-169.54,-44.5)"
       id="path444"
       inkscape:connector-curvature="0"
       style="fill:#f86d70" />
    <ellipse
       cx="443.45001"
       cy="208.17"
       rx="28.27"
       ry="10.99"
       id="ellipse446"
       style="fill:#3f3d56" />
  </g>
  <g
     id="g2101"
     transform="matrix(3.7795276,0,0,3.7795276,-1054.5263,-1005.4491)">
    <g
       transform="translate(-124.50509,17.535654)"
       id="layer1"
       inkscape:label="Calque 1">
      <g
         transform="matrix(0.32012372,0,0,0.32012372,5.4250786,90.705681)"
         id="g1018">
        <g
           transform="matrix(0.82650337,0,0,0.82650337,746.26873,999.20801)"
           id="g3990">
          <circle
             style="fill:#2f2e41;stroke-width:0.80863535"
             cx="895.73877"
             cy="32.729488"
             r="63.882191"
             id="circle3877" />
          <rect
             style="fill:#2f2e41;stroke-width:0.80863535"
             x="866.62787"
             y="82.864899"
             width="19.407248"
             height="34.77132"
             id="rect3879" />
          <rect
             style="fill:#2f2e41;stroke-width:0.80863535"
             x="905.44238"
             y="82.864899"
             width="19.407248"
             height="34.77132"
             id="rect3881" />
          <ellipse
             style="fill:#2f2e41;stroke-width:0.80863535"
             cx="882.8006"
             cy="118.04056"
             rx="16.172707"
             ry="6.064765"
             id="ellipse3883" />
          <ellipse
             style="fill:#2f2e41;stroke-width:0.80863535"
             cx="921.61505"
             cy="117.2319"
             rx="16.172707"
             ry="6.064765"
             id="ellipse3885" />
          <circle
             style="fill:#ffffff;stroke-width:0.80863535"
             cx="897.35602"
             cy="16.556791"
             r="21.833155"
             id="circle3887" />
          <circle
             style="fill:#3f3d56;stroke-width:0.80863535"
             cx="897.35602"
             cy="16.556791"
             r="7.2777181"
             id="circle3889" />
          <path
             style="fill:#51c9e7;fill-opacity:1;stroke-width:0.80863535"
             inkscape:connector-curvature="0"
             d="m 833.7709,-26.679078 c -5.15819,-23.10076 11.33048,-46.4431 36.82849,-52.13658 25.49801,-5.69348 50.34976,8.41789 55.50797,31.51867 5.1582,23.10077 -11.74027,31.6207 -37.23827,37.3141805 -25.498,5.69348 -49.94,6.40448 -55.09819,-16.6962705 z"
             id="path3891" />
          <ellipse
             style="fill:#2f2e41;stroke-width:0.80863535"
             cx="861.59851"
             cy="-432.1344"
             rx="31.941095"
             ry="10.027297"
             transform="rotate(29.268747)"
             id="ellipse3893" />
          <ellipse
             style="fill:#2f2e41;stroke-width:0.80863535"
             cx="743.81219"
             cy="376.68835"
             rx="31.941095"
             ry="10.027297"
             transform="rotate(-23.17116)"
             id="ellipse3895" />
          <path
             style="fill:#ffffff;stroke-width:0.80863535"
             inkscape:connector-curvature="0"
             d="m 864.80973,67.989712 c -0.4555,-6.235756 14.70106,-19.722039 32.51747,-21.023482 17.81641,-1.301443 35.51948,8.973745 35.97498,15.2095 0.45551,6.235755 -16.50904,6.07068 -34.32545,7.372123 -17.81641,1.301443 -33.71149,4.677614 -34.167,-1.558141 z"
             id="path3897" />
          <g
             style="display:none"
             inkscape:label="Layer 2"
             id="layer3"
             inkscape:groupmode="layer" />
          <g
             inkscape:label="Layer 1"
             id="layer2"
             inkscape:groupmode="layer" />
        </g>
        <g
           id="g2129"
           transform="matrix(0.82650337,0,0,0.82650337,746.97878,864.29876)"
           inkscape:transform-center-x="16.322892"
           inkscape:transform-center-y="18.900191">
          <circle
             id="circle2103"
             r="63.882191"
             cy="32.729488"
             cx="895.73877"
             style="fill:#2f2e41;stroke-width:0.80863535" />
          <rect
             id="rect2105"
             height="34.77132"
             width="19.407248"
             y="82.864899"
             x="866.62787"
             style="fill:#2f2e41;stroke-width:0.80863535" />
          <rect
             id="rect2107"
             height="34.77132"
             width="19.407248"
             y="82.864899"
             x="905.44238"
             style="fill:#2f2e41;stroke-width:0.80863535" />
          <ellipse
             id="ellipse2109"
             ry="6.064765"
             rx="16.172707"
             cy="118.04056"
             cx="882.8006"
             style="fill:#2f2e41;stroke-width:0.80863535" />
          <ellipse
             id="ellipse2111"
             ry="6.064765"
             rx="16.172707"
             cy="117.2319"
             cx="921.61505"
             style="fill:#2f2e41;stroke-width:0.80863535" />
          <circle
             id="circle2113"
             r="21.833155"
             cy="16.556791"
             cx="897.35602"
             style="fill:#ffffff;stroke-width:0.80863535" />
          <circle
             id="circle2115"
             r="7.2777181"
             cy="8.8248949"
             cx="905.94702"
             style="fill:#3f3d56;stroke-width:0.80863535" />
          <path
             id="path2117"
             d="m 833.7709,-26.679078 c -5.15819,-23.10076 11.33048,-46.4431 36.82849,-52.13658 25.49801,-5.69348 50.34976,8.41789 55.50797,31.51867 5.1582,23.10077 -11.74027,31.6207 -37.23827,37.3141805 -25.498,5.69348 -49.94,6.40448 -55.09819,-16.6962705 z"
             inkscape:connector-curvature="0"
             style="fill:#51c9e7;fill-opacity:1;stroke-width:0.80863535" />
          <ellipse
             id="ellipse2119"
             transform="rotate(-23.17116)"
             ry="10.027297"
             rx="31.941095"
             cy="384.37869"
             cx="870.69983"
             style="fill:#2f2e41;stroke-width:0.80863535" />
          <ellipse
             id="ellipse2121"
             transform="rotate(-23.17116)"
             ry="10.027297"
             rx="31.941095"
             cy="376.68835"
             cx="743.81219"
             style="fill:#2f2e41;stroke-width:0.80863535" />
          <path
             id="path2123"
             d="m 932.93601,51.328132 c 0,6.25237 -16.09881,18.59861 -33.96269,18.59861 -17.86388,0 -34.77132,-11.53761 -34.77132,-17.78998 0,-6.25237 16.90744,-4.85181 34.77132,-4.85181 17.86388,0 33.96269,-2.20919 33.96269,4.04318 z"
             inkscape:connector-curvature="0"
             style="fill:#ffffff;stroke-width:0.80863535" />
          <g
             inkscape:groupmode="layer"
             id="g2125"
             inkscape:label="Layer 2"
             style="display:none" />
          <g
             inkscape:groupmode="layer"
             id="g2127"
             inkscape:label="Layer 1" />
        </g>
      </g>
    </g>
  </g>
</svg>
