<?xml version="1.0" encoding="UTF-8" standalone="no"?>
<svg
   xmlns:dc="http://purl.org/dc/elements/1.1/"
   xmlns:cc="http://creativecommons.org/ns#"
   xmlns:rdf="http://www.w3.org/1999/02/22-rdf-syntax-ns#"
   xmlns:svg="http://www.w3.org/2000/svg"
   xmlns="http://www.w3.org/2000/svg"
   xmlns:sodipodi="http://sodipodi.sourceforge.net/DTD/sodipodi-0.dtd"
   xmlns:inkscape="http://www.inkscape.org/namespaces/inkscape"
   id="a780dc9c-2107-4fd6-8fec-765248a5097a"
   data-name="Layer 1"
   width="897.77197"
   height="782.83099"
   viewBox="0 0 897.77196 782.83102"
   version="1.1"
   sodipodi:docname="undraw_happy_music_g6wc.svg"
   inkscape:version="0.92.5 (2060ec1f9f, 2020-04-08)">
  <metadata
     id="metadata85">
    <rdf:RDF>
      <cc:Work
         rdf:about="">
        <dc:format>image/svg+xml</dc:format>
        <dc:type
           rdf:resource="http://purl.org/dc/dcmitype/StillImage" />
        <dc:title>happy_music</dc:title>
      </cc:Work>
    </rdf:RDF>
  </metadata>
  <defs
     id="defs83" />
  <sodipodi:namedview
     pagecolor="#ffffff"
     bordercolor="#666666"
     borderopacity="1"
     objecttolerance="10"
     gridtolerance="10"
     guidetolerance="10"
     inkscape:pageopacity="0"
     inkscape:pageshadow="2"
     inkscape:window-width="1920"
     inkscape:window-height="1047"
     id="namedview81"
     showgrid="false"
     fit-margin-left="5"
     fit-margin-top="5"
     fit-margin-right="5"
     fit-margin-bottom="5"
     inkscape:zoom="0.43185966"
     inkscape:cx="78.673284"
     inkscape:cy="346.94352"
     inkscape:window-x="0"
     inkscape:window-y="33"
     inkscape:window-maximized="0"
     inkscape:current-layer="g2703" />
  <title
     id="title2">happy_music</title>
  <polygon
     points="887.772,763.25 252.263,772.831 0,728.121 393.817,728.121 "
     id="polygon4"
     style="fill:#e6e6e6"
     transform="translate(5,5)" />
  <circle
     cx="736.82227"
     cy="106.66024"
     r="101.66024"
     id="circle6"
     style="fill:#ff6584" />
  <path
     d="m 184.84034,738.43488 c 0,0 1.487,-31.15875 31.97119,-27.537"
     id="path8"
     inkscape:connector-curvature="0"
     style="fill:#3f3d56" />
  <circle
     cx="176.2269"
     cy="693.52637"
     r="15.25711"
     id="circle10"
     style="fill:#b04027" />
  <rect
     x="173.74434"
     y="719.21844"
     width="4.3067198"
     height="30.14703"
     id="rect12"
     style="fill:#3f3d56" />
  <path
     d="m 760.7376,749.07993 c 0,0 1.487,-31.15874 31.9712,-27.537"
     id="path20"
     inkscape:connector-curvature="0"
     style="fill:#3f3d56" />
  <circle
     cx="752.12415"
     cy="704.17145"
     r="15.25711"
     id="circle22"
     style="fill:#b04027" />
  <rect
     x="749.6416"
     y="729.86346"
     width="4.3067198"
     height="30.14703"
     id="rect24"
     style="fill:#3f3d56" />
  <path
     d="m 78.38983,728.85435 c 0,0 1.487,-31.15874 31.97119,-27.537"
     id="path32"
     inkscape:connector-curvature="0"
     style="fill:#3f3d56" />
  <circle
     cx="69.77639"
     cy="683.9458"
     r="15.25711"
     id="circle34"
     style="fill:#b04027" />
  <rect
     x="67.293831"
     y="709.63788"
     width="4.3067198"
     height="30.14703"
     id="rect36"
     style="fill:#3f3d56" />
  <polygon
     points=""
     id="polygon66"
     style="fill:#3f3d56"
     transform="translate(5,5)" />
  <path
     d="m 176.54731,352.47335 10e-4,-0.003 -3.64431,-1.51771 -15.37654,-6.50027 -5.51164,-2.32988 -0.423,1.06789 v 0 l -7.40381,18.694 20.83674,8.81923 0.1094,0.0991 -1.40416,3.31082 a 5.86169,5.86169 0 0 0 -0.4899,0.95547 c -0.98358,2.48353 0.87418,4.95394 2.63035,5.6494 1.75617,0.69546 3.9773,-0.75381 4.96087,-3.23734 0.97022,-2.44974 0.0221,-5.5618 -1.68937,-6.31373 l 0.002,-0.003 -3.64431,-1.51771 -12.46676,-4.84631 7.12325,-17.98534 -1.0558,-0.41806 -7.12577,17.992 -1.54154,-0.59929 7.15363,-18.06223 0.18843,0.0798 14.6541,6.20232 0.10928,0.0991 -1.404,3.31082 a 5.85137,5.85137 0 0 0 -0.48989,0.95547 c -0.98371,2.48353 0.87405,4.95394 2.63022,5.6494 1.75617,0.69546 3.9773,-0.75381 4.96087,-3.23734 0.97023,-2.44971 0.0221,-5.56178 -1.68924,-6.31371 z"
     id="path68"
     inkscape:connector-curvature="0"
     style="fill:#3f3d56" />
  <path
     d="m 248.66722,398.36743 c -7.564,-4.32464 -6.05044,-13.815 -6.05044,-13.815 -0.19032,-6.16526 -5.284,-5.29259 -5.284,-5.29259 l -1.85385,0.4231 a 5.62911,5.62911 0 0 0 -2.75664,-0.50981 l -2.82,0.47452 c 6.42137,1.50877 5.89378,6.88051 5.89378,6.88051 l 0.89964,6.281 -16.82582,-6.78775 1.93187,-4.555 a 8.12868,8.12868 0 0 0 0.68046,-1.32715 c 1.3661,-3.44946 -1.21409,-6.88051 -3.65325,-7.84645 -2.43916,-0.96618 -5.524,1.0471 -6.89022,4.49643 -1.34744,3.40232 -0.0305,7.7247 2.3464,8.769 l -0.002,0.004 5.06157,2.10782 0.0377,-0.11936 z m -8.54443,-11.036 0.53956,6.012 a 13.8665,13.8665 0 0 1 -2.52575,-9.20675 5.82316,5.82316 0 0 0 -1.12688,-3.22524 6.83065,6.83065 0 0 1 3.11307,6.41997 z"
     id="path70"
     inkscape:connector-curvature="0"
     style="fill:#3f3d56" />
  <path
     d="m 120.31894,309.45585 0.002,-0.004 -5.06157,-2.10794 -21.1545,-8.22341 5.33923,-4.75027 a 6.74419,6.74419 0 0 1 9.21683,-1.5099 l -1.65686,-2.46248 c 0,0 -3.11483,-4.12374 -7.475,0.23935 0,0 -5.39481,7.95307 -13.86878,5.92579 l 28.94032,12.249 0.15187,0.13763 -1.95014,4.59827 a 8.12429,8.12429 0 0 0 -0.68047,1.32715 c -1.36609,3.44933 1.2141,6.88038 3.65326,7.84644 2.43916,0.96606 5.524,-1.0471 6.89022,-4.49643 1.34743,-3.40237 0.0305,-7.7247 -2.34641,-8.7692 z"
     id="path72"
     inkscape:connector-curvature="0"
     style="fill:#3f3d56" />
  <path
     d="m 197.7659,282.54135 -1.95027,4.59826 a 8.13218,8.13218 0 0 0 -0.68034,1.32715 c -1.36622,3.44933 1.214,6.88039 3.65313,7.84645 2.43913,0.96606 5.52412,-1.0471 6.89022,-4.49643 1.34756,-3.40232 0.0306,-7.7247 -2.34627,-8.76915 l 0.002,-0.004 -5.06157,-2.10794 -17.31509,-6.73091 9.89338,-24.97992 -1.46629,-0.58077 -9.89716,24.98925 -2.141,-0.83221 9.9356,-25.0868 0.26178,0.11078 20.353,8.61438 0.152,0.13763 -1.95018,4.59823 a 8.13743,8.13743 0 0 0 -0.68034,1.32715 c -1.36622,3.44946 1.214,6.88051 3.65313,7.84657 2.43913,0.96606 5.52412,-1.0471 6.89022,-4.49656 1.34756,-3.40231 0.0306,-7.72469 -2.34628,-8.769 l 0.002,-0.004 -5.06157,-2.10781 -20.68475,-8.74419 v 0 l -8.8e-4,-3.8e-4 -0.67088,-0.28358 -7.65513,-3.23608 -10.87066,27.44744 28.9402,12.249 z m -18.809,-38.35074 z"
     id="path74"
     inkscape:connector-curvature="0"
     style="fill:#3f3d56" />
  <path
     d="m 106.05358,141.97181 0.004,-0.007 -8.71319,-3.62856 -36.41622,-14.15627 9.19111,-8.17728 c 0,0 6.11371,-8.4828 15.86619,-2.5991 l -2.852,-4.23907 c 0,0 -5.36217,-7.09893 -12.86781,0.41189 0,0 -9.2869,13.69082 -23.87434,10.201 l 49.81893,21.08581 0.26152,0.237 -3.35707,7.91563 a 14.00544,14.00544 0 0 0 -1.17137,2.28464 c -2.35169,5.9379 2.08991,11.84429 6.28877,13.50732 4.19886,1.66303 9.50936,-1.80256 11.86117,-7.74045 2.31951,-5.85696 0.0525,-13.29761 -4.03922,-15.0955 z"
     id="path76"
     inkscape:connector-curvature="0"
     style="fill:#3f3d56" />
  <path
     d="m 132.79355,260.88545 c -18.08491,-10.33993 -14.46594,-33.03029 -14.46594,-33.03029 -0.455,-14.7407 -12.63376,-12.65406 -12.63376,-12.65406 l -4.43241,1.01143 a 13.4583,13.4583 0 0 0 -6.59088,-1.219 l -6.7425,1.13469 c 15.353,3.60738 14.09161,16.45074 14.09161,16.45074 l 2.15092,15.0171 -40.229,-16.2288 4.61893,-10.89082 a 19.45075,19.45075 0 0 0 1.627,-3.17306 c 3.26633,-8.24724 -2.90271,-16.45062 -8.73461,-18.76034 -5.8319,-2.30972 -13.20748,2.50356 -16.47381,10.75068 -3.22184,8.13468 -0.0732,18.46919 5.60983,20.96607 l -0.005,0.01 12.10177,5.03977 0.0901,-0.28534 z m -20.429,-26.3861 1.29451,14.42385 c -7.59564,-10.08294 -6.04314,-22.06233 -6.04314,-22.06233 a 13.925,13.925 0 0 0 -2.69425,-7.71121 c 8.72525,5.22138 7.44284,15.34969 7.44284,15.34969 z"
     id="path78"
     inkscape:connector-curvature="0"
     style="fill:#3f3d56" />
  <g
     id="g1743"
     transform="matrix(3.7795276,0,0,3.7795276,3018.127,516.28744)">
    <g
       transform="translate(0.9664048,-83.841673)"
       id="layer1"
       inkscape:label="Calque 1">
      <g
         transform="matrix(0.32012372,0,0,0.32012372,-81.218192,179.94825)"
         id="g1018">
        <g
           transform="matrix(0.82650337,0,0,0.82650337,398.10149,902.43344)"
           id="g2703">
          <path
             style="fill:#e6e6e6;stroke-width:1.73421335"
             inkscape:connector-curvature="0"
             d="m -2666.544,-1383.591 c 0,72.4922 -43.0954,97.8038 -96.2563,97.8038 -53.1609,0 -96.2563,-25.3116 -96.2563,-97.8038 0,-72.492 96.2563,-164.7135 96.2563,-164.7135 0,0 96.2563,92.2215 96.2563,164.7135 z"
             id="path2662" />
          <polygon
             transform="matrix(1.7342134,0,0,1.7342134,-4206.5257,-1929.6299)"
             style="fill:#3f3d56"
             points="831.131,324.393 831.387,308.663 847.691,277.35 831.454,304.5 831.914,276.209 849.373,251.28 831.986,271.76 832.273,219.884 830.469,288.559 830.617,285.726 812.866,258.555 830.332,291.164 828.678,322.761 828.629,321.922 808.166,293.329 828.567,324.885 828.36,328.836 828.323,328.896 828.34,329.22 824.144,409.383 829.751,409.383 830.423,367.977 850.775,336.499 830.474,364.865 831.042,329.881 854.699,286.601 "
             id="polygon2664" />
          <ellipse
             style="fill:#2f2e41;stroke-width:1.73421335"
             cx="-2078.7278"
             cy="-2288.2434"
             rx="56.087788"
             ry="17.607693"
             transform="rotate(-21.1763)"
             id="ellipse2618" />
          <circle
             style="fill:#2f2e41;stroke-width:1.73421335"
             cx="-2877.3154"
             cy="-1367.4684"
             r="112.17561"
             id="circle2620" />
          <rect
             style="fill:#2f2e41;stroke-width:1.73421335"
             x="-2928.4338"
             y="-1279.4318"
             width="34.078663"
             height="61.057594"
             id="rect2622" />
          <rect
             style="fill:#2f2e41;stroke-width:1.73421335"
             x="-2860.2761"
             y="-1279.4318"
             width="34.078663"
             height="61.057594"
             id="rect2624" />
          <ellipse
             style="fill:#2f2e41;stroke-width:1.73421335"
             cx="-2900.0347"
             cy="-1217.6642"
             rx="28.398888"
             ry="10.649579"
             id="ellipse2626" />
          <ellipse
             style="fill:#2f2e41;stroke-width:1.73421335"
             cx="-2831.8774"
             cy="-1219.0841"
             rx="28.398888"
             ry="10.649579"
             id="ellipse2628" />
          <circle
             style="fill:#ffffff;stroke-width:1.73421335"
             cx="-2874.4758"
             cy="-1395.8672"
             r="38.338497"
             id="circle2630" />
          <circle
             style="fill:#3f3d56;stroke-width:1.73421335"
             cx="-2874.4758"
             cy="-1395.8672"
             r="12.779505"
             id="circle2632" />
          <path
             style="fill:#51c9e7;fill-opacity:1;stroke-width:1.73421335"
             inkscape:connector-curvature="0"
             d="m -2986.1297,-1471.7884 c -9.0576,-40.5643 19.8961,-81.5529 64.67,-91.5505 44.7739,-9.9975 88.413,14.7816 97.4706,55.3461 9.0576,40.5642 -20.6156,55.5251 -65.3896,65.5227 -44.7737,9.9977 -87.6932,11.2462 -96.751,-29.3183 z"
             id="path2634" />
          <ellipse
             style="fill:#2f2e41;stroke-width:1.73421335"
             cx="-1156.9476"
             cy="-3071.2527"
             rx="56.087788"
             ry="17.607693"
             transform="rotate(-45)"
             id="ellipse2636" />
          <path
             style="fill:#ffffff;stroke-width:1.73421335"
             inkscape:connector-curvature="0"
             d="m -2932.4159,-1326.9998 c 0,10.979 28.2692,32.6587 59.6377,32.6587 31.3686,0 60.7801,-30.9094 60.7801,-41.8883 0,-10.9791 -29.4115,2.1298 -60.7801,2.1298 -31.3685,0 -59.6377,-3.8793 -59.6377,7.0998 z"
             id="path2638" />
          <ellipse
             style="fill:#2f2e41;stroke-width:1.73421335"
             cx="324.37827"
             cy="-2990.637"
             rx="17.607693"
             ry="56.087788"
             transform="rotate(-68.8237)"
             id="ellipse2640" />
          <circle
             style="fill:#2f2e41;stroke-width:1.73421335"
             cx="-2559.156"
             cy="-1367.4684"
             r="112.17561"
             id="circle2642" />
          <rect
             style="fill:#2f2e41;stroke-width:1.73421335"
             x="2508.0381"
             y="1218.3743"
             width="34.078663"
             height="61.057594"
             transform="scale(-1)"
             id="rect2644" />
          <rect
             style="fill:#2f2e41;stroke-width:1.73421335"
             x="2576.1953"
             y="1218.3743"
             width="34.078663"
             height="61.057594"
             transform="scale(-1)"
             id="rect2646" />
          <ellipse
             style="fill:#2f2e41;stroke-width:1.73421335"
             cx="-2536.4368"
             cy="-1217.6642"
             rx="28.398888"
             ry="10.649579"
             id="ellipse2648" />
          <ellipse
             style="fill:#2f2e41;stroke-width:1.73421335"
             cx="-2604.5945"
             cy="-1219.0841"
             rx="28.398888"
             ry="10.649579"
             id="ellipse2650" />
          <circle
             style="fill:#ffffff;stroke-width:1.73421335"
             cx="-2561.9961"
             cy="-1395.8672"
             r="38.338497"
             id="circle2652" />
          <circle
             style="fill:#3f3d56;stroke-width:1.73421335"
             cx="-2561.9961"
             cy="-1395.8672"
             r="12.779505"
             id="circle2654" />
          <path
             style="fill:#b04027;stroke-width:1.73421335"
             inkscape:connector-curvature="0"
             d="m -2450.3419,-1471.7884 c 9.0576,-40.5643 -19.8961,-81.5529 -64.67,-91.5505 -44.7738,-9.9975 -88.413,14.7816 -97.4706,55.3461 -9.0576,40.5642 20.6156,55.5251 65.3895,65.5227 44.7738,9.9977 87.6933,11.2462 96.7511,-29.3183 z"
             id="path2656" />
          <ellipse
             style="fill:#2f2e41;stroke-width:1.73421335"
             cx="-772.91339"
             cy="-2687.2185"
             rx="17.607693"
             ry="56.087788"
             transform="rotate(-45)"
             id="ellipse2658" />
          <path
             style="fill:#ffffff;stroke-width:1.73421335"
             inkscape:connector-curvature="0"
             d="m -2504.0557,-1326.9998 c 0,10.979 -28.2692,32.6587 -59.6377,32.6587 -31.3686,0 -60.7802,-30.9094 -60.7802,-41.8883 0,-10.9791 29.4116,2.1298 60.7802,2.1298 31.3685,0 59.6377,-3.8793 59.6377,7.0998 z"
             id="path2660" />
        </g>
      </g>
    </g>
  </g>
</svg>
