<?xml version="1.0" encoding="UTF-8" standalone="no"?>
<svg
   xmlns:dc="http://purl.org/dc/elements/1.1/"
   xmlns:cc="http://creativecommons.org/ns#"
   xmlns:rdf="http://www.w3.org/1999/02/22-rdf-syntax-ns#"
   xmlns:svg="http://www.w3.org/2000/svg"
   xmlns="http://www.w3.org/2000/svg"
   xmlns:xlink="http://www.w3.org/1999/xlink"
   xmlns:sodipodi="http://sodipodi.sourceforge.net/DTD/sodipodi-0.dtd"
   xmlns:inkscape="http://www.inkscape.org/namespaces/inkscape"
   id="9a7f0d87-1824-4b3e-ab06-04e58600b515"
   data-name="Layer 1"
   width="1203.6179"
   height="820.9245"
   viewBox="0 0 1203.6179 820.9245"
   version="1.1"
   sodipodi:docname="undraw_physique.svg"
   inkscape:version="0.92.5 (2060ec1f9f, 2020-04-08)">
  <metadata
     id="metadata510">
    <rdf:RDF>
      <cc:Work
         rdf:about="">
        <dc:format>image/svg+xml</dc:format>
        <dc:type
           rdf:resource="http://purl.org/dc/dcmitype/StillImage" />
        <dc:title>children</dc:title>
      </cc:Work>
    </rdf:RDF>
  </metadata>
  <sodipodi:namedview
     pagecolor="#ffffff"
     bordercolor="#666666"
     borderopacity="1"
     objecttolerance="10"
     gridtolerance="10"
     guidetolerance="10"
     inkscape:pageopacity="0"
     inkscape:pageshadow="2"
     inkscape:window-width="1920"
     inkscape:window-height="1047"
     id="namedview508"
     showgrid="false"
     fit-margin-top="5"
     fit-margin-left="5"
     fit-margin-right="5"
     fit-margin-bottom="5"
     inkscape:zoom="0.58204059"
     inkscape:cx="536.136"
     inkscape:cy="448.24534"
     inkscape:window-x="0"
     inkscape:window-y="33"
     inkscape:window-maximized="0"
     inkscape:current-layer="g2703" />
  <defs
     id="defs11">
    <linearGradient
       id="96fd64a0-6351-4330-b812-2613840b356c"
       x1="625.32001"
       y1="588.17999"
       x2="625.32001"
       y2="218.67"
       gradientUnits="userSpaceOnUse">
      <stop
         offset="0"
         stop-color="gray"
         stop-opacity="0.25"
         id="stop2" />
      <stop
         offset="0.54"
         stop-color="gray"
         stop-opacity="0.12"
         id="stop4" />
      <stop
         offset="1"
         stop-color="gray"
         stop-opacity="0.1"
         id="stop6" />
    </linearGradient>
    <linearGradient
       id="65aaeda9-82be-4b39-9919-e403ba36e3f2"
       x1="933.16998"
       y1="777.5"
       x2="933.16998"
       y2="311.67999"
       xlink:href="#96fd64a0-6351-4330-b812-2613840b356c" />
    <linearGradient
       id="05d1d1fb-9375-46f7-a562-a16a81ed75db"
       x1="187.32001"
       y1="814.44"
       x2="187.32001"
       y2="271.29001"
       xlink:href="#96fd64a0-6351-4330-b812-2613840b356c" />
  </defs>
  <title
     id="title13">children</title>
  <ellipse
     cx="550.82526"
     cy="808.27472"
     rx="478.20001"
     ry="29.18"
     transform="rotate(-3.17)"
     id="ellipse15"
     style="opacity:0.1;fill:#b04027" />
  <path
     d="m 99.955282,423.43629 c 17.579998,72.21 54.779998,134.62 113.579998,164.86 122.19,62.88 397.76,30.45 603.43,-6.78 106.36,-19.22 199.88002,-72.34 267.81002,-147.15 z"
     id="path17"
     inkscape:connector-curvature="0"
     style="opacity:0.1;fill:#b04027" />
  <path
     d="m 1178.4753,83.556294 h -112.86 a 9.38,9.38 0 1 1 0,-18.75 h 19.5 a 9.38,9.38 0 1 1 0,-18.75 h -13.93 a 9.38,9.38 0 1 1 0,-18.75 h 58.9 c -13.08,-5.84 -28.31,-10 -46,-12.17 -160.53002,-19.8399994 -217.87002,-6.7199994 -238.10002,6.78 -25,16.64 -52.8,28.88 -82.54,34.78 -99.1,19.65 -284.41,43.29 -452.36,-7.57 -83.47,-25.28 -145.53,17.44 -182.72,88.829996 H 1198.0753 c -1.4,-20.75 -5.58,-39.919996 -13.26,-56.679996 a 10,10 0 0 1 -6.34,2.28 z"
     id="path19"
     inkscape:connector-curvature="0"
     style="opacity:0.1;fill:#b04027" />
  <path
     d="m 776.24528,311.29629 -1.47,-0.09 -15.36,-0.87 -147.16,-8.27 -15.9,-0.9 -234.34,-13.16 -65.68,-3.71 -10.39,-0.58 -9.23,-0.52 -186.329998,-10.47 a 458.86,458.86 0 0 0 4.38,126 l 156.789998,5.51 12.43,0.45 2.2,0.07 74.43,2.59 4,0.13 8.58,0.3 75,2.64 10.28,0.37 35.82,1.26 h 0.68 l 5.27,0.19 17.95,0.63 v 0 l 15.75,0.55 30,1.05 h 0.63 l 2.67,0.1 2.84,0.1 h 0.62 l 47.82,1.68 13.4,0.48 h 0.56 l 6.45,0.22 v 0 l 1.2,0.05 h 0.48 l 5.67,0.2 17.31,0.61 v 0 l 6.5,0.23 8.35,0.29 h 0.31 l 11.46,0.41 33.14,1.17 9.12,0.31 h 1 l 44.18,1.55 25.66,0.9 31.93,1.13 5.12,0.18 8.27,0.29 30.06,1.05 226.75002,8 a 446.55,446.55 0 0 0 68.83,-100.92 z m -426.34,70 a 9.94,9.94 0 0 1 -6.5,-2.4 v 0 a 9.48,9.48 0 0 1 -2.06,-2.49 9.11,9.11 0 0 1 -1.19,-4.48 8.94,8.94 0 0 1 1.61,-5.12 c 0,0 0,0 0,0 a 10.39,10.39 0 0 1 1.08,-1.29 9.89,9.89 0 0 1 7.06,-2.92 h 19.5 a 9.39,9.39 0 1 1 0,-18.76 h -13.93 a 9.1,9.1 0 0 1 -0.91,0 9.3610643,9.3610643 0 0 1 0.91,-18.7 h 112.84 a 9.38,9.38 0 1 1 0,18.74 h 13.93 a 9.39,9.39 0 1 1 0,18.76 h -19.5 a 9.38,9.38 0 1 1 0,18.74 z"
     id="path21"
     inkscape:connector-curvature="0"
     style="opacity:0.1;fill:#b04027" />
  <path
     d="m 1198.1153,138.61629 -778.36002,18.19 -85.55,2 -217.77,5.09 c -13.17,32.52 -21.889998,69.28 -25.899998,107.4 H 1179.1653 a 430.44,430.44 0 0 0 15.71,-68.45 c 3.24,-22.41 4.55,-44.06 3.24,-64.23 z m -888.00002,82.87 h -19.5 a 9.59,9.59 0 0 1 9.75,9.37 c 0,0.19 0,0.38 0,0.57 a 9.32,9.32 0 0 1 -4.33,7.23 10,10 0 0 1 -5.4,1.58 h -112.84 a 9.38,9.38 0 1 1 0,-18.75 h 19.51 a 9.38,9.38 0 1 1 0,-18.75 h -13.93 a 9.38,9.38 0 1 1 0,-18.75 h 112.84 a 9.38,9.38 0 1 1 0,18.75 h 13.93 a 9.88,9.88 0 0 1 4.63,1.14 9.33,9.33 0 0 1 5.12,8.23 9.6,9.6 0 0 1 -9.75,9.38 z"
     id="path23"
     inkscape:connector-curvature="0"
     style="opacity:0.1;fill:#b04027" />
  <g
     id="g55"
     style="opacity:0.1"
     transform="translate(87.965282,5.0062946)">
    <path
       d="m 645.86,596.39 c 0,0 28.55,-67.63 81.86,-92.72 22.38,-10.53 40.88,-27.41 52.22,-48.73 A 182.39,182.39 0 0 0 793,423.33"
       transform="translate(-55.35,-18.71)"
       stroke-miterlimit="10"
       id="path25"
       inkscape:connector-curvature="0"
       style="fill:none;stroke:#535461;stroke-width:2;stroke-miterlimit:10" />
    <path
       d="m 826.52,407.33 c -5.55,6.72 -34.32,16.52 -34.32,16.52 0,0 3.47,-29.15 9,-35.86 a 16.62,16.62 0 0 1 22.72,-2.49 15.13,15.13 0 0 1 2.6,21.83 z"
       transform="translate(-55.35,-18.71)"
       id="path27"
       inkscape:connector-curvature="0"
       style="fill:#b04027" />
    <path
       d="m 816.65,460.52 c -8.46,2.73 -38.15,-4.07 -38.15,-4.07 0,0 19.39,-22.65 27.85,-25.39 8.46,-2.74 17.63,1.65 20.47,9.78 a 15.4,15.4 0 0 1 -10.17,19.68 z"
       transform="translate(-55.35,-18.71)"
       id="path29"
       inkscape:connector-curvature="0"
       style="fill:#b04027" />
    <path
       d="m 763.14,523.39 c -8.74,-1.74 -30.8,-22 -30.8,-22 0,0 28.66,-10.17 37.38,-8.39 a 15.55,15.55 0 0 1 12.53,18.37 c -1.81,8.37 -10.37,13.77 -19.11,12.02 z"
       transform="translate(-55.35,-18.71)"
       id="path31"
       inkscape:connector-curvature="0"
       style="fill:#b04027" />
    <path
       d="m 711.51,562.2 c -8.92,-0.3 -34.23,-16.7 -34.23,-16.7 0,0 26.44,-14.66 35.36,-14.36 8.92,0.3 15.9,7.5 15.59,16.07 -0.31,8.57 -7.8,15.29 -16.72,14.99 z"
       transform="translate(-55.35,-18.71)"
       id="path33"
       inkscape:connector-curvature="0"
       style="fill:#b04027" />
    <path
       d="m 750.87,437.45 c 1.14,8.51 20.47,31.21 20.47,31.21 0,0 12.73,-26.67 11.59,-35.18 -1.14,-8.51 -9.24,-14.52 -18.1,-13.43 -8.86,1.09 -15.1,8.89 -13.96,17.4 z"
       transform="translate(-55.35,-18.71)"
       id="path35"
       inkscape:connector-curvature="0"
       style="fill:#b04027" />
    <path
       d="m 691.08,483.57 c 3.74,7.79 29.25,23.89 29.25,23.89 0,0 3.85,-29.11 0.11,-36.9 A 16.45,16.45 0 0 0 699,463 a 15.3,15.3 0 0 0 -7.92,20.57 z"
       transform="translate(-55.35,-18.71)"
       id="path37"
       inkscape:connector-curvature="0"
       style="fill:#b04027" />
    <path
       d="m 639.37,536.06 c 2.31,8.29 24.63,28.3 24.63,28.3 0,0 8.91,-28.06 6.59,-36.35 -2.32,-8.29 -11.17,-13.21 -19.8,-11 a 15.48,15.48 0 0 0 -11.42,19.05 z"
       transform="translate(-55.35,-18.71)"
       id="path39"
       inkscape:connector-curvature="0"
       style="fill:#b04027" />
    <path
       d="m 826.52,407.33 c -5.55,6.72 -34.32,16.52 -34.32,16.52 0,0 3.47,-29.15 9,-35.86 a 16.62,16.62 0 0 1 22.72,-2.49 15.13,15.13 0 0 1 2.6,21.83 z"
       transform="translate(-55.35,-18.71)"
       id="path41"
       inkscape:connector-curvature="0"
       style="opacity:0.25" />
    <path
       d="m 816.65,460.52 c -8.46,2.73 -38.15,-4.07 -38.15,-4.07 0,0 19.39,-22.65 27.85,-25.39 8.46,-2.74 17.63,1.65 20.47,9.78 a 15.4,15.4 0 0 1 -10.17,19.68 z"
       transform="translate(-55.35,-18.71)"
       id="path43"
       inkscape:connector-curvature="0"
       style="opacity:0.25" />
    <path
       d="m 763.14,523.39 c -8.74,-1.74 -30.8,-22 -30.8,-22 0,0 28.66,-10.17 37.38,-8.39 a 15.55,15.55 0 0 1 12.53,18.37 c -1.81,8.37 -10.37,13.77 -19.11,12.02 z"
       transform="translate(-55.35,-18.71)"
       id="path45"
       inkscape:connector-curvature="0"
       style="opacity:0.25" />
    <path
       d="m 711.51,562.2 c -8.92,-0.3 -34.23,-16.7 -34.23,-16.7 0,0 26.44,-14.66 35.36,-14.36 8.92,0.3 15.9,7.5 15.59,16.07 -0.31,8.57 -7.8,15.29 -16.72,14.99 z"
       transform="translate(-55.35,-18.71)"
       id="path47"
       inkscape:connector-curvature="0"
       style="opacity:0.25" />
    <path
       d="m 750.87,437.45 c 1.14,8.51 20.47,31.21 20.47,31.21 0,0 12.73,-26.67 11.59,-35.18 -1.14,-8.51 -9.24,-14.52 -18.1,-13.43 -8.86,1.09 -15.1,8.89 -13.96,17.4 z"
       transform="translate(-55.35,-18.71)"
       id="path49"
       inkscape:connector-curvature="0"
       style="opacity:0.25" />
    <path
       d="m 691.08,483.57 c 3.74,7.79 29.25,23.89 29.25,23.89 0,0 3.85,-29.11 0.11,-36.9 A 16.45,16.45 0 0 0 699,463 a 15.3,15.3 0 0 0 -7.92,20.57 z"
       transform="translate(-55.35,-18.71)"
       id="path51"
       inkscape:connector-curvature="0"
       style="opacity:0.25" />
    <path
       d="m 639.37,536.06 c 2.31,8.29 24.63,28.3 24.63,28.3 0,0 8.91,-28.06 6.59,-36.35 -2.32,-8.29 -11.17,-13.21 -19.8,-11 a 15.48,15.48 0 0 0 -11.42,19.05 z"
       transform="translate(-55.35,-18.71)"
       id="path53"
       inkscape:connector-curvature="0"
       style="opacity:0.25" />
  </g>
  <g
     id="g73"
     style="opacity:0.1"
     transform="translate(87.965282,5.0062946)">
    <path
       d="m 667.23,494 c 0,0 3.6,-72.91 45.24,-113.57 17.48,-17.07 29.11,-38.89 32.45,-62.62 a 179.44,179.44 0 0 0 1.44,-34"
       transform="translate(-55.35,-18.71)"
       stroke-miterlimit="10"
       id="path57"
       inkscape:connector-curvature="0"
       style="fill:none;stroke:#535461;stroke-width:2;stroke-miterlimit:10" />
    <path
       d="m 772.45,258 c -2.93,8.1 -26.69,26.52 -26.69,26.52 0,0 -6.76,-28.52 -3.86,-36.67 2.9,-8.15 12.14,-12.4 20.57,-9.58 a 15.4,15.4 0 0 1 9.98,19.73 z"
       transform="translate(-55.35,-18.71)"
       id="path59"
       inkscape:connector-curvature="0"
       style="fill:#b04027" />
    <path
       d="m 781.48,311.36 c -7,5.28 -37.39,8.33 -37.39,8.33 0,0 10.47,-27.56 17.51,-32.83 a 16.6,16.6 0 0 1 22.69,2.7 15.13,15.13 0 0 1 -2.81,21.8 z"
       transform="translate(-55.35,-18.71)"
       id="path61"
       inkscape:connector-curvature="0"
       style="fill:#b04027" />
    <path
       d="m 752.69,387.74 c -8.85,1.14 -36.66,-11 -36.66,-11 0,0 23.52,-18.71 32.36,-19.84 8.84,-1.13 17,4.83 18.17,13.33 1.17,8.5 -5.03,16.37 -13.87,17.51 z"
       transform="translate(-55.35,-18.71)"
       id="path63"
       inkscape:connector-curvature="0"
       style="fill:#b04027" />
    <path
       d="m 717.36,440.81 c -8.52,2.56 -38.05,-4.85 -38.05,-4.85 0,0 19.89,-22.25 28.41,-24.81 8.52,-2.56 17.58,2 20.25,10.19 a 15.44,15.44 0 0 1 -10.61,19.47 z"
       transform="translate(-55.35,-18.71)"
       id="path65"
       inkscape:connector-curvature="0"
       style="fill:#b04027" />
    <path
       d="m 711.46,310.57 c 4,7.66 30.08,22.91 30.08,22.91 0,0 2.81,-29.21 -1.2,-36.88 a 16.47,16.47 0 0 0 -21.7,-6.89 15.25,15.25 0 0 0 -7.18,20.86 z"
       transform="translate(-55.35,-18.71)"
       id="path67"
       inkscape:connector-curvature="0"
       style="fill:#b04027" />
    <path
       d="m 671,373.14 c 6.21,6.16 35.83,13.21 35.83,13.21 0,0 -6.41,-28.68 -12.62,-34.84 a 16.63,16.63 0 0 0 -22.86,-0.34 15.11,15.11 0 0 0 -0.35,21.97 z"
       transform="translate(-55.35,-18.71)"
       id="path69"
       inkscape:connector-curvature="0"
       style="fill:#b04027" />
    <path
       d="m 640.29,439.14 c 5,7.08 33,18.85 33,18.85 0,0 -1.29,-29.31 -6.29,-36.4 a 16.59,16.59 0 0 0 -22.47,-4 15.17,15.17 0 0 0 -4.24,21.55 z"
       transform="translate(-55.35,-18.71)"
       id="path71"
       inkscape:connector-curvature="0"
       style="fill:#b04027" />
  </g>
  <ellipse
     cx="488.52527"
     cy="692.61627"
     rx="18.049999"
     ry="2.48"
     id="ellipse75"
     style="opacity:0.1;fill:#b04027" />
  <ellipse
     cx="419.38528"
     cy="699.62628"
     rx="18.049999"
     ry="2.48"
     id="ellipse77"
     style="opacity:0.1;fill:#b04027" />
  <ellipse
     cx="337.94528"
     cy="690.13629"
     rx="18.049999"
     ry="2.48"
     id="ellipse79"
     style="opacity:0.1;fill:#b04027" />
  <ellipse
     cx="447.05527"
     cy="719.5863"
     rx="12.83"
     ry="1.76"
     id="ellipse81"
     style="opacity:0.1;fill:#b04027" />
  <ellipse
     cx="375.29526"
     cy="717.82629"
     rx="12.83"
     ry="1.76"
     id="ellipse83"
     style="opacity:0.1;fill:#b04027" />
  <path
     d="m 418.99528,699.06629 c 0,0 25.31,-83 -4,-116.22 -21.9,-24.86 -46.76,-21.89 -57.89,-18.81 a 20.53,20.53 0 0 0 -13.28,11 c -3.89,8.4 -3.19,22 24.28,37.94 46,26.63 48.87,63.17 48.87,63.17 z"
     id="path85"
     inkscape:connector-curvature="0"
     style="fill:#b04027" />
  <path
     d="m 361.10528,575.80629 c 0,0 74.62,23.33 57.89,123.26"
     stroke-miterlimit="10"
     id="path87"
     inkscape:connector-curvature="0"
     style="fill:none;stroke:#565987;stroke-miterlimit:10" />
  <path
     d="m 404.68528,584.16629 c 0,0 -10.27,6.93 -7,17.33"
     stroke-miterlimit="10"
     id="path89"
     inkscape:connector-curvature="0"
     style="fill:none;stroke:#565987;stroke-miterlimit:10" />
  <path
     d="m 368.61528,590.29629 c 0,0 6.28,-6.39 13.92,-2.86"
     stroke-miterlimit="10"
     id="path91"
     inkscape:connector-curvature="0"
     style="fill:none;stroke:#565987;stroke-miterlimit:10" />
  <path
     d="m 398.08528,622.46629 c 0,0 11,-5.6 13.88,1.41"
     stroke-miterlimit="10"
     id="path93"
     inkscape:connector-curvature="0"
     style="fill:none;stroke:#565987;stroke-miterlimit:10" />
  <path
     d="m 425.37528,634.13629 c 0,0 -8.28,-0.66 -8.43,3.3"
     stroke-miterlimit="10"
     id="path95"
     inkscape:connector-curvature="0"
     style="fill:none;stroke:#565987;stroke-miterlimit:10" />
  <path
     d="m 420.01528,699.72629 c 0,0 -29.64,-60.31 -37.79,-59 -3.86,0.63 -5.65,4.43 -6.45,8.26 a 24.29,24.29 0 0 0 1.61,14.68 c 4.23,9.63 15.51,27.99 42.63,36.06 z"
     id="path97"
     inkscape:connector-curvature="0"
     style="fill:#b04027" />
  <path
     d="m 382.44528,652.18629 c 0,0 31.17,45.11 37.17,47.11"
     stroke-miterlimit="10"
     id="path99"
     inkscape:connector-curvature="0"
     style="fill:none;stroke:#565987;stroke-miterlimit:10" />
  <line
     x1="379.58527"
     y1="659.22626"
     x2="386.84528"
     y2="659.22626"
     stroke-miterlimit="10"
     id="line101"
     style="fill:none;stroke:#565987;stroke-miterlimit:10" />
  <line
     x1="388.28528"
     y1="675.73627"
     x2="399.67526"
     y2="676.22626"
     stroke-miterlimit="10"
     id="line103"
     style="fill:none;stroke:#565987;stroke-miterlimit:10" />
  <line
     x1="395.21527"
     y1="662.52631"
     x2="393.97528"
     y2="668.4563"
     stroke-miterlimit="10"
     id="line105"
     style="fill:none;stroke:#565987;stroke-miterlimit:10" />
  <line
     x1="407.32526"
     y1="680.57629"
     x2="407.10529"
     y2="685.96631"
     stroke-miterlimit="10"
     id="line107"
     style="fill:none;stroke:#565987;stroke-miterlimit:10" />
  <path
     d="m 419.13528,699.72629 c 0,0 29.65,-60.31 37.8,-59 3.86,0.63 5.65,4.43 6.45,8.26 a 24.29,24.29 0 0 1 -1.61,14.68 c -4.16,9.63 -15.51,27.99 -42.64,36.06 z"
     id="path109"
     inkscape:connector-curvature="0"
     style="fill:#b04027" />
  <path
     d="m 456.70528,652.18629 c 0,0 -31.09,45.11 -37.09,47.11"
     stroke-miterlimit="10"
     id="path111"
     inkscape:connector-curvature="0"
     style="fill:none;stroke:#565987;stroke-miterlimit:10" />
  <line
     x1="459.56528"
     y1="659.22626"
     x2="452.30527"
     y2="659.22626"
     stroke-miterlimit="10"
     id="line113"
     style="fill:none;stroke:#565987;stroke-miterlimit:10" />
  <line
     x1="450.86526"
     y1="675.73627"
     x2="439.48526"
     y2="676.22626"
     stroke-miterlimit="10"
     id="line115"
     style="fill:none;stroke:#565987;stroke-miterlimit:10" />
  <line
     x1="443.94528"
     y1="662.52631"
     x2="445.17526"
     y2="668.4563"
     stroke-miterlimit="10"
     id="line117"
     style="fill:none;stroke:#565987;stroke-miterlimit:10" />
  <line
     x1="431.83527"
     y1="680.57629"
     x2="432.05527"
     y2="685.96631"
     stroke-miterlimit="10"
     id="line119"
     style="fill:none;stroke:#565987;stroke-miterlimit:10" />
  <path
     d="m 368.23528,713.81629 a 5.18,5.18 0 0 1 -1.69,-2.55 2.25,2.25 0 0 1 1.18,-2.59 c 1.08,-0.42 2.24,0.33 3.12,1.09 0.88,0.76 1.88,1.62 3,1.46 a 4.63,4.63 0 0 1 -1.43,-4.32 1.83,1.83 0 0 1 0.4,-0.87 c 0.6,-0.65 1.69,-0.37 2.41,0.14 2.29,1.61 2.93,4.72 2.94,7.51 a 13.86,13.86 0 0 0 0,-3.09 3.17,3.17 0 0 1 1.17,-2.74 3.46,3.46 0 0 1 1.77,-0.42 3.67,3.67 0 0 1 2.88,0.82 2.87,2.87 0 0 1 -0.11,3.53 11.2,11.2 0 0 1 -3,2.39 6.56,6.56 0 0 0 -2.13,2 1.46,1.46 0 0 0 -0.16,0.36 h -6.45 a 18.28,18.28 0 0 1 -3.9,-2.72 z"
     id="path121"
     inkscape:connector-curvature="0"
     style="fill:#b04027" />
  <path
     d="m 481.20528,689.52629 a 5.18,5.18 0 0 1 -1.69,-2.55 2.25,2.25 0 0 1 1.18,-2.59 c 1.08,-0.42 2.24,0.33 3.12,1.09 0.88,0.76 1.88,1.62 3,1.46 a 4.61,4.61 0 0 1 -1.43,-4.32 1.83,1.83 0 0 1 0.4,-0.87 c 0.6,-0.65 1.69,-0.37 2.41,0.14 2.29,1.61 2.93,4.72 2.94,7.51 a 13.86,13.86 0 0 0 0,-3.09 3.18,3.18 0 0 1 1.16,-2.74 3.49,3.49 0 0 1 1.78,-0.42 3.68,3.68 0 0 1 2.88,0.82 2.86,2.86 0 0 1 -0.12,3.53 11,11 0 0 1 -3,2.39 6.43,6.43 0 0 0 -2.12,2 1.46,1.46 0 0 0 -0.16,0.36 h -6.45 a 18,18 0 0 1 -3.9,-2.72 z"
     id="path123"
     inkscape:connector-curvature="0"
     style="fill:#b04027" />
  <path
     d="m 443.55528,713.81629 a 5.18,5.18 0 0 1 -1.69,-2.55 2.25,2.25 0 0 1 1.18,-2.59 c 1.08,-0.42 2.24,0.33 3.12,1.09 0.88,0.76 1.88,1.62 3,1.46 a 4.61,4.61 0 0 1 -1.43,-4.32 1.83,1.83 0 0 1 0.4,-0.87 c 0.6,-0.65 1.69,-0.37 2.41,0.14 2.29,1.61 2.93,4.72 2.94,7.51 a 13.86,13.86 0 0 0 0,-3.09 3.18,3.18 0 0 1 1.16,-2.74 3.49,3.49 0 0 1 1.78,-0.42 3.68,3.68 0 0 1 2.88,0.82 2.86,2.86 0 0 1 -0.12,3.53 11,11 0 0 1 -3,2.39 6.43,6.43 0 0 0 -2.12,2 1.46,1.46 0 0 0 -0.16,0.36 h -6.45 a 18,18 0 0 1 -3.9,-2.72 z"
     id="path125"
     inkscape:connector-curvature="0"
     style="fill:#b04027" />
  <path
     d="m 336.77528,664.71629 c 0,0 -2.42,3.16 1.12,7.93 3.54,4.77 6.45,8.81 5.27,11.78 0,0 -5.33,-8.86 -9.68,-9 -4.35,-0.14 -1.48,-5.38 3.29,-10.71 z"
     id="path127"
     inkscape:connector-curvature="0"
     style="fill:#b04027" />
  <path
     d="m 336.77528,664.71629 a 3.74,3.74 0 0 0 -0.49,1 c -4.24,5 -6.49,9.62 -2.42,9.73 3.79,0.11 8.34,6.89 9.43,8.61 0,0.13 -0.08,0.26 -0.13,0.38 -0.05,0.12 -5.33,-8.86 -9.68,-9 -4.35,-0.14 -1.48,-5.39 3.29,-10.72 z"
     id="path129"
     inkscape:connector-curvature="0"
     style="opacity:0.1" />
  <path
     d="m 332.28528,668.74629 c 0,1.11 0.12,2 0.27,2 0.15,0 0.28,-0.9 0.28,-2 0,-1.1 -0.15,-0.59 -0.31,-0.59 -0.16,0 -0.24,-0.53 -0.24,0.59 z"
     id="path131"
     inkscape:connector-curvature="0"
     style="fill:#ffd037" />
  <path
     d="m 330.73528,670.07629 c 1,0.53 1.83,0.85 1.91,0.71 0.08,-0.14 -0.66,-0.67 -1.64,-1.2 -0.98,-0.53 -0.59,-0.15 -0.67,0 -0.08,0.15 -0.57,-0.05 0.4,0.49 z"
     id="path133"
     inkscape:connector-curvature="0"
     style="fill:#ffd037" />
  <path
     d="m 349.55528,664.71629 c 0,0 2.41,3.16 -1.12,7.93 -3.53,4.77 -6.45,8.81 -5.27,11.78 0,0 5.33,-8.86 9.67,-9 4.34,-0.14 1.49,-5.38 -3.28,-10.71 z"
     id="path135"
     inkscape:connector-curvature="0"
     style="fill:#b04027" />
  <path
     d="m 349.55528,664.71629 a 4.15,4.15 0 0 1 0.49,1 c 4.23,5 6.49,9.62 2.42,9.73 -3.79,0.11 -8.34,6.89 -9.43,8.61 0,0.13 0.08,0.26 0.13,0.38 0.05,0.12 5.33,-8.86 9.67,-9 4.34,-0.14 1.49,-5.39 -3.28,-10.72 z"
     id="path137"
     inkscape:connector-curvature="0"
     style="opacity:0.1" />
  <path
     d="m 354.04528,668.74629 c 0,1.11 -0.12,2 -0.28,2 -0.16,0 -0.28,-0.9 -0.28,-2 0,-1.1 0.16,-0.59 0.31,-0.59 0.15,0 0.25,-0.53 0.25,0.59 z"
     id="path139"
     inkscape:connector-curvature="0"
     style="fill:#ffd037" />
  <path
     d="m 355.61528,670.07629 c -1,0.53 -1.83,0.85 -1.9,0.71 -0.07,-0.14 0.66,-0.67 1.64,-1.2 0.98,-0.53 0.59,-0.15 0.66,0 0.07,0.15 0.6,-0.05 -0.4,0.49 z"
     id="path141"
     inkscape:connector-curvature="0"
     style="fill:#ffd037" />
  <path
     d="m 353.27528,684.01629 c 0,0 -6.76,-0.21 -8.8,-1.66 -2.04,-1.45 -10.4,-3.18 -10.9,-0.85 -0.5,2.33 -10.17,11.57 -2.53,11.63 7.64,0.06 17.74,-1.19 19.77,-2.43 2.03,-1.24 2.46,-6.69 2.46,-6.69 z"
     id="path143"
     inkscape:connector-curvature="0"
     style="fill:#a8a8a8" />
  <path
     d="m 330.90528,692.29629 c 7.64,0.06 17.74,-1.19 19.77,-2.43 1.55,-0.94 2.17,-4.33 2.38,-5.89 h 0.22 c 0,0 -0.43,5.45 -2.46,6.69 -2.03,1.24 -12.14,2.49 -19.77,2.43 -2.21,0 -3,-0.8 -2.93,-2 0.31,0.78 1.15,1.2 2.79,1.2 z"
     id="path145"
     inkscape:connector-curvature="0"
     style="opacity:0.2" />
  <rect
     x="620.74615"
     y="-107.14371"
     width="17.67"
     height="39.490002"
     rx="8.8299999"
     ry="8.8299999"
     transform="rotate(72.57)"
     id="rect147"
     style="fill:#b04027" />
  <path
     d="m 281.27528,574.35629 c 0,0 82.34,-125.06 179.34,-54.06 97,71 120.83,116 201.92,91 81.09,-25 78.08,-74.14 142.08,-56.07 64,18.07 86.17,-41.1 86.17,-41.1"
     stroke-miterlimit="10"
     id="path503"
     inkscape:connector-curvature="0"
     style="fill:none;stroke:#b04027;stroke-width:4;stroke-miterlimit:10" />
  <rect
     x="1010.5029"
     y="94.622368"
     width="17.67"
     height="39.490002"
     rx="8.8299999"
     ry="8.8299999"
     transform="rotate(23.32)"
     id="rect505"
     style="fill:#b04027" />
  <g
     id="g2146"
     transform="matrix(3.7795276,0,0,3.7795276,-259.6928,-877.31267)">
    <g
       transform="translate(139.15837,-85.659988)"
       id="layer1"
       inkscape:label="Calque 1">
      <g
         transform="matrix(0.32012372,0,0,0.32012372,110.88737,70.704213)"
         id="g1018">
        <g
           transform="matrix(0.82650337,0,0,0.82650337,-103.73841,696.92179)"
           id="g2703">
          <ellipse
             style="fill:#2f2e41"
             cx="-524.21185"
             cy="518.29498"
             rx="32.341919"
             ry="10.15313"
             transform="rotate(-21.1763)"
             id="ellipse2618" />
          <circle
             style="fill:#2f2e41;stroke-width:1.78946936"
             cx="-395.89719"
             cy="701.24097"
             r="115.74977"
             id="circle2620" />
          <rect
             style="fill:#2f2e41;stroke-width:1.78946936"
             x="-448.64392"
             y="792.08252"
             width="35.164486"
             height="63.003033"
             id="rect2622" />
          <rect
             style="fill:#2f2e41;stroke-width:1.78946936"
             x="-378.31497"
             y="792.08252"
             width="35.164486"
             height="63.003033"
             id="rect2624" />
          <ellipse
             style="fill:#2f2e41;stroke-width:1.78946936"
             cx="-419.34018"
             cy="855.81818"
             rx="29.303741"
             ry="10.988899"
             id="ellipse2626" />
          <ellipse
             style="fill:#2f2e41;stroke-width:1.78946936"
             cx="-349.0112"
             cy="854.35297"
             rx="29.303741"
             ry="10.988899"
             id="ellipse2628" />
          <circle
             style="fill:#ffffff;stroke-width:1.78946936"
             cx="-392.9668"
             cy="671.93719"
             r="39.560051"
             id="circle2630" />
          <circle
             style="fill:#3f3d56;stroke-width:1.78946936"
             cx="-392.9668"
             cy="671.93719"
             r="13.186689"
             id="circle2632" />
          <path
             style="fill:#51c9e7;fill-opacity:1;stroke-width:1.78946936"
             inkscape:connector-curvature="0"
             d="m -508.17835,593.59695 c -9.34625,-41.85685 20.52998,-84.15142 66.73046,-94.46757 46.20049,-10.31615 91.23001,15.25261 100.57627,57.10945 9.34625,41.85683 -21.27248,57.29437 -67.47295,67.61053 -46.20046,10.31619 -90.4875,11.60445 -99.83378,-30.25241 z"
             id="path2634" />
          <ellipse
             style="fill:#2f2e41;stroke-width:1.78946936"
             cx="-867.96417"
             cy="143.95152"
             rx="57.874874"
             ry="18.168715"
             transform="rotate(-45)"
             id="ellipse2636" />
          <path
             style="fill:#ffffff;stroke-width:1.78946936"
             inkscape:connector-curvature="0"
             d="m -452.75309,742.99875 c 0,11.32881 29.16983,33.69929 61.53784,33.69929 32.36801,0 62.71668,-31.8942 62.71668,-43.22301 0,-11.32881 -30.34865,2.19778 -62.71668,2.19778 -32.36803,0 -61.53784,-4.00287 -61.53784,7.32594 z"
             id="path2638" />
          <ellipse
             style="fill:#2f2e41;stroke-width:1.63988578"
             cx="-440.85754"
             cy="568.36914"
             rx="16.649973"
             ry="53.037052"
             transform="rotate(-68.8237)"
             id="ellipse2640" />
          <circle
             style="fill:#2f2e41;stroke-width:1.63988578"
             cx="476.97791"
             cy="630.91071"
             r="106.07413"
             id="circle2642" />
          <rect
             style="fill:#2f2e41;stroke-width:1.63988578"
             x="-525.31543"
             y="-771.89526"
             width="32.225048"
             height="57.736542"
             transform="scale(-1)"
             id="rect2644" />
          <rect
             style="fill:#2f2e41;stroke-width:1.63988578"
             x="-460.86536"
             y="-771.89526"
             width="32.225048"
             height="57.736542"
             transform="scale(-1)"
             id="rect2646" />
          <ellipse
             style="fill:#2f2e41;stroke-width:1.63988578"
             cx="498.46127"
             cy="772.56665"
             rx="26.854212"
             ry="10.070325"
             id="ellipse2648" />
          <ellipse
             style="fill:#2f2e41;stroke-width:1.63988578"
             cx="434.01114"
             cy="771.22394"
             rx="26.854212"
             ry="10.070325"
             id="ellipse2650" />
          <circle
             style="fill:#ffffff;stroke-width:1.63988578"
             cx="474.29248"
             cy="604.05652"
             r="36.253181"
             id="circle2652" />
          <circle
             style="fill:#3f3d56;stroke-width:1.63988578"
             cx="474.29248"
             cy="604.05652"
             r="12.0844"
             id="circle2654" />
          <path
             style="fill:#b04027;stroke-width:1.63988578"
             inkscape:connector-curvature="0"
             d="m 579.87337,532.26483 c 8.56499,-38.35799 -18.81385,-77.11712 -61.15239,-86.57093 -42.33854,-9.45381 -83.604,13.97763 -92.16899,52.33561 -8.56499,38.35798 19.49429,52.50507 61.83281,61.9589 42.33852,9.45383 82.92356,10.6344 91.48857,-27.72358 z"
             id="path2656" />
          <ellipse
             style="fill:#2f2e41;stroke-width:1.63988578"
             cx="-42.902973"
             cy="867.86121"
             rx="16.649973"
             ry="53.037052"
             transform="rotate(-45)"
             id="ellipse2658" />
          <path
             style="fill:#ffffff;stroke-width:1.05131316"
             inkscape:connector-curvature="0"
             d="m 527.36308,673.62303 c 0,4.26689 -26.7315,12.6925 -56.39383,12.6925 -29.66234,0 -57.47413,-12.01262 -57.47413,-16.2795 0,-4.26689 27.81178,0.82776 57.47413,0.82776 29.66235,0 56.39383,-1.50764 56.39383,2.75924 z"
             id="path2660" />
          <g
             transform="matrix(1.4112365,0,0,1.4112365,-1117.6973,-379.89608)"
             id="g3364">
            <circle
               style="fill:#2f2e41"
               cx="828.12115"
               cy="568.64227"
               r="86.292252"
               id="circle3222" />
            <polygon
               style="fill:#2f2e41"
               points="766.65,674.925 742.805,664.031 764.211,613.9 788.056,624.794 "
               id="polygon3224" />
            <rect
               style="fill:#2f2e41"
               x="924.78131"
               y="734.01111"
               width="26.21537"
               height="46.9692"
               transform="rotate(24.55435,1094.2489,425.49456)"
               id="rect3226" />
            <ellipse
               style="fill:#2f2e41"
               cx="931.05487"
               cy="785.59698"
               rx="8.1922998"
               ry="21.84614"
               transform="rotate(-35.44565,720.50955,931.82821)"
               id="ellipse3228" />
            <ellipse
               style="fill:#2f2e41"
               cx="882.47137"
               cy="771.67242"
               rx="8.1922998"
               ry="21.84614"
               transform="rotate(-35.44565,671.92606,917.90367)"
               id="ellipse3230" />
            <circle
               style="fill:#ffffff"
               cx="839.18646"
               cy="549.67957"
               r="29.49229"
               id="circle3232" />
            <circle
               style="fill:#3f3d56"
               cx="828.54242"
               cy="536.42792"
               r="9.83076"
               id="circle3234" />
            <ellipse
               style="fill:#2f2e41"
               cx="1033.04"
               cy="668.07947"
               rx="13.5449"
               ry="43.14613"
               transform="rotate(-88.61681,922.46671,684.00501)"
               id="ellipse3238" />
            <ellipse
               style="fill:#2f2e41"
               cx="861.94055"
               cy="653.55695"
               rx="13.5449"
               ry="43.14613"
               transform="rotate(-88.61681,751.36722,669.48251)"
               id="ellipse3240" />
            <path
               transform="translate(-123.82515,-95)"
               style="fill:#ffffff"
               inkscape:connector-curvature="0"
               d="m 920.584,690.745 a 19.66154,19.66154 0 1 0 35.767,16.34094 c 4.51242,-9.87677 -2.55973,-15.58037 -12.43651,-20.09279 -9.87678,-4.51242 -18.81811,-6.12492 -23.33049,3.75185 z"
               id="path3242" />
          </g>
          <path
             id="path2148"
             d="M 6.4625351,266.22014 C 18.170163,224.96145 64.578717,201.99048 110.11897,214.91305 c 45.54026,12.92257 72.96703,56.84513 61.25941,98.10382 -11.70763,41.25868 -45.98332,40.2579 -91.52356,27.33534 C 34.31457,327.42968 -5.2450809,307.47885 6.4625351,266.22014 Z"
             inkscape:connector-curvature="0"
             style="fill:#51c9e7;fill-opacity:1;stroke-width:1.78946936" />
        </g>
      </g>
    </g>
  </g>
</svg>
