<?xml version="1.0" encoding="UTF-8" standalone="no"?>
<svg
   xmlns:dc="http://purl.org/dc/elements/1.1/"
   xmlns:cc="http://creativecommons.org/ns#"
   xmlns:rdf="http://www.w3.org/1999/02/22-rdf-syntax-ns#"
   xmlns:svg="http://www.w3.org/2000/svg"
   xmlns="http://www.w3.org/2000/svg"
   xmlns:sodipodi="http://sodipodi.sourceforge.net/DTD/sodipodi-0.dtd"
   xmlns:inkscape="http://www.inkscape.org/namespaces/inkscape"
   id="b6a0220b-322a-435e-9212-1568a8115194"
   data-name="Layer 1"
   width="898"
   height="655.10559"
   viewBox="0 0 897.99999 655.10559"
   version="1.1"
   sodipodi:docname="undraw_true_love_cy8x.svg"
   inkscape:version="0.92.5 (2060ec1f9f, 2020-04-08)">
  <metadata
     id="metadata69">
    <rdf:RDF>
      <cc:Work
         rdf:about="">
        <dc:format>image/svg+xml</dc:format>
        <dc:type
           rdf:resource="http://purl.org/dc/dcmitype/StillImage" />
        <dc:title>true_love</dc:title>
      </cc:Work>
    </rdf:RDF>
  </metadata>
  <defs
     id="defs67" />
  <sodipodi:namedview
     pagecolor="#ffffff"
     bordercolor="#666666"
     borderopacity="1"
     objecttolerance="10"
     gridtolerance="10"
     guidetolerance="10"
     inkscape:pageopacity="0"
     inkscape:pageshadow="2"
     inkscape:window-width="1920"
     inkscape:window-height="1047"
     id="namedview65"
     showgrid="false"
     inkscape:zoom="0.98873871"
     inkscape:cx="483.82505"
     inkscape:cy="308.18572"
     inkscape:window-x="0"
     inkscape:window-y="33"
     inkscape:window-maximized="0"
     inkscape:current-layer="g2273"
     fit-margin-top="5"
     fit-margin-left="5"
     fit-margin-right="5"
     fit-margin-bottom="5" />
  <title
     id="title2">true_love</title>
  <rect
     x="233.14316"
     y="-103.49237"
     width="2.5729799"
     height="13.89411"
     transform="rotate(26.64397)"
     id="rect4"
     style="fill:#ffffff" />
  <path
     d="M 558.42956,414.53288 H 68.750563 a 9.98831,9.98831 0 0 1 -1.82989,-0.145 L 298.51632,13.230881 a 16.2157,16.2157 0 0 1 28.22705,0 l 155.42971,269.207469 7.44637,12.8816 z"
     id="path8"
     inkscape:connector-curvature="0"
     style="fill:#b04027" />
  <polygon
     points="477.173,277.358 484.619,290.239 553.43,409.452 386.241,409.452 468.314,290.239 474.22,281.652 "
     id="polygon10"
     style="opacity:0.2"
     transform="translate(5.000003,5.0804607)" />
  <path
     d="M 831.07935,414.08046 H 407.54722 l 82.07223,-119.21293 5.9062,-8.58777 106.94748,-155.35731 c 7.01145,-10.182 23.87881,-10.81607 32.12223,-1.92044 a 19.328,19.328 0 0 1 1.54006,1.92044 z"
     id="path12"
     inkscape:connector-curvature="0"
     style="fill:#3f3d56" />
  <rect
     y="413.0137"
     width="888"
     height="2.24072"
     id="rect14"
     x="5"
     style="fill:#3f3d56" />
  <ellipse
     cx="381.6228"
     cy="628.84436"
     rx="32.341919"
     ry="10.15313"
     transform="rotate(-21.1763)"
     id="ellipse16"
     style="fill:#2f2e41" />
  <circle
     cx="518.22888"
     cy="457.36923"
     r="64.683853"
     id="circle18"
     style="fill:#2f2e41" />
  <rect
     x="488.75275"
     y="508.13373"
     width="19.650789"
     height="35.207661"
     id="rect20"
     style="fill:#2f2e41" />
  <rect
     x="528.05426"
     y="508.13373"
     width="19.650789"
     height="35.207661"
     id="rect22"
     style="fill:#2f2e41" />
  <ellipse
     cx="505.12842"
     cy="543.75079"
     rx="16.37566"
     ry="6.1408701"
     id="ellipse24"
     style="fill:#2f2e41" />
  <ellipse
     cx="544.42993"
     cy="542.93201"
     rx="16.37566"
     ry="6.1408701"
     id="ellipse26"
     style="fill:#2f2e41" />
  <circle
     cx="519.86646"
     cy="440.99356"
     r="22.10714"
     id="circle28"
     style="fill:#ffffff" />
  <circle
     cx="519.86646"
     cy="440.99356"
     r="7.36905"
     id="circle30"
     style="fill:#3f3d56" />
  <path
     d="m 455.48337,397.21508 c -5.22292,-23.39065 11.47266,-47.02591 37.29064,-52.79083 25.81798,-5.76492 50.9816,8.52354 56.20452,31.91418 5.22292,23.39064 -11.88759,32.01752 -37.70556,37.78245 -25.81797,5.76493 -50.56667,6.48484 -55.7896,-16.9058 z"
     id="path32"
     style="fill:#51c9e7;fill-opacity:1"
     inkscape:connector-curvature="0" />
  <ellipse
     cx="-8.4727659"
     cy="649.6394"
     rx="32.341919"
     ry="10.15313"
     transform="rotate(-45)"
     id="ellipse34"
     style="fill:#2f2e41" />
  <path
     d="m 486.45638,480.70451 c 0,6.33082 16.30083,18.832 34.38888,18.832 18.08805,0 35.04764,-17.82327 35.04764,-24.15409 0,-6.33082 -16.95958,1.22817 -35.04764,1.22817 -18.08806,0 -34.38888,-2.2369 -34.38888,4.09392 z"
     id="path36"
     inkscape:connector-curvature="0"
     style="fill:#ffffff" />
  <ellipse
     cx="-331.11063"
     cy="394.84235"
     rx="10.15313"
     ry="32.341919"
     transform="rotate(-68.8237)"
     id="ellipse38"
     style="fill:#2f2e41" />
  <circle
     cx="313.35721"
     cy="460.22986"
     r="64.683853"
     id="circle40"
     style="fill:#2f2e41" />
  <rect
     x="-342.83337"
     y="-546.20203"
     width="19.650789"
     height="35.207661"
     transform="scale(-1)"
     id="rect42"
     style="fill:#2f2e41" />
  <rect
     x="-303.5318"
     y="-546.20203"
     width="19.650789"
     height="35.207661"
     transform="scale(-1)"
     id="rect44"
     style="fill:#2f2e41" />
  <ellipse
     cx="326.45773"
     cy="546.61139"
     rx="16.37566"
     ry="6.1408701"
     id="ellipse46"
     style="fill:#2f2e41" />
  <ellipse
     cx="287.15613"
     cy="545.7926"
     rx="16.37566"
     ry="6.1408701"
     id="ellipse48"
     style="fill:#2f2e41" />
  <circle
     cx="311.71964"
     cy="443.85419"
     r="22.10714"
     id="circle50"
     style="fill:#ffffff" />
  <circle
     cx="311.71964"
     cy="443.85419"
     r="7.36905"
     id="circle52"
     style="fill:#3f3d56" />
  <path
     d="m 376.10272,400.07572 c 5.22292,-23.39065 -11.47266,-47.02591 -37.29064,-52.79083 -25.81798,-5.76492 -50.9816,8.52354 -56.20452,31.91418 -5.22292,23.39064 11.88759,32.01752 37.70556,37.78245 25.81797,5.76493 50.56667,6.48484 55.7896,-16.9058 z"
     id="path54"
     inkscape:connector-curvature="0"
     style="fill:#51c9e7;fill-opacity:1" />
  <ellipse
     cx="-63.642078"
     cy="598.51575"
     rx="10.15313"
     ry="32.341919"
     transform="rotate(-45)"
     id="ellipse56"
     style="fill:#2f2e41" />
  <path
     d="m 345.12971,483.56515 c 0,6.33082 -16.30083,18.832 -34.38888,18.832 -18.08805,0 -35.04764,-17.82327 -35.04764,-24.15409 0,-6.33082 16.95958,1.22817 35.04764,1.22817 18.08806,0 34.38888,-2.2369 34.38888,4.09392 z"
     id="path58"
     inkscape:connector-curvature="0"
     style="fill:#ffffff" />
  <path
     d="m 893,319.94306 c 0,41.80115 -24.8501,56.39655 -55.5043,56.39655 -30.65418,0 -55.5043,-14.5954 -55.5043,-56.39655 0,-41.80115 55.5043,-94.97881 55.5043,-94.97881 0,0 55.5043,53.17765 55.5043,94.97881 z"
     id="path60"
     style="fill:#51c9e7;fill-opacity:1"
     inkscape:connector-curvature="0" />
  <polygon
     points="831.387,308.663 847.691,277.35 831.454,304.5 831.454,304.5 831.914,276.209 849.373,251.28 831.986,271.76 832.273,219.884 830.469,288.559 830.617,285.726 812.866,258.555 830.332,291.164 828.678,322.761 828.629,321.922 808.166,293.329 828.567,324.885 828.36,328.836 828.323,328.896 828.34,329.22 824.144,409.383 829.751,409.383 830.423,367.977 850.775,336.499 830.474,364.865 831.042,329.881 854.699,286.601 831.131,324.393 "
     id="polygon62"
     style="fill:#3f3d56"
     transform="translate(5.000003,5.0804607)" />
  <g
     id="g2273"
     transform="translate(915.60093,125.6567)">
    <path
       id="path2155"
       d="m -312.24945,501.44889 c -15.39392,0 -30.0871,0.29541 -43.53882,0.83081 a 2.072,2.072 0 0 0 0.0388,-0.33081 c 0,-4.66742 -16.02979,-8.93048 -42.46613,-12.18531 77.85541,-4.22778 130.04364,-11.99011 130.04364,-20.86767 0,-13.39685 -118.82458,-24.25714 -265.40216,-24.25714 -146.57758,0 -265.4021,10.86029 -265.4021,24.25714 0,2.49841 4.13709,4.90838 11.81147,7.17633 -45.72596,1.55282 -78.58472,5.83571 -78.58472,10.87665 0,6.35125 52.15881,11.5 116.5,11.5 20.59656,0 39.94019,-0.52832 56.7287,-1.4541 -4.05335,1.5769 -6.2287,3.238 -6.2287,4.9541 0,10.21722 76.78314,18.5 171.5,18.5 39.35321,0 75.60321,-1.43085 104.54388,-3.83515 15.50159,4.55422 59.09632,7.83515 110.45612,7.83515 64.34119,0 116.5,-5.14875 116.5,-11.5 0,-6.35125 -52.15881,-11.5 -116.5,-11.5 z"
       inkscape:connector-curvature="0"
       style="fill:#3f3d56" />
    <path
       id="path2157"
       d="m -769.71028,435.0043 c 6.70634,24.79067 29.67707,40.14415 29.67707,40.14415 0,0 12.0976,-24.84013 5.39126,-49.63079 -6.70634,-24.79066 -29.67707,-40.14415 -29.67707,-40.14415 0,0 -12.0976,24.84013 -5.39126,49.63079 z"
       inkscape:connector-curvature="0"
       style="fill:#3f3d56" />
    <path
       id="path2159"
       d="m -759.85579,429.67652 c 18.4023,17.9139 20.65,45.45172 20.65,45.45172 0,0 -27.58832,-1.50633 -45.99061,-19.42023 -18.40229,-17.9139 -20.65,-45.45172 -20.65,-45.45172 0,0 27.58831,1.50634 45.99061,19.42023 z"
       inkscape:connector-curvature="0"
       style="fill:#b04027" />
  </g>
</svg>
